M48
; DRILL file {KiCad (5.1.5-0-10_14)} date 2020 July 04, Saturday 20:04:00
; FORMAT={-:-/ absolute / inch / decimal}
; #@! TF.CreationDate,2020-07-04T20:04:00+02:00
; #@! TF.GenerationSoftware,Kicad,Pcbnew,(5.1.5-0-10_14)
FMAT,2
INCH
T1C0.0118
T2C0.0236
T3C0.0315
T4C0.0335
T5C0.0374
T6C0.0394
T7C0.1378
%
G90
G05
T1
X3.82Y-4.56
X3.82Y-5.06
X3.82Y-5.56
X3.82Y-6.06
X4.225Y-3.05
X4.225Y-3.1
X4.57Y-4.56
X4.57Y-5.06
X4.57Y-5.56
X4.57Y-6.06
X4.64Y-3.6
X4.72Y-3.05
X4.72Y-3.1
X4.8Y-2.47
X4.85Y-3.37
X4.85Y-3.65
X4.87Y-3.09
X4.87Y-3.39
X4.87Y-3.6301
X4.89Y-2.7
X4.895Y-3.555
X4.94Y-6.46
X4.94Y-6.74
X4.99Y-3.02
X4.99Y-3.06
X5.0Y-2.59
X5.06Y-3.12
X5.06Y-3.43
X5.08Y-3.14
X5.08Y-3.41
X5.1Y-3.16
X5.12Y-3.14
X5.12Y-3.39
X5.14Y-3.12
X5.14Y-3.37
X5.21Y-3.05
X5.24Y-6.23
X5.26Y-6.47
X5.26Y-6.51
X5.27Y-2.52
X5.28Y-6.45
X5.3Y-3.63
X5.3Y-6.48
X5.32Y-3.41
X5.32Y-3.53
X5.32Y-4.56
X5.32Y-5.06
X5.32Y-5.56
X5.32Y-6.06
X5.34Y-3.43
X5.34Y-3.55
X5.41Y-2.32
X5.41Y-2.85
X5.41Y-3.59
X5.41Y-6.35
X5.46Y-3.7
X5.48Y-3.1
X5.72Y-2.22
X6.07Y-4.56
X6.07Y-5.06
X6.07Y-5.56
X6.07Y-6.06
T3
X5.6781Y-2.575
X5.875Y-2.575
T4
X5.6766Y-2.1326
X5.8734Y-2.1326
T5
X4.5281Y-5.3
X4.6266Y-5.3
X4.725Y-5.3
X4.8234Y-5.3
X4.9219Y-5.3
X5.2781Y-5.8
X5.3766Y-5.8
X5.475Y-5.8
X5.5734Y-5.8
X5.6719Y-5.8
X6.0281Y-4.8
X6.1266Y-4.8
X6.225Y-4.8
X6.3234Y-4.8
X6.4219Y-4.8
X3.7781Y-5.8
X3.8766Y-5.8
X3.975Y-5.8
X4.0734Y-5.8
X4.1719Y-5.8
X4.5281Y-4.8
X4.6266Y-4.8
X4.725Y-4.8
X4.8234Y-4.8
X4.9219Y-4.8
X5.2781Y-5.3
X5.3766Y-5.3
X5.475Y-5.3
X5.5734Y-5.3
X5.6719Y-5.3
X5.2781Y-4.3
X5.3766Y-4.3
X5.475Y-4.3
X5.5734Y-4.3
X5.6719Y-4.3
X6.0281Y-5.3
X6.1266Y-5.3
X6.225Y-5.3
X6.3234Y-5.3
X6.4219Y-5.3
X3.7781Y-4.8
X3.8766Y-4.8
X3.975Y-4.8
X4.0734Y-4.8
X4.1719Y-4.8
X4.5281Y-4.3
X4.6266Y-4.3
X4.725Y-4.3
X4.8234Y-4.3
X4.9219Y-4.3
X6.0281Y-5.8
X6.1266Y-5.8
X6.225Y-5.8
X6.3234Y-5.8
X6.4219Y-5.8
X3.7781Y-4.3
X3.8766Y-4.3
X3.975Y-4.3
X4.0734Y-4.3
X4.1719Y-4.3
X6.0281Y-4.3
X6.1266Y-4.3
X6.225Y-4.3
X6.3234Y-4.3
X6.4219Y-4.3
X3.7781Y-5.3
X3.8766Y-5.3
X3.975Y-5.3
X4.0734Y-5.3
X4.1719Y-5.3
X5.2781Y-4.8
X5.3766Y-4.8
X5.475Y-4.8
X5.5734Y-4.8
X5.6719Y-4.8
X4.5281Y-5.8
X4.6266Y-5.8
X4.725Y-5.8
X4.8234Y-5.8
X4.9219Y-5.8
T6
X5.675Y-2.85
X5.675Y-2.95
X5.775Y-2.85
X5.775Y-2.95
X5.875Y-2.85
X5.875Y-2.95
T7
X6.225Y-6.35
X3.975Y-6.35
X6.225Y-3.85
X3.975Y-3.85
T2
G00X5.6372Y-2.0401
M15
G01X5.6372Y-2.0125
M16
G05
G00X5.9128Y-2.0125
M15
G01X5.9128Y-2.0401
M16
G05
T0
M30
