G04 #@! TF.GenerationSoftware,KiCad,Pcbnew,(5.1.5-0-10_14)*
G04 #@! TF.CreationDate,2020-07-04T20:20:26+02:00*
G04 #@! TF.ProjectId,controller,636f6e74-726f-46c6-9c65-722e6b696361,rev?*
G04 #@! TF.SameCoordinates,Original*
G04 #@! TF.FileFunction,Legend,Top*
G04 #@! TF.FilePolarity,Positive*
%FSLAX46Y46*%
G04 Gerber Fmt 4.6, Leading zero omitted, Abs format (unit mm)*
G04 Created by KiCad (PCBNEW (5.1.5-0-10_14)) date 2020-07-04 20:20:26*
%MOMM*%
%LPD*%
G04 APERTURE LIST*
%ADD10C,0.150000*%
%ADD11C,0.120000*%
G04 APERTURE END LIST*
D10*
X129047142Y-171162142D02*
X129690000Y-171162142D01*
X129818571Y-171205000D01*
X129904285Y-171290714D01*
X129947142Y-171419285D01*
X129947142Y-171505000D01*
X129947142Y-170305000D02*
X129947142Y-170733571D01*
X129047142Y-170733571D01*
X129861428Y-169490714D02*
X129904285Y-169533571D01*
X129947142Y-169662142D01*
X129947142Y-169747857D01*
X129904285Y-169876428D01*
X129818571Y-169962142D01*
X129732857Y-170005000D01*
X129561428Y-170047857D01*
X129432857Y-170047857D01*
X129261428Y-170005000D01*
X129175714Y-169962142D01*
X129090000Y-169876428D01*
X129047142Y-169747857D01*
X129047142Y-169662142D01*
X129090000Y-169533571D01*
X129132857Y-169490714D01*
X129047142Y-168847857D02*
X129690000Y-168847857D01*
X129818571Y-168890714D01*
X129904285Y-168976428D01*
X129947142Y-169105000D01*
X129947142Y-169190714D01*
X129947142Y-167990714D02*
X129947142Y-168419285D01*
X129047142Y-168419285D01*
X129861428Y-167176428D02*
X129904285Y-167219285D01*
X129947142Y-167347857D01*
X129947142Y-167433571D01*
X129904285Y-167562142D01*
X129818571Y-167647857D01*
X129732857Y-167690714D01*
X129561428Y-167733571D01*
X129432857Y-167733571D01*
X129261428Y-167690714D01*
X129175714Y-167647857D01*
X129090000Y-167562142D01*
X129047142Y-167433571D01*
X129047142Y-167347857D01*
X129090000Y-167219285D01*
X129132857Y-167176428D01*
X129047142Y-166533571D02*
X129690000Y-166533571D01*
X129818571Y-166576428D01*
X129904285Y-166662142D01*
X129947142Y-166790714D01*
X129947142Y-166876428D01*
X129947142Y-165676428D02*
X129947142Y-166105000D01*
X129047142Y-166105000D01*
X129861428Y-164862142D02*
X129904285Y-164905000D01*
X129947142Y-165033571D01*
X129947142Y-165119285D01*
X129904285Y-165247857D01*
X129818571Y-165333571D01*
X129732857Y-165376428D01*
X129561428Y-165419285D01*
X129432857Y-165419285D01*
X129261428Y-165376428D01*
X129175714Y-165333571D01*
X129090000Y-165247857D01*
X129047142Y-165119285D01*
X129047142Y-165033571D01*
X129090000Y-164905000D01*
X129132857Y-164862142D01*
X129047142Y-164219285D02*
X129690000Y-164219285D01*
X129818571Y-164262142D01*
X129904285Y-164347857D01*
X129947142Y-164476428D01*
X129947142Y-164562142D01*
X129947142Y-163362142D02*
X129947142Y-163790714D01*
X129047142Y-163790714D01*
X129861428Y-162547857D02*
X129904285Y-162590714D01*
X129947142Y-162719285D01*
X129947142Y-162805000D01*
X129904285Y-162933571D01*
X129818571Y-163019285D01*
X129732857Y-163062142D01*
X129561428Y-163105000D01*
X129432857Y-163105000D01*
X129261428Y-163062142D01*
X129175714Y-163019285D01*
X129090000Y-162933571D01*
X129047142Y-162805000D01*
X129047142Y-162719285D01*
X129090000Y-162590714D01*
X129132857Y-162547857D01*
X125915000Y-74705000D02*
X124490000Y-74705000D01*
X133165000Y-74480000D02*
X132840000Y-74480000D01*
X133165000Y-81730000D02*
X132840000Y-81730000D01*
X125915000Y-81730000D02*
X126240000Y-81730000D01*
X125915000Y-74480000D02*
X126240000Y-74480000D01*
X125915000Y-81730000D02*
X125915000Y-81405000D01*
X133165000Y-81730000D02*
X133165000Y-81405000D01*
X133165000Y-74480000D02*
X133165000Y-74805000D01*
X125915000Y-74480000D02*
X125915000Y-74705000D01*
D11*
X134361422Y-70560000D02*
X134878578Y-70560000D01*
X134361422Y-69140000D02*
X134878578Y-69140000D01*
X129798578Y-69140000D02*
X129281422Y-69140000D01*
X129798578Y-70560000D02*
X129281422Y-70560000D01*
X148385000Y-55017500D02*
X148385000Y-54567500D01*
X148385000Y-55017500D02*
X147935000Y-55017500D01*
X142785000Y-54467500D02*
X143235000Y-54467500D01*
X142785000Y-52617500D02*
X142785000Y-54467500D01*
X150585000Y-50067500D02*
X150585000Y-50317500D01*
X142785000Y-50067500D02*
X142785000Y-50317500D01*
X150585000Y-52617500D02*
X150585000Y-54467500D01*
X150585000Y-54467500D02*
X150135000Y-54467500D01*
X136266422Y-166445000D02*
X136783578Y-166445000D01*
X136266422Y-165025000D02*
X136783578Y-165025000D01*
X136266422Y-163270000D02*
X136783578Y-163270000D01*
X136266422Y-161850000D02*
X136783578Y-161850000D01*
D10*
X127215000Y-162255000D02*
X126140000Y-162255000D01*
X127215000Y-171980000D02*
X131865000Y-171980000D01*
X127215000Y-162030000D02*
X131865000Y-162030000D01*
X127215000Y-171980000D02*
X127215000Y-171655000D01*
X131865000Y-171980000D02*
X131865000Y-171655000D01*
X131865000Y-162030000D02*
X131865000Y-162355000D01*
X127215000Y-162030000D02*
X127215000Y-162255000D01*
D11*
X154615000Y-115445000D02*
X154615000Y-116905000D01*
X151455000Y-115445000D02*
X151455000Y-117605000D01*
X151455000Y-115445000D02*
X152385000Y-115445000D01*
X154615000Y-115445000D02*
X153685000Y-115445000D01*
X154615000Y-128145000D02*
X154615000Y-129605000D01*
X151455000Y-128145000D02*
X151455000Y-130305000D01*
X151455000Y-128145000D02*
X152385000Y-128145000D01*
X154615000Y-128145000D02*
X153685000Y-128145000D01*
X154615000Y-140845000D02*
X154615000Y-142305000D01*
X151455000Y-140845000D02*
X151455000Y-143005000D01*
X151455000Y-140845000D02*
X152385000Y-140845000D01*
X154615000Y-140845000D02*
X153685000Y-140845000D01*
X154615000Y-153545000D02*
X154615000Y-155005000D01*
X151455000Y-153545000D02*
X151455000Y-155705000D01*
X151455000Y-153545000D02*
X152385000Y-153545000D01*
X154615000Y-153545000D02*
X153685000Y-153545000D01*
X135565000Y-153545000D02*
X135565000Y-155005000D01*
X132405000Y-153545000D02*
X132405000Y-155705000D01*
X132405000Y-153545000D02*
X133335000Y-153545000D01*
X135565000Y-153545000D02*
X134635000Y-153545000D01*
X135565000Y-140845000D02*
X135565000Y-142305000D01*
X132405000Y-140845000D02*
X132405000Y-143005000D01*
X132405000Y-140845000D02*
X133335000Y-140845000D01*
X135565000Y-140845000D02*
X134635000Y-140845000D01*
X135565000Y-128145000D02*
X135565000Y-129605000D01*
X132405000Y-128145000D02*
X132405000Y-130305000D01*
X132405000Y-128145000D02*
X133335000Y-128145000D01*
X135565000Y-128145000D02*
X134635000Y-128145000D01*
X135565000Y-115445000D02*
X135565000Y-116905000D01*
X132405000Y-115445000D02*
X132405000Y-117605000D01*
X132405000Y-115445000D02*
X133335000Y-115445000D01*
X135565000Y-115445000D02*
X134635000Y-115445000D01*
X116515000Y-153545000D02*
X116515000Y-155005000D01*
X113355000Y-153545000D02*
X113355000Y-155705000D01*
X113355000Y-153545000D02*
X114285000Y-153545000D01*
X116515000Y-153545000D02*
X115585000Y-153545000D01*
X116515000Y-140845000D02*
X116515000Y-142305000D01*
X113355000Y-140845000D02*
X113355000Y-143005000D01*
X113355000Y-140845000D02*
X114285000Y-140845000D01*
X116515000Y-140845000D02*
X115585000Y-140845000D01*
X116515000Y-128145000D02*
X116515000Y-129605000D01*
X113355000Y-128145000D02*
X113355000Y-130305000D01*
X113355000Y-128145000D02*
X114285000Y-128145000D01*
X116515000Y-128145000D02*
X115585000Y-128145000D01*
X116515000Y-115445000D02*
X116515000Y-116905000D01*
X113355000Y-115445000D02*
X113355000Y-117605000D01*
X113355000Y-115445000D02*
X114285000Y-115445000D01*
X116515000Y-115445000D02*
X115585000Y-115445000D01*
X97465000Y-115445000D02*
X97465000Y-116905000D01*
X94305000Y-115445000D02*
X94305000Y-117605000D01*
X94305000Y-115445000D02*
X95235000Y-115445000D01*
X97465000Y-115445000D02*
X96535000Y-115445000D01*
X97465000Y-128145000D02*
X97465000Y-129605000D01*
X94305000Y-128145000D02*
X94305000Y-130305000D01*
X94305000Y-128145000D02*
X95235000Y-128145000D01*
X97465000Y-128145000D02*
X96535000Y-128145000D01*
X97465000Y-140845000D02*
X97465000Y-142305000D01*
X94305000Y-140845000D02*
X94305000Y-143005000D01*
X94305000Y-140845000D02*
X95235000Y-140845000D01*
X97465000Y-140845000D02*
X96535000Y-140845000D01*
X150265000Y-106470000D02*
X150265000Y-107720000D01*
X151515000Y-106470000D02*
X150265000Y-106470000D01*
X164915000Y-111970000D02*
X158115000Y-111970000D01*
X164915000Y-109020000D02*
X164915000Y-111970000D01*
X165665000Y-109020000D02*
X164915000Y-109020000D01*
X151315000Y-111970000D02*
X158115000Y-111970000D01*
X151315000Y-109020000D02*
X151315000Y-111970000D01*
X150565000Y-109020000D02*
X151315000Y-109020000D01*
X165665000Y-106770000D02*
X163865000Y-106770000D01*
X165665000Y-107520000D02*
X165665000Y-106770000D01*
X163865000Y-107520000D02*
X165665000Y-107520000D01*
X163865000Y-106770000D02*
X163865000Y-107520000D01*
X152365000Y-106770000D02*
X150565000Y-106770000D01*
X152365000Y-107520000D02*
X152365000Y-106770000D01*
X150565000Y-107520000D02*
X152365000Y-107520000D01*
X150565000Y-106770000D02*
X150565000Y-107520000D01*
X162365000Y-106770000D02*
X153865000Y-106770000D01*
X162365000Y-107520000D02*
X162365000Y-106770000D01*
X153865000Y-107520000D02*
X162365000Y-107520000D01*
X153865000Y-106770000D02*
X153865000Y-107520000D01*
X165675000Y-106760000D02*
X150555000Y-106760000D01*
X165675000Y-112730000D02*
X165675000Y-106760000D01*
X150555000Y-112730000D02*
X165675000Y-112730000D01*
X150555000Y-106760000D02*
X150555000Y-112730000D01*
X150265000Y-119170000D02*
X150265000Y-120420000D01*
X151515000Y-119170000D02*
X150265000Y-119170000D01*
X164915000Y-124670000D02*
X158115000Y-124670000D01*
X164915000Y-121720000D02*
X164915000Y-124670000D01*
X165665000Y-121720000D02*
X164915000Y-121720000D01*
X151315000Y-124670000D02*
X158115000Y-124670000D01*
X151315000Y-121720000D02*
X151315000Y-124670000D01*
X150565000Y-121720000D02*
X151315000Y-121720000D01*
X165665000Y-119470000D02*
X163865000Y-119470000D01*
X165665000Y-120220000D02*
X165665000Y-119470000D01*
X163865000Y-120220000D02*
X165665000Y-120220000D01*
X163865000Y-119470000D02*
X163865000Y-120220000D01*
X152365000Y-119470000D02*
X150565000Y-119470000D01*
X152365000Y-120220000D02*
X152365000Y-119470000D01*
X150565000Y-120220000D02*
X152365000Y-120220000D01*
X150565000Y-119470000D02*
X150565000Y-120220000D01*
X162365000Y-119470000D02*
X153865000Y-119470000D01*
X162365000Y-120220000D02*
X162365000Y-119470000D01*
X153865000Y-120220000D02*
X162365000Y-120220000D01*
X153865000Y-119470000D02*
X153865000Y-120220000D01*
X165675000Y-119460000D02*
X150555000Y-119460000D01*
X165675000Y-125430000D02*
X165675000Y-119460000D01*
X150555000Y-125430000D02*
X165675000Y-125430000D01*
X150555000Y-119460000D02*
X150555000Y-125430000D01*
X150265000Y-131870000D02*
X150265000Y-133120000D01*
X151515000Y-131870000D02*
X150265000Y-131870000D01*
X164915000Y-137370000D02*
X158115000Y-137370000D01*
X164915000Y-134420000D02*
X164915000Y-137370000D01*
X165665000Y-134420000D02*
X164915000Y-134420000D01*
X151315000Y-137370000D02*
X158115000Y-137370000D01*
X151315000Y-134420000D02*
X151315000Y-137370000D01*
X150565000Y-134420000D02*
X151315000Y-134420000D01*
X165665000Y-132170000D02*
X163865000Y-132170000D01*
X165665000Y-132920000D02*
X165665000Y-132170000D01*
X163865000Y-132920000D02*
X165665000Y-132920000D01*
X163865000Y-132170000D02*
X163865000Y-132920000D01*
X152365000Y-132170000D02*
X150565000Y-132170000D01*
X152365000Y-132920000D02*
X152365000Y-132170000D01*
X150565000Y-132920000D02*
X152365000Y-132920000D01*
X150565000Y-132170000D02*
X150565000Y-132920000D01*
X162365000Y-132170000D02*
X153865000Y-132170000D01*
X162365000Y-132920000D02*
X162365000Y-132170000D01*
X153865000Y-132920000D02*
X162365000Y-132920000D01*
X153865000Y-132170000D02*
X153865000Y-132920000D01*
X165675000Y-132160000D02*
X150555000Y-132160000D01*
X165675000Y-138130000D02*
X165675000Y-132160000D01*
X150555000Y-138130000D02*
X165675000Y-138130000D01*
X150555000Y-132160000D02*
X150555000Y-138130000D01*
X150265000Y-144570000D02*
X150265000Y-145820000D01*
X151515000Y-144570000D02*
X150265000Y-144570000D01*
X164915000Y-150070000D02*
X158115000Y-150070000D01*
X164915000Y-147120000D02*
X164915000Y-150070000D01*
X165665000Y-147120000D02*
X164915000Y-147120000D01*
X151315000Y-150070000D02*
X158115000Y-150070000D01*
X151315000Y-147120000D02*
X151315000Y-150070000D01*
X150565000Y-147120000D02*
X151315000Y-147120000D01*
X165665000Y-144870000D02*
X163865000Y-144870000D01*
X165665000Y-145620000D02*
X165665000Y-144870000D01*
X163865000Y-145620000D02*
X165665000Y-145620000D01*
X163865000Y-144870000D02*
X163865000Y-145620000D01*
X152365000Y-144870000D02*
X150565000Y-144870000D01*
X152365000Y-145620000D02*
X152365000Y-144870000D01*
X150565000Y-145620000D02*
X152365000Y-145620000D01*
X150565000Y-144870000D02*
X150565000Y-145620000D01*
X162365000Y-144870000D02*
X153865000Y-144870000D01*
X162365000Y-145620000D02*
X162365000Y-144870000D01*
X153865000Y-145620000D02*
X162365000Y-145620000D01*
X153865000Y-144870000D02*
X153865000Y-145620000D01*
X165675000Y-144860000D02*
X150555000Y-144860000D01*
X165675000Y-150830000D02*
X165675000Y-144860000D01*
X150555000Y-150830000D02*
X165675000Y-150830000D01*
X150555000Y-144860000D02*
X150555000Y-150830000D01*
X131215000Y-144570000D02*
X131215000Y-145820000D01*
X132465000Y-144570000D02*
X131215000Y-144570000D01*
X145865000Y-150070000D02*
X139065000Y-150070000D01*
X145865000Y-147120000D02*
X145865000Y-150070000D01*
X146615000Y-147120000D02*
X145865000Y-147120000D01*
X132265000Y-150070000D02*
X139065000Y-150070000D01*
X132265000Y-147120000D02*
X132265000Y-150070000D01*
X131515000Y-147120000D02*
X132265000Y-147120000D01*
X146615000Y-144870000D02*
X144815000Y-144870000D01*
X146615000Y-145620000D02*
X146615000Y-144870000D01*
X144815000Y-145620000D02*
X146615000Y-145620000D01*
X144815000Y-144870000D02*
X144815000Y-145620000D01*
X133315000Y-144870000D02*
X131515000Y-144870000D01*
X133315000Y-145620000D02*
X133315000Y-144870000D01*
X131515000Y-145620000D02*
X133315000Y-145620000D01*
X131515000Y-144870000D02*
X131515000Y-145620000D01*
X143315000Y-144870000D02*
X134815000Y-144870000D01*
X143315000Y-145620000D02*
X143315000Y-144870000D01*
X134815000Y-145620000D02*
X143315000Y-145620000D01*
X134815000Y-144870000D02*
X134815000Y-145620000D01*
X146625000Y-144860000D02*
X131505000Y-144860000D01*
X146625000Y-150830000D02*
X146625000Y-144860000D01*
X131505000Y-150830000D02*
X146625000Y-150830000D01*
X131505000Y-144860000D02*
X131505000Y-150830000D01*
X131215000Y-131870000D02*
X131215000Y-133120000D01*
X132465000Y-131870000D02*
X131215000Y-131870000D01*
X145865000Y-137370000D02*
X139065000Y-137370000D01*
X145865000Y-134420000D02*
X145865000Y-137370000D01*
X146615000Y-134420000D02*
X145865000Y-134420000D01*
X132265000Y-137370000D02*
X139065000Y-137370000D01*
X132265000Y-134420000D02*
X132265000Y-137370000D01*
X131515000Y-134420000D02*
X132265000Y-134420000D01*
X146615000Y-132170000D02*
X144815000Y-132170000D01*
X146615000Y-132920000D02*
X146615000Y-132170000D01*
X144815000Y-132920000D02*
X146615000Y-132920000D01*
X144815000Y-132170000D02*
X144815000Y-132920000D01*
X133315000Y-132170000D02*
X131515000Y-132170000D01*
X133315000Y-132920000D02*
X133315000Y-132170000D01*
X131515000Y-132920000D02*
X133315000Y-132920000D01*
X131515000Y-132170000D02*
X131515000Y-132920000D01*
X143315000Y-132170000D02*
X134815000Y-132170000D01*
X143315000Y-132920000D02*
X143315000Y-132170000D01*
X134815000Y-132920000D02*
X143315000Y-132920000D01*
X134815000Y-132170000D02*
X134815000Y-132920000D01*
X146625000Y-132160000D02*
X131505000Y-132160000D01*
X146625000Y-138130000D02*
X146625000Y-132160000D01*
X131505000Y-138130000D02*
X146625000Y-138130000D01*
X131505000Y-132160000D02*
X131505000Y-138130000D01*
X131215000Y-119170000D02*
X131215000Y-120420000D01*
X132465000Y-119170000D02*
X131215000Y-119170000D01*
X145865000Y-124670000D02*
X139065000Y-124670000D01*
X145865000Y-121720000D02*
X145865000Y-124670000D01*
X146615000Y-121720000D02*
X145865000Y-121720000D01*
X132265000Y-124670000D02*
X139065000Y-124670000D01*
X132265000Y-121720000D02*
X132265000Y-124670000D01*
X131515000Y-121720000D02*
X132265000Y-121720000D01*
X146615000Y-119470000D02*
X144815000Y-119470000D01*
X146615000Y-120220000D02*
X146615000Y-119470000D01*
X144815000Y-120220000D02*
X146615000Y-120220000D01*
X144815000Y-119470000D02*
X144815000Y-120220000D01*
X133315000Y-119470000D02*
X131515000Y-119470000D01*
X133315000Y-120220000D02*
X133315000Y-119470000D01*
X131515000Y-120220000D02*
X133315000Y-120220000D01*
X131515000Y-119470000D02*
X131515000Y-120220000D01*
X143315000Y-119470000D02*
X134815000Y-119470000D01*
X143315000Y-120220000D02*
X143315000Y-119470000D01*
X134815000Y-120220000D02*
X143315000Y-120220000D01*
X134815000Y-119470000D02*
X134815000Y-120220000D01*
X146625000Y-119460000D02*
X131505000Y-119460000D01*
X146625000Y-125430000D02*
X146625000Y-119460000D01*
X131505000Y-125430000D02*
X146625000Y-125430000D01*
X131505000Y-119460000D02*
X131505000Y-125430000D01*
X131215000Y-106470000D02*
X131215000Y-107720000D01*
X132465000Y-106470000D02*
X131215000Y-106470000D01*
X145865000Y-111970000D02*
X139065000Y-111970000D01*
X145865000Y-109020000D02*
X145865000Y-111970000D01*
X146615000Y-109020000D02*
X145865000Y-109020000D01*
X132265000Y-111970000D02*
X139065000Y-111970000D01*
X132265000Y-109020000D02*
X132265000Y-111970000D01*
X131515000Y-109020000D02*
X132265000Y-109020000D01*
X146615000Y-106770000D02*
X144815000Y-106770000D01*
X146615000Y-107520000D02*
X146615000Y-106770000D01*
X144815000Y-107520000D02*
X146615000Y-107520000D01*
X144815000Y-106770000D02*
X144815000Y-107520000D01*
X133315000Y-106770000D02*
X131515000Y-106770000D01*
X133315000Y-107520000D02*
X133315000Y-106770000D01*
X131515000Y-107520000D02*
X133315000Y-107520000D01*
X131515000Y-106770000D02*
X131515000Y-107520000D01*
X143315000Y-106770000D02*
X134815000Y-106770000D01*
X143315000Y-107520000D02*
X143315000Y-106770000D01*
X134815000Y-107520000D02*
X143315000Y-107520000D01*
X134815000Y-106770000D02*
X134815000Y-107520000D01*
X146625000Y-106760000D02*
X131505000Y-106760000D01*
X146625000Y-112730000D02*
X146625000Y-106760000D01*
X131505000Y-112730000D02*
X146625000Y-112730000D01*
X131505000Y-106760000D02*
X131505000Y-112730000D01*
X112165000Y-144570000D02*
X112165000Y-145820000D01*
X113415000Y-144570000D02*
X112165000Y-144570000D01*
X126815000Y-150070000D02*
X120015000Y-150070000D01*
X126815000Y-147120000D02*
X126815000Y-150070000D01*
X127565000Y-147120000D02*
X126815000Y-147120000D01*
X113215000Y-150070000D02*
X120015000Y-150070000D01*
X113215000Y-147120000D02*
X113215000Y-150070000D01*
X112465000Y-147120000D02*
X113215000Y-147120000D01*
X127565000Y-144870000D02*
X125765000Y-144870000D01*
X127565000Y-145620000D02*
X127565000Y-144870000D01*
X125765000Y-145620000D02*
X127565000Y-145620000D01*
X125765000Y-144870000D02*
X125765000Y-145620000D01*
X114265000Y-144870000D02*
X112465000Y-144870000D01*
X114265000Y-145620000D02*
X114265000Y-144870000D01*
X112465000Y-145620000D02*
X114265000Y-145620000D01*
X112465000Y-144870000D02*
X112465000Y-145620000D01*
X124265000Y-144870000D02*
X115765000Y-144870000D01*
X124265000Y-145620000D02*
X124265000Y-144870000D01*
X115765000Y-145620000D02*
X124265000Y-145620000D01*
X115765000Y-144870000D02*
X115765000Y-145620000D01*
X127575000Y-144860000D02*
X112455000Y-144860000D01*
X127575000Y-150830000D02*
X127575000Y-144860000D01*
X112455000Y-150830000D02*
X127575000Y-150830000D01*
X112455000Y-144860000D02*
X112455000Y-150830000D01*
X112165000Y-131870000D02*
X112165000Y-133120000D01*
X113415000Y-131870000D02*
X112165000Y-131870000D01*
X126815000Y-137370000D02*
X120015000Y-137370000D01*
X126815000Y-134420000D02*
X126815000Y-137370000D01*
X127565000Y-134420000D02*
X126815000Y-134420000D01*
X113215000Y-137370000D02*
X120015000Y-137370000D01*
X113215000Y-134420000D02*
X113215000Y-137370000D01*
X112465000Y-134420000D02*
X113215000Y-134420000D01*
X127565000Y-132170000D02*
X125765000Y-132170000D01*
X127565000Y-132920000D02*
X127565000Y-132170000D01*
X125765000Y-132920000D02*
X127565000Y-132920000D01*
X125765000Y-132170000D02*
X125765000Y-132920000D01*
X114265000Y-132170000D02*
X112465000Y-132170000D01*
X114265000Y-132920000D02*
X114265000Y-132170000D01*
X112465000Y-132920000D02*
X114265000Y-132920000D01*
X112465000Y-132170000D02*
X112465000Y-132920000D01*
X124265000Y-132170000D02*
X115765000Y-132170000D01*
X124265000Y-132920000D02*
X124265000Y-132170000D01*
X115765000Y-132920000D02*
X124265000Y-132920000D01*
X115765000Y-132170000D02*
X115765000Y-132920000D01*
X127575000Y-132160000D02*
X112455000Y-132160000D01*
X127575000Y-138130000D02*
X127575000Y-132160000D01*
X112455000Y-138130000D02*
X127575000Y-138130000D01*
X112455000Y-132160000D02*
X112455000Y-138130000D01*
X112165000Y-119170000D02*
X112165000Y-120420000D01*
X113415000Y-119170000D02*
X112165000Y-119170000D01*
X126815000Y-124670000D02*
X120015000Y-124670000D01*
X126815000Y-121720000D02*
X126815000Y-124670000D01*
X127565000Y-121720000D02*
X126815000Y-121720000D01*
X113215000Y-124670000D02*
X120015000Y-124670000D01*
X113215000Y-121720000D02*
X113215000Y-124670000D01*
X112465000Y-121720000D02*
X113215000Y-121720000D01*
X127565000Y-119470000D02*
X125765000Y-119470000D01*
X127565000Y-120220000D02*
X127565000Y-119470000D01*
X125765000Y-120220000D02*
X127565000Y-120220000D01*
X125765000Y-119470000D02*
X125765000Y-120220000D01*
X114265000Y-119470000D02*
X112465000Y-119470000D01*
X114265000Y-120220000D02*
X114265000Y-119470000D01*
X112465000Y-120220000D02*
X114265000Y-120220000D01*
X112465000Y-119470000D02*
X112465000Y-120220000D01*
X124265000Y-119470000D02*
X115765000Y-119470000D01*
X124265000Y-120220000D02*
X124265000Y-119470000D01*
X115765000Y-120220000D02*
X124265000Y-120220000D01*
X115765000Y-119470000D02*
X115765000Y-120220000D01*
X127575000Y-119460000D02*
X112455000Y-119460000D01*
X127575000Y-125430000D02*
X127575000Y-119460000D01*
X112455000Y-125430000D02*
X127575000Y-125430000D01*
X112455000Y-119460000D02*
X112455000Y-125430000D01*
X112165000Y-106470000D02*
X112165000Y-107720000D01*
X113415000Y-106470000D02*
X112165000Y-106470000D01*
X126815000Y-111970000D02*
X120015000Y-111970000D01*
X126815000Y-109020000D02*
X126815000Y-111970000D01*
X127565000Y-109020000D02*
X126815000Y-109020000D01*
X113215000Y-111970000D02*
X120015000Y-111970000D01*
X113215000Y-109020000D02*
X113215000Y-111970000D01*
X112465000Y-109020000D02*
X113215000Y-109020000D01*
X127565000Y-106770000D02*
X125765000Y-106770000D01*
X127565000Y-107520000D02*
X127565000Y-106770000D01*
X125765000Y-107520000D02*
X127565000Y-107520000D01*
X125765000Y-106770000D02*
X125765000Y-107520000D01*
X114265000Y-106770000D02*
X112465000Y-106770000D01*
X114265000Y-107520000D02*
X114265000Y-106770000D01*
X112465000Y-107520000D02*
X114265000Y-107520000D01*
X112465000Y-106770000D02*
X112465000Y-107520000D01*
X124265000Y-106770000D02*
X115765000Y-106770000D01*
X124265000Y-107520000D02*
X124265000Y-106770000D01*
X115765000Y-107520000D02*
X124265000Y-107520000D01*
X115765000Y-106770000D02*
X115765000Y-107520000D01*
X127575000Y-106760000D02*
X112455000Y-106760000D01*
X127575000Y-112730000D02*
X127575000Y-106760000D01*
X112455000Y-112730000D02*
X127575000Y-112730000D01*
X112455000Y-106760000D02*
X112455000Y-112730000D01*
X93115000Y-106470000D02*
X93115000Y-107720000D01*
X94365000Y-106470000D02*
X93115000Y-106470000D01*
X107765000Y-111970000D02*
X100965000Y-111970000D01*
X107765000Y-109020000D02*
X107765000Y-111970000D01*
X108515000Y-109020000D02*
X107765000Y-109020000D01*
X94165000Y-111970000D02*
X100965000Y-111970000D01*
X94165000Y-109020000D02*
X94165000Y-111970000D01*
X93415000Y-109020000D02*
X94165000Y-109020000D01*
X108515000Y-106770000D02*
X106715000Y-106770000D01*
X108515000Y-107520000D02*
X108515000Y-106770000D01*
X106715000Y-107520000D02*
X108515000Y-107520000D01*
X106715000Y-106770000D02*
X106715000Y-107520000D01*
X95215000Y-106770000D02*
X93415000Y-106770000D01*
X95215000Y-107520000D02*
X95215000Y-106770000D01*
X93415000Y-107520000D02*
X95215000Y-107520000D01*
X93415000Y-106770000D02*
X93415000Y-107520000D01*
X105215000Y-106770000D02*
X96715000Y-106770000D01*
X105215000Y-107520000D02*
X105215000Y-106770000D01*
X96715000Y-107520000D02*
X105215000Y-107520000D01*
X96715000Y-106770000D02*
X96715000Y-107520000D01*
X108525000Y-106760000D02*
X93405000Y-106760000D01*
X108525000Y-112730000D02*
X108525000Y-106760000D01*
X93405000Y-112730000D02*
X108525000Y-112730000D01*
X93405000Y-106760000D02*
X93405000Y-112730000D01*
X93115000Y-119170000D02*
X93115000Y-120420000D01*
X94365000Y-119170000D02*
X93115000Y-119170000D01*
X107765000Y-124670000D02*
X100965000Y-124670000D01*
X107765000Y-121720000D02*
X107765000Y-124670000D01*
X108515000Y-121720000D02*
X107765000Y-121720000D01*
X94165000Y-124670000D02*
X100965000Y-124670000D01*
X94165000Y-121720000D02*
X94165000Y-124670000D01*
X93415000Y-121720000D02*
X94165000Y-121720000D01*
X108515000Y-119470000D02*
X106715000Y-119470000D01*
X108515000Y-120220000D02*
X108515000Y-119470000D01*
X106715000Y-120220000D02*
X108515000Y-120220000D01*
X106715000Y-119470000D02*
X106715000Y-120220000D01*
X95215000Y-119470000D02*
X93415000Y-119470000D01*
X95215000Y-120220000D02*
X95215000Y-119470000D01*
X93415000Y-120220000D02*
X95215000Y-120220000D01*
X93415000Y-119470000D02*
X93415000Y-120220000D01*
X105215000Y-119470000D02*
X96715000Y-119470000D01*
X105215000Y-120220000D02*
X105215000Y-119470000D01*
X96715000Y-120220000D02*
X105215000Y-120220000D01*
X96715000Y-119470000D02*
X96715000Y-120220000D01*
X108525000Y-119460000D02*
X93405000Y-119460000D01*
X108525000Y-125430000D02*
X108525000Y-119460000D01*
X93405000Y-125430000D02*
X108525000Y-125430000D01*
X93405000Y-119460000D02*
X93405000Y-125430000D01*
X93115000Y-131870000D02*
X93115000Y-133120000D01*
X94365000Y-131870000D02*
X93115000Y-131870000D01*
X107765000Y-137370000D02*
X100965000Y-137370000D01*
X107765000Y-134420000D02*
X107765000Y-137370000D01*
X108515000Y-134420000D02*
X107765000Y-134420000D01*
X94165000Y-137370000D02*
X100965000Y-137370000D01*
X94165000Y-134420000D02*
X94165000Y-137370000D01*
X93415000Y-134420000D02*
X94165000Y-134420000D01*
X108515000Y-132170000D02*
X106715000Y-132170000D01*
X108515000Y-132920000D02*
X108515000Y-132170000D01*
X106715000Y-132920000D02*
X108515000Y-132920000D01*
X106715000Y-132170000D02*
X106715000Y-132920000D01*
X95215000Y-132170000D02*
X93415000Y-132170000D01*
X95215000Y-132920000D02*
X95215000Y-132170000D01*
X93415000Y-132920000D02*
X95215000Y-132920000D01*
X93415000Y-132170000D02*
X93415000Y-132920000D01*
X105215000Y-132170000D02*
X96715000Y-132170000D01*
X105215000Y-132920000D02*
X105215000Y-132170000D01*
X96715000Y-132920000D02*
X105215000Y-132920000D01*
X96715000Y-132170000D02*
X96715000Y-132920000D01*
X108525000Y-132160000D02*
X93405000Y-132160000D01*
X108525000Y-138130000D02*
X108525000Y-132160000D01*
X93405000Y-138130000D02*
X108525000Y-138130000D01*
X93405000Y-132160000D02*
X93405000Y-138130000D01*
X93115000Y-144570000D02*
X93115000Y-145820000D01*
X94365000Y-144570000D02*
X93115000Y-144570000D01*
X107765000Y-150070000D02*
X100965000Y-150070000D01*
X107765000Y-147120000D02*
X107765000Y-150070000D01*
X108515000Y-147120000D02*
X107765000Y-147120000D01*
X94165000Y-150070000D02*
X100965000Y-150070000D01*
X94165000Y-147120000D02*
X94165000Y-150070000D01*
X93415000Y-147120000D02*
X94165000Y-147120000D01*
X108515000Y-144870000D02*
X106715000Y-144870000D01*
X108515000Y-145620000D02*
X108515000Y-144870000D01*
X106715000Y-145620000D02*
X108515000Y-145620000D01*
X106715000Y-144870000D02*
X106715000Y-145620000D01*
X95215000Y-144870000D02*
X93415000Y-144870000D01*
X95215000Y-145620000D02*
X95215000Y-144870000D01*
X93415000Y-145620000D02*
X95215000Y-145620000D01*
X93415000Y-144870000D02*
X93415000Y-145620000D01*
X105215000Y-144870000D02*
X96715000Y-144870000D01*
X105215000Y-145620000D02*
X105215000Y-144870000D01*
X96715000Y-145620000D02*
X105215000Y-145620000D01*
X96715000Y-144870000D02*
X96715000Y-145620000D01*
X108525000Y-144860000D02*
X93405000Y-144860000D01*
X108525000Y-150830000D02*
X108525000Y-144860000D01*
X93405000Y-150830000D02*
X108525000Y-150830000D01*
X93405000Y-144860000D02*
X93405000Y-150830000D01*
X108208578Y-79300000D02*
X107691422Y-79300000D01*
X108208578Y-80720000D02*
X107691422Y-80720000D01*
X108208578Y-75490000D02*
X107691422Y-75490000D01*
X108208578Y-76910000D02*
X107691422Y-76910000D01*
X116850000Y-84805000D02*
X116850000Y-72205000D01*
X111750000Y-84805000D02*
X116850000Y-84805000D01*
X111750000Y-72205000D02*
X111750000Y-84805000D01*
D10*
X132415000Y-98730000D02*
X134015000Y-98730000D01*
X132415000Y-88655000D02*
X126665000Y-88655000D01*
X132415000Y-99305000D02*
X126665000Y-99305000D01*
X132415000Y-88655000D02*
X132415000Y-89305000D01*
X126665000Y-88655000D02*
X126665000Y-89305000D01*
X126665000Y-99305000D02*
X126665000Y-98655000D01*
X132415000Y-99305000D02*
X132415000Y-98730000D01*
D11*
X129540000Y-64750000D02*
X132990000Y-64750000D01*
X129540000Y-64750000D02*
X127590000Y-64750000D01*
X129540000Y-54630000D02*
X131490000Y-54630000D01*
X129540000Y-54630000D02*
X127590000Y-54630000D01*
X121026422Y-92150000D02*
X121543578Y-92150000D01*
X121026422Y-90730000D02*
X121543578Y-90730000D01*
X124718578Y-69140000D02*
X124201422Y-69140000D01*
X124718578Y-70560000D02*
X124201422Y-70560000D01*
X97465000Y-153545000D02*
X97465000Y-155005000D01*
X94305000Y-153545000D02*
X94305000Y-155705000D01*
X94305000Y-153545000D02*
X95235000Y-153545000D01*
X97465000Y-153545000D02*
X96535000Y-153545000D01*
X142815000Y-76260000D02*
X142815000Y-74930000D01*
X144145000Y-76260000D02*
X142815000Y-76260000D01*
X142815000Y-73660000D02*
X142815000Y-71060000D01*
X145415000Y-73660000D02*
X142815000Y-73660000D01*
X145415000Y-76260000D02*
X145415000Y-73660000D01*
X142815000Y-71060000D02*
X150555000Y-71060000D01*
X145415000Y-76260000D02*
X150555000Y-76260000D01*
X150555000Y-76260000D02*
X150555000Y-71060000D01*
X148966422Y-61035000D02*
X149483578Y-61035000D01*
X148966422Y-59615000D02*
X149483578Y-59615000D01*
X143605000Y-64480000D02*
X143605000Y-64035000D01*
X143605000Y-66775000D02*
X143605000Y-66330000D01*
X149845000Y-64480000D02*
X149845000Y-64035000D01*
X149845000Y-66775000D02*
X149845000Y-66330000D01*
X149845000Y-64035000D02*
X143605000Y-64035000D01*
X149845000Y-66775000D02*
X143605000Y-66775000D01*
X136783578Y-59615000D02*
X136266422Y-59615000D01*
X136783578Y-61035000D02*
X136266422Y-61035000D01*
X137536422Y-93420000D02*
X138053578Y-93420000D01*
X137536422Y-92000000D02*
X138053578Y-92000000D01*
X120908578Y-75490000D02*
X120391422Y-75490000D01*
X120908578Y-76910000D02*
X120391422Y-76910000D01*
X120908578Y-79300000D02*
X120391422Y-79300000D01*
X120908578Y-80720000D02*
X120391422Y-80720000D01*
X138171422Y-80720000D02*
X138688578Y-80720000D01*
X138171422Y-79300000D02*
X138688578Y-79300000D01*
X122813578Y-63425000D02*
X122296422Y-63425000D01*
X122813578Y-64845000D02*
X122296422Y-64845000D01*
D10*
X128778095Y-83907380D02*
X128778095Y-84716904D01*
X128825714Y-84812142D01*
X128873333Y-84859761D01*
X128968571Y-84907380D01*
X129159047Y-84907380D01*
X129254285Y-84859761D01*
X129301904Y-84812142D01*
X129349523Y-84716904D01*
X129349523Y-83907380D01*
X130254285Y-84240714D02*
X130254285Y-84907380D01*
X130016190Y-83859761D02*
X129778095Y-84574047D01*
X130397142Y-84574047D01*
X137612380Y-70016666D02*
X137136190Y-70350000D01*
X137612380Y-70588095D02*
X136612380Y-70588095D01*
X136612380Y-70207142D01*
X136660000Y-70111904D01*
X136707619Y-70064285D01*
X136802857Y-70016666D01*
X136945714Y-70016666D01*
X137040952Y-70064285D01*
X137088571Y-70111904D01*
X137136190Y-70207142D01*
X137136190Y-70588095D01*
X136707619Y-69635714D02*
X136660000Y-69588095D01*
X136612380Y-69492857D01*
X136612380Y-69254761D01*
X136660000Y-69159523D01*
X136707619Y-69111904D01*
X136802857Y-69064285D01*
X136898095Y-69064285D01*
X137040952Y-69111904D01*
X137612380Y-69683333D01*
X137612380Y-69064285D01*
X132532380Y-70016666D02*
X132056190Y-70350000D01*
X132532380Y-70588095D02*
X131532380Y-70588095D01*
X131532380Y-70207142D01*
X131580000Y-70111904D01*
X131627619Y-70064285D01*
X131722857Y-70016666D01*
X131865714Y-70016666D01*
X131960952Y-70064285D01*
X132008571Y-70111904D01*
X132056190Y-70207142D01*
X132056190Y-70588095D01*
X132532380Y-69064285D02*
X132532380Y-69635714D01*
X132532380Y-69350000D02*
X131532380Y-69350000D01*
X131675238Y-69445238D01*
X131770476Y-69540476D01*
X131818095Y-69635714D01*
X146351666Y-55269880D02*
X146351666Y-55984166D01*
X146304047Y-56127023D01*
X146208809Y-56222261D01*
X146065952Y-56269880D01*
X145970714Y-56269880D01*
X147351666Y-56269880D02*
X146780238Y-56269880D01*
X147065952Y-56269880D02*
X147065952Y-55269880D01*
X146970714Y-55412738D01*
X146875476Y-55507976D01*
X146780238Y-55555595D01*
X139517380Y-165901666D02*
X139041190Y-166235000D01*
X139517380Y-166473095D02*
X138517380Y-166473095D01*
X138517380Y-166092142D01*
X138565000Y-165996904D01*
X138612619Y-165949285D01*
X138707857Y-165901666D01*
X138850714Y-165901666D01*
X138945952Y-165949285D01*
X138993571Y-165996904D01*
X139041190Y-166092142D01*
X139041190Y-166473095D01*
X138517380Y-164996904D02*
X138517380Y-165473095D01*
X138993571Y-165520714D01*
X138945952Y-165473095D01*
X138898333Y-165377857D01*
X138898333Y-165139761D01*
X138945952Y-165044523D01*
X138993571Y-164996904D01*
X139088809Y-164949285D01*
X139326904Y-164949285D01*
X139422142Y-164996904D01*
X139469761Y-165044523D01*
X139517380Y-165139761D01*
X139517380Y-165377857D01*
X139469761Y-165473095D01*
X139422142Y-165520714D01*
X139422142Y-162726666D02*
X139469761Y-162774285D01*
X139517380Y-162917142D01*
X139517380Y-163012380D01*
X139469761Y-163155238D01*
X139374523Y-163250476D01*
X139279285Y-163298095D01*
X139088809Y-163345714D01*
X138945952Y-163345714D01*
X138755476Y-163298095D01*
X138660238Y-163250476D01*
X138565000Y-163155238D01*
X138517380Y-163012380D01*
X138517380Y-162917142D01*
X138565000Y-162774285D01*
X138612619Y-162726666D01*
X138517380Y-161869523D02*
X138517380Y-162060000D01*
X138565000Y-162155238D01*
X138612619Y-162202857D01*
X138755476Y-162298095D01*
X138945952Y-162345714D01*
X139326904Y-162345714D01*
X139422142Y-162298095D01*
X139469761Y-162250476D01*
X139517380Y-162155238D01*
X139517380Y-161964761D01*
X139469761Y-161869523D01*
X139422142Y-161821904D01*
X139326904Y-161774285D01*
X139088809Y-161774285D01*
X138993571Y-161821904D01*
X138945952Y-161869523D01*
X138898333Y-161964761D01*
X138898333Y-162155238D01*
X138945952Y-162250476D01*
X138993571Y-162298095D01*
X139088809Y-162345714D01*
X128778095Y-160557380D02*
X128778095Y-161366904D01*
X128825714Y-161462142D01*
X128873333Y-161509761D01*
X128968571Y-161557380D01*
X129159047Y-161557380D01*
X129254285Y-161509761D01*
X129301904Y-161462142D01*
X129349523Y-161366904D01*
X129349523Y-160557380D01*
X129778095Y-160652619D02*
X129825714Y-160605000D01*
X129920952Y-160557380D01*
X130159047Y-160557380D01*
X130254285Y-160605000D01*
X130301904Y-160652619D01*
X130349523Y-160747857D01*
X130349523Y-160843095D01*
X130301904Y-160985952D01*
X129730476Y-161557380D01*
X130349523Y-161557380D01*
X151082619Y-116776428D02*
X151035000Y-116871666D01*
X150939761Y-116966904D01*
X150796904Y-117109761D01*
X150749285Y-117205000D01*
X150749285Y-117300238D01*
X150987380Y-117252619D02*
X150939761Y-117347857D01*
X150844523Y-117443095D01*
X150654047Y-117490714D01*
X150320714Y-117490714D01*
X150130238Y-117443095D01*
X150035000Y-117347857D01*
X149987380Y-117252619D01*
X149987380Y-117062142D01*
X150035000Y-116966904D01*
X150130238Y-116871666D01*
X150320714Y-116824047D01*
X150654047Y-116824047D01*
X150844523Y-116871666D01*
X150939761Y-116966904D01*
X150987380Y-117062142D01*
X150987380Y-117252619D01*
X150987380Y-115871666D02*
X150987380Y-116443095D01*
X150987380Y-116157380D02*
X149987380Y-116157380D01*
X150130238Y-116252619D01*
X150225476Y-116347857D01*
X150273095Y-116443095D01*
X149987380Y-115014523D02*
X149987380Y-115205000D01*
X150035000Y-115300238D01*
X150082619Y-115347857D01*
X150225476Y-115443095D01*
X150415952Y-115490714D01*
X150796904Y-115490714D01*
X150892142Y-115443095D01*
X150939761Y-115395476D01*
X150987380Y-115300238D01*
X150987380Y-115109761D01*
X150939761Y-115014523D01*
X150892142Y-114966904D01*
X150796904Y-114919285D01*
X150558809Y-114919285D01*
X150463571Y-114966904D01*
X150415952Y-115014523D01*
X150368333Y-115109761D01*
X150368333Y-115300238D01*
X150415952Y-115395476D01*
X150463571Y-115443095D01*
X150558809Y-115490714D01*
X151082619Y-129476428D02*
X151035000Y-129571666D01*
X150939761Y-129666904D01*
X150796904Y-129809761D01*
X150749285Y-129905000D01*
X150749285Y-130000238D01*
X150987380Y-129952619D02*
X150939761Y-130047857D01*
X150844523Y-130143095D01*
X150654047Y-130190714D01*
X150320714Y-130190714D01*
X150130238Y-130143095D01*
X150035000Y-130047857D01*
X149987380Y-129952619D01*
X149987380Y-129762142D01*
X150035000Y-129666904D01*
X150130238Y-129571666D01*
X150320714Y-129524047D01*
X150654047Y-129524047D01*
X150844523Y-129571666D01*
X150939761Y-129666904D01*
X150987380Y-129762142D01*
X150987380Y-129952619D01*
X150987380Y-128571666D02*
X150987380Y-129143095D01*
X150987380Y-128857380D02*
X149987380Y-128857380D01*
X150130238Y-128952619D01*
X150225476Y-129047857D01*
X150273095Y-129143095D01*
X149987380Y-127666904D02*
X149987380Y-128143095D01*
X150463571Y-128190714D01*
X150415952Y-128143095D01*
X150368333Y-128047857D01*
X150368333Y-127809761D01*
X150415952Y-127714523D01*
X150463571Y-127666904D01*
X150558809Y-127619285D01*
X150796904Y-127619285D01*
X150892142Y-127666904D01*
X150939761Y-127714523D01*
X150987380Y-127809761D01*
X150987380Y-128047857D01*
X150939761Y-128143095D01*
X150892142Y-128190714D01*
X151082619Y-142176428D02*
X151035000Y-142271666D01*
X150939761Y-142366904D01*
X150796904Y-142509761D01*
X150749285Y-142605000D01*
X150749285Y-142700238D01*
X150987380Y-142652619D02*
X150939761Y-142747857D01*
X150844523Y-142843095D01*
X150654047Y-142890714D01*
X150320714Y-142890714D01*
X150130238Y-142843095D01*
X150035000Y-142747857D01*
X149987380Y-142652619D01*
X149987380Y-142462142D01*
X150035000Y-142366904D01*
X150130238Y-142271666D01*
X150320714Y-142224047D01*
X150654047Y-142224047D01*
X150844523Y-142271666D01*
X150939761Y-142366904D01*
X150987380Y-142462142D01*
X150987380Y-142652619D01*
X150987380Y-141271666D02*
X150987380Y-141843095D01*
X150987380Y-141557380D02*
X149987380Y-141557380D01*
X150130238Y-141652619D01*
X150225476Y-141747857D01*
X150273095Y-141843095D01*
X150320714Y-140414523D02*
X150987380Y-140414523D01*
X149939761Y-140652619D02*
X150654047Y-140890714D01*
X150654047Y-140271666D01*
X151082619Y-154876428D02*
X151035000Y-154971666D01*
X150939761Y-155066904D01*
X150796904Y-155209761D01*
X150749285Y-155305000D01*
X150749285Y-155400238D01*
X150987380Y-155352619D02*
X150939761Y-155447857D01*
X150844523Y-155543095D01*
X150654047Y-155590714D01*
X150320714Y-155590714D01*
X150130238Y-155543095D01*
X150035000Y-155447857D01*
X149987380Y-155352619D01*
X149987380Y-155162142D01*
X150035000Y-155066904D01*
X150130238Y-154971666D01*
X150320714Y-154924047D01*
X150654047Y-154924047D01*
X150844523Y-154971666D01*
X150939761Y-155066904D01*
X150987380Y-155162142D01*
X150987380Y-155352619D01*
X150987380Y-153971666D02*
X150987380Y-154543095D01*
X150987380Y-154257380D02*
X149987380Y-154257380D01*
X150130238Y-154352619D01*
X150225476Y-154447857D01*
X150273095Y-154543095D01*
X149987380Y-153638333D02*
X149987380Y-153019285D01*
X150368333Y-153352619D01*
X150368333Y-153209761D01*
X150415952Y-153114523D01*
X150463571Y-153066904D01*
X150558809Y-153019285D01*
X150796904Y-153019285D01*
X150892142Y-153066904D01*
X150939761Y-153114523D01*
X150987380Y-153209761D01*
X150987380Y-153495476D01*
X150939761Y-153590714D01*
X150892142Y-153638333D01*
X132032619Y-154876428D02*
X131985000Y-154971666D01*
X131889761Y-155066904D01*
X131746904Y-155209761D01*
X131699285Y-155305000D01*
X131699285Y-155400238D01*
X131937380Y-155352619D02*
X131889761Y-155447857D01*
X131794523Y-155543095D01*
X131604047Y-155590714D01*
X131270714Y-155590714D01*
X131080238Y-155543095D01*
X130985000Y-155447857D01*
X130937380Y-155352619D01*
X130937380Y-155162142D01*
X130985000Y-155066904D01*
X131080238Y-154971666D01*
X131270714Y-154924047D01*
X131604047Y-154924047D01*
X131794523Y-154971666D01*
X131889761Y-155066904D01*
X131937380Y-155162142D01*
X131937380Y-155352619D01*
X131937380Y-153971666D02*
X131937380Y-154543095D01*
X131937380Y-154257380D02*
X130937380Y-154257380D01*
X131080238Y-154352619D01*
X131175476Y-154447857D01*
X131223095Y-154543095D01*
X131032619Y-153590714D02*
X130985000Y-153543095D01*
X130937380Y-153447857D01*
X130937380Y-153209761D01*
X130985000Y-153114523D01*
X131032619Y-153066904D01*
X131127857Y-153019285D01*
X131223095Y-153019285D01*
X131365952Y-153066904D01*
X131937380Y-153638333D01*
X131937380Y-153019285D01*
X132032619Y-142176428D02*
X131985000Y-142271666D01*
X131889761Y-142366904D01*
X131746904Y-142509761D01*
X131699285Y-142605000D01*
X131699285Y-142700238D01*
X131937380Y-142652619D02*
X131889761Y-142747857D01*
X131794523Y-142843095D01*
X131604047Y-142890714D01*
X131270714Y-142890714D01*
X131080238Y-142843095D01*
X130985000Y-142747857D01*
X130937380Y-142652619D01*
X130937380Y-142462142D01*
X130985000Y-142366904D01*
X131080238Y-142271666D01*
X131270714Y-142224047D01*
X131604047Y-142224047D01*
X131794523Y-142271666D01*
X131889761Y-142366904D01*
X131937380Y-142462142D01*
X131937380Y-142652619D01*
X131937380Y-141271666D02*
X131937380Y-141843095D01*
X131937380Y-141557380D02*
X130937380Y-141557380D01*
X131080238Y-141652619D01*
X131175476Y-141747857D01*
X131223095Y-141843095D01*
X131937380Y-140319285D02*
X131937380Y-140890714D01*
X131937380Y-140605000D02*
X130937380Y-140605000D01*
X131080238Y-140700238D01*
X131175476Y-140795476D01*
X131223095Y-140890714D01*
X132032619Y-129476428D02*
X131985000Y-129571666D01*
X131889761Y-129666904D01*
X131746904Y-129809761D01*
X131699285Y-129905000D01*
X131699285Y-130000238D01*
X131937380Y-129952619D02*
X131889761Y-130047857D01*
X131794523Y-130143095D01*
X131604047Y-130190714D01*
X131270714Y-130190714D01*
X131080238Y-130143095D01*
X130985000Y-130047857D01*
X130937380Y-129952619D01*
X130937380Y-129762142D01*
X130985000Y-129666904D01*
X131080238Y-129571666D01*
X131270714Y-129524047D01*
X131604047Y-129524047D01*
X131794523Y-129571666D01*
X131889761Y-129666904D01*
X131937380Y-129762142D01*
X131937380Y-129952619D01*
X131937380Y-128571666D02*
X131937380Y-129143095D01*
X131937380Y-128857380D02*
X130937380Y-128857380D01*
X131080238Y-128952619D01*
X131175476Y-129047857D01*
X131223095Y-129143095D01*
X130937380Y-127952619D02*
X130937380Y-127857380D01*
X130985000Y-127762142D01*
X131032619Y-127714523D01*
X131127857Y-127666904D01*
X131318333Y-127619285D01*
X131556428Y-127619285D01*
X131746904Y-127666904D01*
X131842142Y-127714523D01*
X131889761Y-127762142D01*
X131937380Y-127857380D01*
X131937380Y-127952619D01*
X131889761Y-128047857D01*
X131842142Y-128095476D01*
X131746904Y-128143095D01*
X131556428Y-128190714D01*
X131318333Y-128190714D01*
X131127857Y-128143095D01*
X131032619Y-128095476D01*
X130985000Y-128047857D01*
X130937380Y-127952619D01*
X132032619Y-116300238D02*
X131985000Y-116395476D01*
X131889761Y-116490714D01*
X131746904Y-116633571D01*
X131699285Y-116728809D01*
X131699285Y-116824047D01*
X131937380Y-116776428D02*
X131889761Y-116871666D01*
X131794523Y-116966904D01*
X131604047Y-117014523D01*
X131270714Y-117014523D01*
X131080238Y-116966904D01*
X130985000Y-116871666D01*
X130937380Y-116776428D01*
X130937380Y-116585952D01*
X130985000Y-116490714D01*
X131080238Y-116395476D01*
X131270714Y-116347857D01*
X131604047Y-116347857D01*
X131794523Y-116395476D01*
X131889761Y-116490714D01*
X131937380Y-116585952D01*
X131937380Y-116776428D01*
X131937380Y-115871666D02*
X131937380Y-115681190D01*
X131889761Y-115585952D01*
X131842142Y-115538333D01*
X131699285Y-115443095D01*
X131508809Y-115395476D01*
X131127857Y-115395476D01*
X131032619Y-115443095D01*
X130985000Y-115490714D01*
X130937380Y-115585952D01*
X130937380Y-115776428D01*
X130985000Y-115871666D01*
X131032619Y-115919285D01*
X131127857Y-115966904D01*
X131365952Y-115966904D01*
X131461190Y-115919285D01*
X131508809Y-115871666D01*
X131556428Y-115776428D01*
X131556428Y-115585952D01*
X131508809Y-115490714D01*
X131461190Y-115443095D01*
X131365952Y-115395476D01*
X112982619Y-154400238D02*
X112935000Y-154495476D01*
X112839761Y-154590714D01*
X112696904Y-154733571D01*
X112649285Y-154828809D01*
X112649285Y-154924047D01*
X112887380Y-154876428D02*
X112839761Y-154971666D01*
X112744523Y-155066904D01*
X112554047Y-155114523D01*
X112220714Y-155114523D01*
X112030238Y-155066904D01*
X111935000Y-154971666D01*
X111887380Y-154876428D01*
X111887380Y-154685952D01*
X111935000Y-154590714D01*
X112030238Y-154495476D01*
X112220714Y-154447857D01*
X112554047Y-154447857D01*
X112744523Y-154495476D01*
X112839761Y-154590714D01*
X112887380Y-154685952D01*
X112887380Y-154876428D01*
X112315952Y-153876428D02*
X112268333Y-153971666D01*
X112220714Y-154019285D01*
X112125476Y-154066904D01*
X112077857Y-154066904D01*
X111982619Y-154019285D01*
X111935000Y-153971666D01*
X111887380Y-153876428D01*
X111887380Y-153685952D01*
X111935000Y-153590714D01*
X111982619Y-153543095D01*
X112077857Y-153495476D01*
X112125476Y-153495476D01*
X112220714Y-153543095D01*
X112268333Y-153590714D01*
X112315952Y-153685952D01*
X112315952Y-153876428D01*
X112363571Y-153971666D01*
X112411190Y-154019285D01*
X112506428Y-154066904D01*
X112696904Y-154066904D01*
X112792142Y-154019285D01*
X112839761Y-153971666D01*
X112887380Y-153876428D01*
X112887380Y-153685952D01*
X112839761Y-153590714D01*
X112792142Y-153543095D01*
X112696904Y-153495476D01*
X112506428Y-153495476D01*
X112411190Y-153543095D01*
X112363571Y-153590714D01*
X112315952Y-153685952D01*
X112982619Y-141700238D02*
X112935000Y-141795476D01*
X112839761Y-141890714D01*
X112696904Y-142033571D01*
X112649285Y-142128809D01*
X112649285Y-142224047D01*
X112887380Y-142176428D02*
X112839761Y-142271666D01*
X112744523Y-142366904D01*
X112554047Y-142414523D01*
X112220714Y-142414523D01*
X112030238Y-142366904D01*
X111935000Y-142271666D01*
X111887380Y-142176428D01*
X111887380Y-141985952D01*
X111935000Y-141890714D01*
X112030238Y-141795476D01*
X112220714Y-141747857D01*
X112554047Y-141747857D01*
X112744523Y-141795476D01*
X112839761Y-141890714D01*
X112887380Y-141985952D01*
X112887380Y-142176428D01*
X111887380Y-141414523D02*
X111887380Y-140747857D01*
X112887380Y-141176428D01*
X112982619Y-129000238D02*
X112935000Y-129095476D01*
X112839761Y-129190714D01*
X112696904Y-129333571D01*
X112649285Y-129428809D01*
X112649285Y-129524047D01*
X112887380Y-129476428D02*
X112839761Y-129571666D01*
X112744523Y-129666904D01*
X112554047Y-129714523D01*
X112220714Y-129714523D01*
X112030238Y-129666904D01*
X111935000Y-129571666D01*
X111887380Y-129476428D01*
X111887380Y-129285952D01*
X111935000Y-129190714D01*
X112030238Y-129095476D01*
X112220714Y-129047857D01*
X112554047Y-129047857D01*
X112744523Y-129095476D01*
X112839761Y-129190714D01*
X112887380Y-129285952D01*
X112887380Y-129476428D01*
X111887380Y-128190714D02*
X111887380Y-128381190D01*
X111935000Y-128476428D01*
X111982619Y-128524047D01*
X112125476Y-128619285D01*
X112315952Y-128666904D01*
X112696904Y-128666904D01*
X112792142Y-128619285D01*
X112839761Y-128571666D01*
X112887380Y-128476428D01*
X112887380Y-128285952D01*
X112839761Y-128190714D01*
X112792142Y-128143095D01*
X112696904Y-128095476D01*
X112458809Y-128095476D01*
X112363571Y-128143095D01*
X112315952Y-128190714D01*
X112268333Y-128285952D01*
X112268333Y-128476428D01*
X112315952Y-128571666D01*
X112363571Y-128619285D01*
X112458809Y-128666904D01*
X112982619Y-116300238D02*
X112935000Y-116395476D01*
X112839761Y-116490714D01*
X112696904Y-116633571D01*
X112649285Y-116728809D01*
X112649285Y-116824047D01*
X112887380Y-116776428D02*
X112839761Y-116871666D01*
X112744523Y-116966904D01*
X112554047Y-117014523D01*
X112220714Y-117014523D01*
X112030238Y-116966904D01*
X111935000Y-116871666D01*
X111887380Y-116776428D01*
X111887380Y-116585952D01*
X111935000Y-116490714D01*
X112030238Y-116395476D01*
X112220714Y-116347857D01*
X112554047Y-116347857D01*
X112744523Y-116395476D01*
X112839761Y-116490714D01*
X112887380Y-116585952D01*
X112887380Y-116776428D01*
X111887380Y-115443095D02*
X111887380Y-115919285D01*
X112363571Y-115966904D01*
X112315952Y-115919285D01*
X112268333Y-115824047D01*
X112268333Y-115585952D01*
X112315952Y-115490714D01*
X112363571Y-115443095D01*
X112458809Y-115395476D01*
X112696904Y-115395476D01*
X112792142Y-115443095D01*
X112839761Y-115490714D01*
X112887380Y-115585952D01*
X112887380Y-115824047D01*
X112839761Y-115919285D01*
X112792142Y-115966904D01*
X93932619Y-116300238D02*
X93885000Y-116395476D01*
X93789761Y-116490714D01*
X93646904Y-116633571D01*
X93599285Y-116728809D01*
X93599285Y-116824047D01*
X93837380Y-116776428D02*
X93789761Y-116871666D01*
X93694523Y-116966904D01*
X93504047Y-117014523D01*
X93170714Y-117014523D01*
X92980238Y-116966904D01*
X92885000Y-116871666D01*
X92837380Y-116776428D01*
X92837380Y-116585952D01*
X92885000Y-116490714D01*
X92980238Y-116395476D01*
X93170714Y-116347857D01*
X93504047Y-116347857D01*
X93694523Y-116395476D01*
X93789761Y-116490714D01*
X93837380Y-116585952D01*
X93837380Y-116776428D01*
X93170714Y-115490714D02*
X93837380Y-115490714D01*
X92789761Y-115728809D02*
X93504047Y-115966904D01*
X93504047Y-115347857D01*
X93932619Y-129000238D02*
X93885000Y-129095476D01*
X93789761Y-129190714D01*
X93646904Y-129333571D01*
X93599285Y-129428809D01*
X93599285Y-129524047D01*
X93837380Y-129476428D02*
X93789761Y-129571666D01*
X93694523Y-129666904D01*
X93504047Y-129714523D01*
X93170714Y-129714523D01*
X92980238Y-129666904D01*
X92885000Y-129571666D01*
X92837380Y-129476428D01*
X92837380Y-129285952D01*
X92885000Y-129190714D01*
X92980238Y-129095476D01*
X93170714Y-129047857D01*
X93504047Y-129047857D01*
X93694523Y-129095476D01*
X93789761Y-129190714D01*
X93837380Y-129285952D01*
X93837380Y-129476428D01*
X92837380Y-128714523D02*
X92837380Y-128095476D01*
X93218333Y-128428809D01*
X93218333Y-128285952D01*
X93265952Y-128190714D01*
X93313571Y-128143095D01*
X93408809Y-128095476D01*
X93646904Y-128095476D01*
X93742142Y-128143095D01*
X93789761Y-128190714D01*
X93837380Y-128285952D01*
X93837380Y-128571666D01*
X93789761Y-128666904D01*
X93742142Y-128714523D01*
X93932619Y-141700238D02*
X93885000Y-141795476D01*
X93789761Y-141890714D01*
X93646904Y-142033571D01*
X93599285Y-142128809D01*
X93599285Y-142224047D01*
X93837380Y-142176428D02*
X93789761Y-142271666D01*
X93694523Y-142366904D01*
X93504047Y-142414523D01*
X93170714Y-142414523D01*
X92980238Y-142366904D01*
X92885000Y-142271666D01*
X92837380Y-142176428D01*
X92837380Y-141985952D01*
X92885000Y-141890714D01*
X92980238Y-141795476D01*
X93170714Y-141747857D01*
X93504047Y-141747857D01*
X93694523Y-141795476D01*
X93789761Y-141890714D01*
X93837380Y-141985952D01*
X93837380Y-142176428D01*
X92932619Y-141366904D02*
X92885000Y-141319285D01*
X92837380Y-141224047D01*
X92837380Y-140985952D01*
X92885000Y-140890714D01*
X92932619Y-140843095D01*
X93027857Y-140795476D01*
X93123095Y-140795476D01*
X93265952Y-140843095D01*
X93837380Y-141414523D01*
X93837380Y-140795476D01*
X157305476Y-105122380D02*
X157305476Y-105836666D01*
X157257857Y-105979523D01*
X157162619Y-106074761D01*
X157019761Y-106122380D01*
X156924523Y-106122380D01*
X158305476Y-106122380D02*
X157734047Y-106122380D01*
X158019761Y-106122380D02*
X158019761Y-105122380D01*
X157924523Y-105265238D01*
X157829285Y-105360476D01*
X157734047Y-105408095D01*
X158876904Y-105550952D02*
X158781666Y-105503333D01*
X158734047Y-105455714D01*
X158686428Y-105360476D01*
X158686428Y-105312857D01*
X158734047Y-105217619D01*
X158781666Y-105170000D01*
X158876904Y-105122380D01*
X159067380Y-105122380D01*
X159162619Y-105170000D01*
X159210238Y-105217619D01*
X159257857Y-105312857D01*
X159257857Y-105360476D01*
X159210238Y-105455714D01*
X159162619Y-105503333D01*
X159067380Y-105550952D01*
X158876904Y-105550952D01*
X158781666Y-105598571D01*
X158734047Y-105646190D01*
X158686428Y-105741428D01*
X158686428Y-105931904D01*
X158734047Y-106027142D01*
X158781666Y-106074761D01*
X158876904Y-106122380D01*
X159067380Y-106122380D01*
X159162619Y-106074761D01*
X159210238Y-106027142D01*
X159257857Y-105931904D01*
X159257857Y-105741428D01*
X159210238Y-105646190D01*
X159162619Y-105598571D01*
X159067380Y-105550952D01*
X157305476Y-117822380D02*
X157305476Y-118536666D01*
X157257857Y-118679523D01*
X157162619Y-118774761D01*
X157019761Y-118822380D01*
X156924523Y-118822380D01*
X158305476Y-118822380D02*
X157734047Y-118822380D01*
X158019761Y-118822380D02*
X158019761Y-117822380D01*
X157924523Y-117965238D01*
X157829285Y-118060476D01*
X157734047Y-118108095D01*
X158638809Y-117822380D02*
X159305476Y-117822380D01*
X158876904Y-118822380D01*
X157305476Y-130522380D02*
X157305476Y-131236666D01*
X157257857Y-131379523D01*
X157162619Y-131474761D01*
X157019761Y-131522380D01*
X156924523Y-131522380D01*
X158305476Y-131522380D02*
X157734047Y-131522380D01*
X158019761Y-131522380D02*
X158019761Y-130522380D01*
X157924523Y-130665238D01*
X157829285Y-130760476D01*
X157734047Y-130808095D01*
X159162619Y-130522380D02*
X158972142Y-130522380D01*
X158876904Y-130570000D01*
X158829285Y-130617619D01*
X158734047Y-130760476D01*
X158686428Y-130950952D01*
X158686428Y-131331904D01*
X158734047Y-131427142D01*
X158781666Y-131474761D01*
X158876904Y-131522380D01*
X159067380Y-131522380D01*
X159162619Y-131474761D01*
X159210238Y-131427142D01*
X159257857Y-131331904D01*
X159257857Y-131093809D01*
X159210238Y-130998571D01*
X159162619Y-130950952D01*
X159067380Y-130903333D01*
X158876904Y-130903333D01*
X158781666Y-130950952D01*
X158734047Y-130998571D01*
X158686428Y-131093809D01*
X157305476Y-143222380D02*
X157305476Y-143936666D01*
X157257857Y-144079523D01*
X157162619Y-144174761D01*
X157019761Y-144222380D01*
X156924523Y-144222380D01*
X158305476Y-144222380D02*
X157734047Y-144222380D01*
X158019761Y-144222380D02*
X158019761Y-143222380D01*
X157924523Y-143365238D01*
X157829285Y-143460476D01*
X157734047Y-143508095D01*
X159210238Y-143222380D02*
X158734047Y-143222380D01*
X158686428Y-143698571D01*
X158734047Y-143650952D01*
X158829285Y-143603333D01*
X159067380Y-143603333D01*
X159162619Y-143650952D01*
X159210238Y-143698571D01*
X159257857Y-143793809D01*
X159257857Y-144031904D01*
X159210238Y-144127142D01*
X159162619Y-144174761D01*
X159067380Y-144222380D01*
X158829285Y-144222380D01*
X158734047Y-144174761D01*
X158686428Y-144127142D01*
X138255476Y-143222380D02*
X138255476Y-143936666D01*
X138207857Y-144079523D01*
X138112619Y-144174761D01*
X137969761Y-144222380D01*
X137874523Y-144222380D01*
X139255476Y-144222380D02*
X138684047Y-144222380D01*
X138969761Y-144222380D02*
X138969761Y-143222380D01*
X138874523Y-143365238D01*
X138779285Y-143460476D01*
X138684047Y-143508095D01*
X140112619Y-143555714D02*
X140112619Y-144222380D01*
X139874523Y-143174761D02*
X139636428Y-143889047D01*
X140255476Y-143889047D01*
X138255476Y-130522380D02*
X138255476Y-131236666D01*
X138207857Y-131379523D01*
X138112619Y-131474761D01*
X137969761Y-131522380D01*
X137874523Y-131522380D01*
X139255476Y-131522380D02*
X138684047Y-131522380D01*
X138969761Y-131522380D02*
X138969761Y-130522380D01*
X138874523Y-130665238D01*
X138779285Y-130760476D01*
X138684047Y-130808095D01*
X139588809Y-130522380D02*
X140207857Y-130522380D01*
X139874523Y-130903333D01*
X140017380Y-130903333D01*
X140112619Y-130950952D01*
X140160238Y-130998571D01*
X140207857Y-131093809D01*
X140207857Y-131331904D01*
X140160238Y-131427142D01*
X140112619Y-131474761D01*
X140017380Y-131522380D01*
X139731666Y-131522380D01*
X139636428Y-131474761D01*
X139588809Y-131427142D01*
X138255476Y-117822380D02*
X138255476Y-118536666D01*
X138207857Y-118679523D01*
X138112619Y-118774761D01*
X137969761Y-118822380D01*
X137874523Y-118822380D01*
X139255476Y-118822380D02*
X138684047Y-118822380D01*
X138969761Y-118822380D02*
X138969761Y-117822380D01*
X138874523Y-117965238D01*
X138779285Y-118060476D01*
X138684047Y-118108095D01*
X139636428Y-117917619D02*
X139684047Y-117870000D01*
X139779285Y-117822380D01*
X140017380Y-117822380D01*
X140112619Y-117870000D01*
X140160238Y-117917619D01*
X140207857Y-118012857D01*
X140207857Y-118108095D01*
X140160238Y-118250952D01*
X139588809Y-118822380D01*
X140207857Y-118822380D01*
X138255476Y-105122380D02*
X138255476Y-105836666D01*
X138207857Y-105979523D01*
X138112619Y-106074761D01*
X137969761Y-106122380D01*
X137874523Y-106122380D01*
X139255476Y-106122380D02*
X138684047Y-106122380D01*
X138969761Y-106122380D02*
X138969761Y-105122380D01*
X138874523Y-105265238D01*
X138779285Y-105360476D01*
X138684047Y-105408095D01*
X140207857Y-106122380D02*
X139636428Y-106122380D01*
X139922142Y-106122380D02*
X139922142Y-105122380D01*
X139826904Y-105265238D01*
X139731666Y-105360476D01*
X139636428Y-105408095D01*
X119205476Y-143222380D02*
X119205476Y-143936666D01*
X119157857Y-144079523D01*
X119062619Y-144174761D01*
X118919761Y-144222380D01*
X118824523Y-144222380D01*
X120205476Y-144222380D02*
X119634047Y-144222380D01*
X119919761Y-144222380D02*
X119919761Y-143222380D01*
X119824523Y-143365238D01*
X119729285Y-143460476D01*
X119634047Y-143508095D01*
X120824523Y-143222380D02*
X120919761Y-143222380D01*
X121015000Y-143270000D01*
X121062619Y-143317619D01*
X121110238Y-143412857D01*
X121157857Y-143603333D01*
X121157857Y-143841428D01*
X121110238Y-144031904D01*
X121062619Y-144127142D01*
X121015000Y-144174761D01*
X120919761Y-144222380D01*
X120824523Y-144222380D01*
X120729285Y-144174761D01*
X120681666Y-144127142D01*
X120634047Y-144031904D01*
X120586428Y-143841428D01*
X120586428Y-143603333D01*
X120634047Y-143412857D01*
X120681666Y-143317619D01*
X120729285Y-143270000D01*
X120824523Y-143222380D01*
X119681666Y-130522380D02*
X119681666Y-131236666D01*
X119634047Y-131379523D01*
X119538809Y-131474761D01*
X119395952Y-131522380D01*
X119300714Y-131522380D01*
X120205476Y-131522380D02*
X120395952Y-131522380D01*
X120491190Y-131474761D01*
X120538809Y-131427142D01*
X120634047Y-131284285D01*
X120681666Y-131093809D01*
X120681666Y-130712857D01*
X120634047Y-130617619D01*
X120586428Y-130570000D01*
X120491190Y-130522380D01*
X120300714Y-130522380D01*
X120205476Y-130570000D01*
X120157857Y-130617619D01*
X120110238Y-130712857D01*
X120110238Y-130950952D01*
X120157857Y-131046190D01*
X120205476Y-131093809D01*
X120300714Y-131141428D01*
X120491190Y-131141428D01*
X120586428Y-131093809D01*
X120634047Y-131046190D01*
X120681666Y-130950952D01*
X119681666Y-117822380D02*
X119681666Y-118536666D01*
X119634047Y-118679523D01*
X119538809Y-118774761D01*
X119395952Y-118822380D01*
X119300714Y-118822380D01*
X120300714Y-118250952D02*
X120205476Y-118203333D01*
X120157857Y-118155714D01*
X120110238Y-118060476D01*
X120110238Y-118012857D01*
X120157857Y-117917619D01*
X120205476Y-117870000D01*
X120300714Y-117822380D01*
X120491190Y-117822380D01*
X120586428Y-117870000D01*
X120634047Y-117917619D01*
X120681666Y-118012857D01*
X120681666Y-118060476D01*
X120634047Y-118155714D01*
X120586428Y-118203333D01*
X120491190Y-118250952D01*
X120300714Y-118250952D01*
X120205476Y-118298571D01*
X120157857Y-118346190D01*
X120110238Y-118441428D01*
X120110238Y-118631904D01*
X120157857Y-118727142D01*
X120205476Y-118774761D01*
X120300714Y-118822380D01*
X120491190Y-118822380D01*
X120586428Y-118774761D01*
X120634047Y-118727142D01*
X120681666Y-118631904D01*
X120681666Y-118441428D01*
X120634047Y-118346190D01*
X120586428Y-118298571D01*
X120491190Y-118250952D01*
X119681666Y-105122380D02*
X119681666Y-105836666D01*
X119634047Y-105979523D01*
X119538809Y-106074761D01*
X119395952Y-106122380D01*
X119300714Y-106122380D01*
X120062619Y-105122380D02*
X120729285Y-105122380D01*
X120300714Y-106122380D01*
X100631666Y-105122380D02*
X100631666Y-105836666D01*
X100584047Y-105979523D01*
X100488809Y-106074761D01*
X100345952Y-106122380D01*
X100250714Y-106122380D01*
X101536428Y-105122380D02*
X101345952Y-105122380D01*
X101250714Y-105170000D01*
X101203095Y-105217619D01*
X101107857Y-105360476D01*
X101060238Y-105550952D01*
X101060238Y-105931904D01*
X101107857Y-106027142D01*
X101155476Y-106074761D01*
X101250714Y-106122380D01*
X101441190Y-106122380D01*
X101536428Y-106074761D01*
X101584047Y-106027142D01*
X101631666Y-105931904D01*
X101631666Y-105693809D01*
X101584047Y-105598571D01*
X101536428Y-105550952D01*
X101441190Y-105503333D01*
X101250714Y-105503333D01*
X101155476Y-105550952D01*
X101107857Y-105598571D01*
X101060238Y-105693809D01*
X100631666Y-117822380D02*
X100631666Y-118536666D01*
X100584047Y-118679523D01*
X100488809Y-118774761D01*
X100345952Y-118822380D01*
X100250714Y-118822380D01*
X101584047Y-117822380D02*
X101107857Y-117822380D01*
X101060238Y-118298571D01*
X101107857Y-118250952D01*
X101203095Y-118203333D01*
X101441190Y-118203333D01*
X101536428Y-118250952D01*
X101584047Y-118298571D01*
X101631666Y-118393809D01*
X101631666Y-118631904D01*
X101584047Y-118727142D01*
X101536428Y-118774761D01*
X101441190Y-118822380D01*
X101203095Y-118822380D01*
X101107857Y-118774761D01*
X101060238Y-118727142D01*
X100631666Y-130522380D02*
X100631666Y-131236666D01*
X100584047Y-131379523D01*
X100488809Y-131474761D01*
X100345952Y-131522380D01*
X100250714Y-131522380D01*
X101536428Y-130855714D02*
X101536428Y-131522380D01*
X101298333Y-130474761D02*
X101060238Y-131189047D01*
X101679285Y-131189047D01*
X100631666Y-143222380D02*
X100631666Y-143936666D01*
X100584047Y-144079523D01*
X100488809Y-144174761D01*
X100345952Y-144222380D01*
X100250714Y-144222380D01*
X101012619Y-143222380D02*
X101631666Y-143222380D01*
X101298333Y-143603333D01*
X101441190Y-143603333D01*
X101536428Y-143650952D01*
X101584047Y-143698571D01*
X101631666Y-143793809D01*
X101631666Y-144031904D01*
X101584047Y-144127142D01*
X101536428Y-144174761D01*
X101441190Y-144222380D01*
X101155476Y-144222380D01*
X101060238Y-144174761D01*
X101012619Y-144127142D01*
X110847142Y-80176666D02*
X110894761Y-80224285D01*
X110942380Y-80367142D01*
X110942380Y-80462380D01*
X110894761Y-80605238D01*
X110799523Y-80700476D01*
X110704285Y-80748095D01*
X110513809Y-80795714D01*
X110370952Y-80795714D01*
X110180476Y-80748095D01*
X110085238Y-80700476D01*
X109990000Y-80605238D01*
X109942380Y-80462380D01*
X109942380Y-80367142D01*
X109990000Y-80224285D01*
X110037619Y-80176666D01*
X110942380Y-79700476D02*
X110942380Y-79510000D01*
X110894761Y-79414761D01*
X110847142Y-79367142D01*
X110704285Y-79271904D01*
X110513809Y-79224285D01*
X110132857Y-79224285D01*
X110037619Y-79271904D01*
X109990000Y-79319523D01*
X109942380Y-79414761D01*
X109942380Y-79605238D01*
X109990000Y-79700476D01*
X110037619Y-79748095D01*
X110132857Y-79795714D01*
X110370952Y-79795714D01*
X110466190Y-79748095D01*
X110513809Y-79700476D01*
X110561428Y-79605238D01*
X110561428Y-79414761D01*
X110513809Y-79319523D01*
X110466190Y-79271904D01*
X110370952Y-79224285D01*
X110847142Y-76842857D02*
X110894761Y-76890476D01*
X110942380Y-77033333D01*
X110942380Y-77128571D01*
X110894761Y-77271428D01*
X110799523Y-77366666D01*
X110704285Y-77414285D01*
X110513809Y-77461904D01*
X110370952Y-77461904D01*
X110180476Y-77414285D01*
X110085238Y-77366666D01*
X109990000Y-77271428D01*
X109942380Y-77128571D01*
X109942380Y-77033333D01*
X109990000Y-76890476D01*
X110037619Y-76842857D01*
X110942380Y-75890476D02*
X110942380Y-76461904D01*
X110942380Y-76176190D02*
X109942380Y-76176190D01*
X110085238Y-76271428D01*
X110180476Y-76366666D01*
X110228095Y-76461904D01*
X109942380Y-75271428D02*
X109942380Y-75176190D01*
X109990000Y-75080952D01*
X110037619Y-75033333D01*
X110132857Y-74985714D01*
X110323333Y-74938095D01*
X110561428Y-74938095D01*
X110751904Y-74985714D01*
X110847142Y-75033333D01*
X110894761Y-75080952D01*
X110942380Y-75176190D01*
X110942380Y-75271428D01*
X110894761Y-75366666D01*
X110847142Y-75414285D01*
X110751904Y-75461904D01*
X110561428Y-75509523D01*
X110323333Y-75509523D01*
X110132857Y-75461904D01*
X110037619Y-75414285D01*
X109990000Y-75366666D01*
X109942380Y-75271428D01*
X118086190Y-78581190D02*
X118562380Y-78581190D01*
X117562380Y-78914523D02*
X118086190Y-78581190D01*
X117562380Y-78247857D01*
X118562380Y-77390714D02*
X118562380Y-77962142D01*
X118562380Y-77676428D02*
X117562380Y-77676428D01*
X117705238Y-77771666D01*
X117800476Y-77866904D01*
X117848095Y-77962142D01*
X128778095Y-99682380D02*
X128778095Y-100491904D01*
X128825714Y-100587142D01*
X128873333Y-100634761D01*
X128968571Y-100682380D01*
X129159047Y-100682380D01*
X129254285Y-100634761D01*
X129301904Y-100587142D01*
X129349523Y-100491904D01*
X129349523Y-99682380D01*
X129730476Y-99682380D02*
X130349523Y-99682380D01*
X130016190Y-100063333D01*
X130159047Y-100063333D01*
X130254285Y-100110952D01*
X130301904Y-100158571D01*
X130349523Y-100253809D01*
X130349523Y-100491904D01*
X130301904Y-100587142D01*
X130254285Y-100634761D01*
X130159047Y-100682380D01*
X129873333Y-100682380D01*
X129778095Y-100634761D01*
X129730476Y-100587142D01*
X128778095Y-65042380D02*
X128778095Y-65851904D01*
X128825714Y-65947142D01*
X128873333Y-65994761D01*
X128968571Y-66042380D01*
X129159047Y-66042380D01*
X129254285Y-65994761D01*
X129301904Y-65947142D01*
X129349523Y-65851904D01*
X129349523Y-65042380D01*
X130349523Y-66042380D02*
X129778095Y-66042380D01*
X130063809Y-66042380D02*
X130063809Y-65042380D01*
X129968571Y-65185238D01*
X129873333Y-65280476D01*
X129778095Y-65328095D01*
X124277380Y-91606666D02*
X123801190Y-91940000D01*
X124277380Y-92178095D02*
X123277380Y-92178095D01*
X123277380Y-91797142D01*
X123325000Y-91701904D01*
X123372619Y-91654285D01*
X123467857Y-91606666D01*
X123610714Y-91606666D01*
X123705952Y-91654285D01*
X123753571Y-91701904D01*
X123801190Y-91797142D01*
X123801190Y-92178095D01*
X123610714Y-90749523D02*
X124277380Y-90749523D01*
X123229761Y-90987619D02*
X123944047Y-91225714D01*
X123944047Y-90606666D01*
X127452380Y-70016666D02*
X126976190Y-70350000D01*
X127452380Y-70588095D02*
X126452380Y-70588095D01*
X126452380Y-70207142D01*
X126500000Y-70111904D01*
X126547619Y-70064285D01*
X126642857Y-70016666D01*
X126785714Y-70016666D01*
X126880952Y-70064285D01*
X126928571Y-70111904D01*
X126976190Y-70207142D01*
X126976190Y-70588095D01*
X126452380Y-69683333D02*
X126452380Y-69064285D01*
X126833333Y-69397619D01*
X126833333Y-69254761D01*
X126880952Y-69159523D01*
X126928571Y-69111904D01*
X127023809Y-69064285D01*
X127261904Y-69064285D01*
X127357142Y-69111904D01*
X127404761Y-69159523D01*
X127452380Y-69254761D01*
X127452380Y-69540476D01*
X127404761Y-69635714D01*
X127357142Y-69683333D01*
X93932619Y-154400238D02*
X93885000Y-154495476D01*
X93789761Y-154590714D01*
X93646904Y-154733571D01*
X93599285Y-154828809D01*
X93599285Y-154924047D01*
X93837380Y-154876428D02*
X93789761Y-154971666D01*
X93694523Y-155066904D01*
X93504047Y-155114523D01*
X93170714Y-155114523D01*
X92980238Y-155066904D01*
X92885000Y-154971666D01*
X92837380Y-154876428D01*
X92837380Y-154685952D01*
X92885000Y-154590714D01*
X92980238Y-154495476D01*
X93170714Y-154447857D01*
X93504047Y-154447857D01*
X93694523Y-154495476D01*
X93789761Y-154590714D01*
X93837380Y-154685952D01*
X93837380Y-154876428D01*
X93837380Y-153495476D02*
X93837380Y-154066904D01*
X93837380Y-153781190D02*
X92837380Y-153781190D01*
X92980238Y-153876428D01*
X93075476Y-153971666D01*
X93123095Y-154066904D01*
X141267380Y-73993333D02*
X141981666Y-73993333D01*
X142124523Y-74040952D01*
X142219761Y-74136190D01*
X142267380Y-74279047D01*
X142267380Y-74374285D01*
X141362619Y-73564761D02*
X141315000Y-73517142D01*
X141267380Y-73421904D01*
X141267380Y-73183809D01*
X141315000Y-73088571D01*
X141362619Y-73040952D01*
X141457857Y-72993333D01*
X141553095Y-72993333D01*
X141695952Y-73040952D01*
X142267380Y-73612380D01*
X142267380Y-72993333D01*
X151693571Y-60658333D02*
X151693571Y-60991666D01*
X152217380Y-60991666D02*
X151217380Y-60991666D01*
X151217380Y-60515476D01*
X152217380Y-59610714D02*
X152217380Y-60182142D01*
X152217380Y-59896428D02*
X151217380Y-59896428D01*
X151360238Y-59991666D01*
X151455476Y-60086904D01*
X151503095Y-60182142D01*
X151487142Y-65571666D02*
X151534761Y-65619285D01*
X151582380Y-65762142D01*
X151582380Y-65857380D01*
X151534761Y-66000238D01*
X151439523Y-66095476D01*
X151344285Y-66143095D01*
X151153809Y-66190714D01*
X151010952Y-66190714D01*
X150820476Y-66143095D01*
X150725238Y-66095476D01*
X150630000Y-66000238D01*
X150582380Y-65857380D01*
X150582380Y-65762142D01*
X150630000Y-65619285D01*
X150677619Y-65571666D01*
X151010952Y-65000238D02*
X150963333Y-65095476D01*
X150915714Y-65143095D01*
X150820476Y-65190714D01*
X150772857Y-65190714D01*
X150677619Y-65143095D01*
X150630000Y-65095476D01*
X150582380Y-65000238D01*
X150582380Y-64809761D01*
X150630000Y-64714523D01*
X150677619Y-64666904D01*
X150772857Y-64619285D01*
X150820476Y-64619285D01*
X150915714Y-64666904D01*
X150963333Y-64714523D01*
X151010952Y-64809761D01*
X151010952Y-65000238D01*
X151058571Y-65095476D01*
X151106190Y-65143095D01*
X151201428Y-65190714D01*
X151391904Y-65190714D01*
X151487142Y-65143095D01*
X151534761Y-65095476D01*
X151582380Y-65000238D01*
X151582380Y-64809761D01*
X151534761Y-64714523D01*
X151487142Y-64666904D01*
X151391904Y-64619285D01*
X151201428Y-64619285D01*
X151106190Y-64666904D01*
X151058571Y-64714523D01*
X151010952Y-64809761D01*
X139422142Y-60491666D02*
X139469761Y-60539285D01*
X139517380Y-60682142D01*
X139517380Y-60777380D01*
X139469761Y-60920238D01*
X139374523Y-61015476D01*
X139279285Y-61063095D01*
X139088809Y-61110714D01*
X138945952Y-61110714D01*
X138755476Y-61063095D01*
X138660238Y-61015476D01*
X138565000Y-60920238D01*
X138517380Y-60777380D01*
X138517380Y-60682142D01*
X138565000Y-60539285D01*
X138612619Y-60491666D01*
X138517380Y-60158333D02*
X138517380Y-59491666D01*
X139517380Y-59920238D01*
X140692142Y-92876666D02*
X140739761Y-92924285D01*
X140787380Y-93067142D01*
X140787380Y-93162380D01*
X140739761Y-93305238D01*
X140644523Y-93400476D01*
X140549285Y-93448095D01*
X140358809Y-93495714D01*
X140215952Y-93495714D01*
X140025476Y-93448095D01*
X139930238Y-93400476D01*
X139835000Y-93305238D01*
X139787380Y-93162380D01*
X139787380Y-93067142D01*
X139835000Y-92924285D01*
X139882619Y-92876666D01*
X139787380Y-91971904D02*
X139787380Y-92448095D01*
X140263571Y-92495714D01*
X140215952Y-92448095D01*
X140168333Y-92352857D01*
X140168333Y-92114761D01*
X140215952Y-92019523D01*
X140263571Y-91971904D01*
X140358809Y-91924285D01*
X140596904Y-91924285D01*
X140692142Y-91971904D01*
X140739761Y-92019523D01*
X140787380Y-92114761D01*
X140787380Y-92352857D01*
X140739761Y-92448095D01*
X140692142Y-92495714D01*
X123547142Y-76366666D02*
X123594761Y-76414285D01*
X123642380Y-76557142D01*
X123642380Y-76652380D01*
X123594761Y-76795238D01*
X123499523Y-76890476D01*
X123404285Y-76938095D01*
X123213809Y-76985714D01*
X123070952Y-76985714D01*
X122880476Y-76938095D01*
X122785238Y-76890476D01*
X122690000Y-76795238D01*
X122642380Y-76652380D01*
X122642380Y-76557142D01*
X122690000Y-76414285D01*
X122737619Y-76366666D01*
X122975714Y-75509523D02*
X123642380Y-75509523D01*
X122594761Y-75747619D02*
X123309047Y-75985714D01*
X123309047Y-75366666D01*
X123547142Y-80176666D02*
X123594761Y-80224285D01*
X123642380Y-80367142D01*
X123642380Y-80462380D01*
X123594761Y-80605238D01*
X123499523Y-80700476D01*
X123404285Y-80748095D01*
X123213809Y-80795714D01*
X123070952Y-80795714D01*
X122880476Y-80748095D01*
X122785238Y-80700476D01*
X122690000Y-80605238D01*
X122642380Y-80462380D01*
X122642380Y-80367142D01*
X122690000Y-80224285D01*
X122737619Y-80176666D01*
X122642380Y-79843333D02*
X122642380Y-79224285D01*
X123023333Y-79557619D01*
X123023333Y-79414761D01*
X123070952Y-79319523D01*
X123118571Y-79271904D01*
X123213809Y-79224285D01*
X123451904Y-79224285D01*
X123547142Y-79271904D01*
X123594761Y-79319523D01*
X123642380Y-79414761D01*
X123642380Y-79700476D01*
X123594761Y-79795714D01*
X123547142Y-79843333D01*
X141327142Y-80176666D02*
X141374761Y-80224285D01*
X141422380Y-80367142D01*
X141422380Y-80462380D01*
X141374761Y-80605238D01*
X141279523Y-80700476D01*
X141184285Y-80748095D01*
X140993809Y-80795714D01*
X140850952Y-80795714D01*
X140660476Y-80748095D01*
X140565238Y-80700476D01*
X140470000Y-80605238D01*
X140422380Y-80462380D01*
X140422380Y-80367142D01*
X140470000Y-80224285D01*
X140517619Y-80176666D01*
X140517619Y-79795714D02*
X140470000Y-79748095D01*
X140422380Y-79652857D01*
X140422380Y-79414761D01*
X140470000Y-79319523D01*
X140517619Y-79271904D01*
X140612857Y-79224285D01*
X140708095Y-79224285D01*
X140850952Y-79271904D01*
X141422380Y-79843333D01*
X141422380Y-79224285D01*
X125452142Y-64301666D02*
X125499761Y-64349285D01*
X125547380Y-64492142D01*
X125547380Y-64587380D01*
X125499761Y-64730238D01*
X125404523Y-64825476D01*
X125309285Y-64873095D01*
X125118809Y-64920714D01*
X124975952Y-64920714D01*
X124785476Y-64873095D01*
X124690238Y-64825476D01*
X124595000Y-64730238D01*
X124547380Y-64587380D01*
X124547380Y-64492142D01*
X124595000Y-64349285D01*
X124642619Y-64301666D01*
X125547380Y-63349285D02*
X125547380Y-63920714D01*
X125547380Y-63635000D02*
X124547380Y-63635000D01*
X124690238Y-63730238D01*
X124785476Y-63825476D01*
X124833095Y-63920714D01*
M02*
