G04 #@! TF.GenerationSoftware,KiCad,Pcbnew,(5.1.5-0-10_14)*
G04 #@! TF.CreationDate,2020-07-04T20:20:26+02:00*
G04 #@! TF.ProjectId,controller,636f6e74-726f-46c6-9c65-722e6b696361,rev?*
G04 #@! TF.SameCoordinates,Original*
G04 #@! TF.FileFunction,Paste,Top*
G04 #@! TF.FilePolarity,Positive*
%FSLAX46Y46*%
G04 Gerber Fmt 4.6, Leading zero omitted, Abs format (unit mm)*
G04 Created by KiCad (PCBNEW (5.1.5-0-10_14)) date 2020-07-04 20:20:26*
%MOMM*%
%LPD*%
G04 APERTURE LIST*
%ADD10R,0.550000X1.600000*%
%ADD11R,1.600000X0.550000*%
%ADD12C,0.100000*%
%ADD13R,1.500000X1.900000*%
%ADD14R,0.400000X1.350000*%
%ADD15R,1.100000X0.400000*%
%ADD16R,0.800000X0.900000*%
%ADD17R,2.000000X4.500000*%
%ADD18R,1.750000X0.450000*%
G04 APERTURE END LIST*
D10*
X126740000Y-73855000D03*
X127540000Y-73855000D03*
X128340000Y-73855000D03*
X129140000Y-73855000D03*
X129940000Y-73855000D03*
X130740000Y-73855000D03*
X131540000Y-73855000D03*
X132340000Y-73855000D03*
D11*
X133790000Y-75305000D03*
X133790000Y-76105000D03*
X133790000Y-76905000D03*
X133790000Y-77705000D03*
X133790000Y-78505000D03*
X133790000Y-79305000D03*
X133790000Y-80105000D03*
X133790000Y-80905000D03*
D10*
X132340000Y-82355000D03*
X131540000Y-82355000D03*
X130740000Y-82355000D03*
X129940000Y-82355000D03*
X129140000Y-82355000D03*
X128340000Y-82355000D03*
X127540000Y-82355000D03*
X126740000Y-82355000D03*
D11*
X125290000Y-80905000D03*
X125290000Y-80105000D03*
X125290000Y-79305000D03*
X125290000Y-78505000D03*
X125290000Y-77705000D03*
X125290000Y-76905000D03*
X125290000Y-76105000D03*
X125290000Y-75305000D03*
D12*
G36*
X135825142Y-69151174D02*
G01*
X135848803Y-69154684D01*
X135872007Y-69160496D01*
X135894529Y-69168554D01*
X135916153Y-69178782D01*
X135936670Y-69191079D01*
X135955883Y-69205329D01*
X135973607Y-69221393D01*
X135989671Y-69239117D01*
X136003921Y-69258330D01*
X136016218Y-69278847D01*
X136026446Y-69300471D01*
X136034504Y-69322993D01*
X136040316Y-69346197D01*
X136043826Y-69369858D01*
X136045000Y-69393750D01*
X136045000Y-70306250D01*
X136043826Y-70330142D01*
X136040316Y-70353803D01*
X136034504Y-70377007D01*
X136026446Y-70399529D01*
X136016218Y-70421153D01*
X136003921Y-70441670D01*
X135989671Y-70460883D01*
X135973607Y-70478607D01*
X135955883Y-70494671D01*
X135936670Y-70508921D01*
X135916153Y-70521218D01*
X135894529Y-70531446D01*
X135872007Y-70539504D01*
X135848803Y-70545316D01*
X135825142Y-70548826D01*
X135801250Y-70550000D01*
X135313750Y-70550000D01*
X135289858Y-70548826D01*
X135266197Y-70545316D01*
X135242993Y-70539504D01*
X135220471Y-70531446D01*
X135198847Y-70521218D01*
X135178330Y-70508921D01*
X135159117Y-70494671D01*
X135141393Y-70478607D01*
X135125329Y-70460883D01*
X135111079Y-70441670D01*
X135098782Y-70421153D01*
X135088554Y-70399529D01*
X135080496Y-70377007D01*
X135074684Y-70353803D01*
X135071174Y-70330142D01*
X135070000Y-70306250D01*
X135070000Y-69393750D01*
X135071174Y-69369858D01*
X135074684Y-69346197D01*
X135080496Y-69322993D01*
X135088554Y-69300471D01*
X135098782Y-69278847D01*
X135111079Y-69258330D01*
X135125329Y-69239117D01*
X135141393Y-69221393D01*
X135159117Y-69205329D01*
X135178330Y-69191079D01*
X135198847Y-69178782D01*
X135220471Y-69168554D01*
X135242993Y-69160496D01*
X135266197Y-69154684D01*
X135289858Y-69151174D01*
X135313750Y-69150000D01*
X135801250Y-69150000D01*
X135825142Y-69151174D01*
G37*
G36*
X133950142Y-69151174D02*
G01*
X133973803Y-69154684D01*
X133997007Y-69160496D01*
X134019529Y-69168554D01*
X134041153Y-69178782D01*
X134061670Y-69191079D01*
X134080883Y-69205329D01*
X134098607Y-69221393D01*
X134114671Y-69239117D01*
X134128921Y-69258330D01*
X134141218Y-69278847D01*
X134151446Y-69300471D01*
X134159504Y-69322993D01*
X134165316Y-69346197D01*
X134168826Y-69369858D01*
X134170000Y-69393750D01*
X134170000Y-70306250D01*
X134168826Y-70330142D01*
X134165316Y-70353803D01*
X134159504Y-70377007D01*
X134151446Y-70399529D01*
X134141218Y-70421153D01*
X134128921Y-70441670D01*
X134114671Y-70460883D01*
X134098607Y-70478607D01*
X134080883Y-70494671D01*
X134061670Y-70508921D01*
X134041153Y-70521218D01*
X134019529Y-70531446D01*
X133997007Y-70539504D01*
X133973803Y-70545316D01*
X133950142Y-70548826D01*
X133926250Y-70550000D01*
X133438750Y-70550000D01*
X133414858Y-70548826D01*
X133391197Y-70545316D01*
X133367993Y-70539504D01*
X133345471Y-70531446D01*
X133323847Y-70521218D01*
X133303330Y-70508921D01*
X133284117Y-70494671D01*
X133266393Y-70478607D01*
X133250329Y-70460883D01*
X133236079Y-70441670D01*
X133223782Y-70421153D01*
X133213554Y-70399529D01*
X133205496Y-70377007D01*
X133199684Y-70353803D01*
X133196174Y-70330142D01*
X133195000Y-70306250D01*
X133195000Y-69393750D01*
X133196174Y-69369858D01*
X133199684Y-69346197D01*
X133205496Y-69322993D01*
X133213554Y-69300471D01*
X133223782Y-69278847D01*
X133236079Y-69258330D01*
X133250329Y-69239117D01*
X133266393Y-69221393D01*
X133284117Y-69205329D01*
X133303330Y-69191079D01*
X133323847Y-69178782D01*
X133345471Y-69168554D01*
X133367993Y-69160496D01*
X133391197Y-69154684D01*
X133414858Y-69151174D01*
X133438750Y-69150000D01*
X133926250Y-69150000D01*
X133950142Y-69151174D01*
G37*
G36*
X128870142Y-69151174D02*
G01*
X128893803Y-69154684D01*
X128917007Y-69160496D01*
X128939529Y-69168554D01*
X128961153Y-69178782D01*
X128981670Y-69191079D01*
X129000883Y-69205329D01*
X129018607Y-69221393D01*
X129034671Y-69239117D01*
X129048921Y-69258330D01*
X129061218Y-69278847D01*
X129071446Y-69300471D01*
X129079504Y-69322993D01*
X129085316Y-69346197D01*
X129088826Y-69369858D01*
X129090000Y-69393750D01*
X129090000Y-70306250D01*
X129088826Y-70330142D01*
X129085316Y-70353803D01*
X129079504Y-70377007D01*
X129071446Y-70399529D01*
X129061218Y-70421153D01*
X129048921Y-70441670D01*
X129034671Y-70460883D01*
X129018607Y-70478607D01*
X129000883Y-70494671D01*
X128981670Y-70508921D01*
X128961153Y-70521218D01*
X128939529Y-70531446D01*
X128917007Y-70539504D01*
X128893803Y-70545316D01*
X128870142Y-70548826D01*
X128846250Y-70550000D01*
X128358750Y-70550000D01*
X128334858Y-70548826D01*
X128311197Y-70545316D01*
X128287993Y-70539504D01*
X128265471Y-70531446D01*
X128243847Y-70521218D01*
X128223330Y-70508921D01*
X128204117Y-70494671D01*
X128186393Y-70478607D01*
X128170329Y-70460883D01*
X128156079Y-70441670D01*
X128143782Y-70421153D01*
X128133554Y-70399529D01*
X128125496Y-70377007D01*
X128119684Y-70353803D01*
X128116174Y-70330142D01*
X128115000Y-70306250D01*
X128115000Y-69393750D01*
X128116174Y-69369858D01*
X128119684Y-69346197D01*
X128125496Y-69322993D01*
X128133554Y-69300471D01*
X128143782Y-69278847D01*
X128156079Y-69258330D01*
X128170329Y-69239117D01*
X128186393Y-69221393D01*
X128204117Y-69205329D01*
X128223330Y-69191079D01*
X128243847Y-69178782D01*
X128265471Y-69168554D01*
X128287993Y-69160496D01*
X128311197Y-69154684D01*
X128334858Y-69151174D01*
X128358750Y-69150000D01*
X128846250Y-69150000D01*
X128870142Y-69151174D01*
G37*
G36*
X130745142Y-69151174D02*
G01*
X130768803Y-69154684D01*
X130792007Y-69160496D01*
X130814529Y-69168554D01*
X130836153Y-69178782D01*
X130856670Y-69191079D01*
X130875883Y-69205329D01*
X130893607Y-69221393D01*
X130909671Y-69239117D01*
X130923921Y-69258330D01*
X130936218Y-69278847D01*
X130946446Y-69300471D01*
X130954504Y-69322993D01*
X130960316Y-69346197D01*
X130963826Y-69369858D01*
X130965000Y-69393750D01*
X130965000Y-70306250D01*
X130963826Y-70330142D01*
X130960316Y-70353803D01*
X130954504Y-70377007D01*
X130946446Y-70399529D01*
X130936218Y-70421153D01*
X130923921Y-70441670D01*
X130909671Y-70460883D01*
X130893607Y-70478607D01*
X130875883Y-70494671D01*
X130856670Y-70508921D01*
X130836153Y-70521218D01*
X130814529Y-70531446D01*
X130792007Y-70539504D01*
X130768803Y-70545316D01*
X130745142Y-70548826D01*
X130721250Y-70550000D01*
X130233750Y-70550000D01*
X130209858Y-70548826D01*
X130186197Y-70545316D01*
X130162993Y-70539504D01*
X130140471Y-70531446D01*
X130118847Y-70521218D01*
X130098330Y-70508921D01*
X130079117Y-70494671D01*
X130061393Y-70478607D01*
X130045329Y-70460883D01*
X130031079Y-70441670D01*
X130018782Y-70421153D01*
X130008554Y-70399529D01*
X130000496Y-70377007D01*
X129994684Y-70353803D01*
X129991174Y-70330142D01*
X129990000Y-70306250D01*
X129990000Y-69393750D01*
X129991174Y-69369858D01*
X129994684Y-69346197D01*
X130000496Y-69322993D01*
X130008554Y-69300471D01*
X130018782Y-69278847D01*
X130031079Y-69258330D01*
X130045329Y-69239117D01*
X130061393Y-69221393D01*
X130079117Y-69205329D01*
X130098330Y-69191079D01*
X130118847Y-69178782D01*
X130140471Y-69168554D01*
X130162993Y-69160496D01*
X130186197Y-69154684D01*
X130209858Y-69151174D01*
X130233750Y-69150000D01*
X130721250Y-69150000D01*
X130745142Y-69151174D01*
G37*
D13*
X147685000Y-51467500D03*
D14*
X146685000Y-54167500D03*
X146035000Y-54167500D03*
X145385000Y-54167500D03*
X147985000Y-54167500D03*
X147335000Y-54167500D03*
D13*
X145685000Y-51467500D03*
D12*
G36*
X137730142Y-165036174D02*
G01*
X137753803Y-165039684D01*
X137777007Y-165045496D01*
X137799529Y-165053554D01*
X137821153Y-165063782D01*
X137841670Y-165076079D01*
X137860883Y-165090329D01*
X137878607Y-165106393D01*
X137894671Y-165124117D01*
X137908921Y-165143330D01*
X137921218Y-165163847D01*
X137931446Y-165185471D01*
X137939504Y-165207993D01*
X137945316Y-165231197D01*
X137948826Y-165254858D01*
X137950000Y-165278750D01*
X137950000Y-166191250D01*
X137948826Y-166215142D01*
X137945316Y-166238803D01*
X137939504Y-166262007D01*
X137931446Y-166284529D01*
X137921218Y-166306153D01*
X137908921Y-166326670D01*
X137894671Y-166345883D01*
X137878607Y-166363607D01*
X137860883Y-166379671D01*
X137841670Y-166393921D01*
X137821153Y-166406218D01*
X137799529Y-166416446D01*
X137777007Y-166424504D01*
X137753803Y-166430316D01*
X137730142Y-166433826D01*
X137706250Y-166435000D01*
X137218750Y-166435000D01*
X137194858Y-166433826D01*
X137171197Y-166430316D01*
X137147993Y-166424504D01*
X137125471Y-166416446D01*
X137103847Y-166406218D01*
X137083330Y-166393921D01*
X137064117Y-166379671D01*
X137046393Y-166363607D01*
X137030329Y-166345883D01*
X137016079Y-166326670D01*
X137003782Y-166306153D01*
X136993554Y-166284529D01*
X136985496Y-166262007D01*
X136979684Y-166238803D01*
X136976174Y-166215142D01*
X136975000Y-166191250D01*
X136975000Y-165278750D01*
X136976174Y-165254858D01*
X136979684Y-165231197D01*
X136985496Y-165207993D01*
X136993554Y-165185471D01*
X137003782Y-165163847D01*
X137016079Y-165143330D01*
X137030329Y-165124117D01*
X137046393Y-165106393D01*
X137064117Y-165090329D01*
X137083330Y-165076079D01*
X137103847Y-165063782D01*
X137125471Y-165053554D01*
X137147993Y-165045496D01*
X137171197Y-165039684D01*
X137194858Y-165036174D01*
X137218750Y-165035000D01*
X137706250Y-165035000D01*
X137730142Y-165036174D01*
G37*
G36*
X135855142Y-165036174D02*
G01*
X135878803Y-165039684D01*
X135902007Y-165045496D01*
X135924529Y-165053554D01*
X135946153Y-165063782D01*
X135966670Y-165076079D01*
X135985883Y-165090329D01*
X136003607Y-165106393D01*
X136019671Y-165124117D01*
X136033921Y-165143330D01*
X136046218Y-165163847D01*
X136056446Y-165185471D01*
X136064504Y-165207993D01*
X136070316Y-165231197D01*
X136073826Y-165254858D01*
X136075000Y-165278750D01*
X136075000Y-166191250D01*
X136073826Y-166215142D01*
X136070316Y-166238803D01*
X136064504Y-166262007D01*
X136056446Y-166284529D01*
X136046218Y-166306153D01*
X136033921Y-166326670D01*
X136019671Y-166345883D01*
X136003607Y-166363607D01*
X135985883Y-166379671D01*
X135966670Y-166393921D01*
X135946153Y-166406218D01*
X135924529Y-166416446D01*
X135902007Y-166424504D01*
X135878803Y-166430316D01*
X135855142Y-166433826D01*
X135831250Y-166435000D01*
X135343750Y-166435000D01*
X135319858Y-166433826D01*
X135296197Y-166430316D01*
X135272993Y-166424504D01*
X135250471Y-166416446D01*
X135228847Y-166406218D01*
X135208330Y-166393921D01*
X135189117Y-166379671D01*
X135171393Y-166363607D01*
X135155329Y-166345883D01*
X135141079Y-166326670D01*
X135128782Y-166306153D01*
X135118554Y-166284529D01*
X135110496Y-166262007D01*
X135104684Y-166238803D01*
X135101174Y-166215142D01*
X135100000Y-166191250D01*
X135100000Y-165278750D01*
X135101174Y-165254858D01*
X135104684Y-165231197D01*
X135110496Y-165207993D01*
X135118554Y-165185471D01*
X135128782Y-165163847D01*
X135141079Y-165143330D01*
X135155329Y-165124117D01*
X135171393Y-165106393D01*
X135189117Y-165090329D01*
X135208330Y-165076079D01*
X135228847Y-165063782D01*
X135250471Y-165053554D01*
X135272993Y-165045496D01*
X135296197Y-165039684D01*
X135319858Y-165036174D01*
X135343750Y-165035000D01*
X135831250Y-165035000D01*
X135855142Y-165036174D01*
G37*
G36*
X137730142Y-161861174D02*
G01*
X137753803Y-161864684D01*
X137777007Y-161870496D01*
X137799529Y-161878554D01*
X137821153Y-161888782D01*
X137841670Y-161901079D01*
X137860883Y-161915329D01*
X137878607Y-161931393D01*
X137894671Y-161949117D01*
X137908921Y-161968330D01*
X137921218Y-161988847D01*
X137931446Y-162010471D01*
X137939504Y-162032993D01*
X137945316Y-162056197D01*
X137948826Y-162079858D01*
X137950000Y-162103750D01*
X137950000Y-163016250D01*
X137948826Y-163040142D01*
X137945316Y-163063803D01*
X137939504Y-163087007D01*
X137931446Y-163109529D01*
X137921218Y-163131153D01*
X137908921Y-163151670D01*
X137894671Y-163170883D01*
X137878607Y-163188607D01*
X137860883Y-163204671D01*
X137841670Y-163218921D01*
X137821153Y-163231218D01*
X137799529Y-163241446D01*
X137777007Y-163249504D01*
X137753803Y-163255316D01*
X137730142Y-163258826D01*
X137706250Y-163260000D01*
X137218750Y-163260000D01*
X137194858Y-163258826D01*
X137171197Y-163255316D01*
X137147993Y-163249504D01*
X137125471Y-163241446D01*
X137103847Y-163231218D01*
X137083330Y-163218921D01*
X137064117Y-163204671D01*
X137046393Y-163188607D01*
X137030329Y-163170883D01*
X137016079Y-163151670D01*
X137003782Y-163131153D01*
X136993554Y-163109529D01*
X136985496Y-163087007D01*
X136979684Y-163063803D01*
X136976174Y-163040142D01*
X136975000Y-163016250D01*
X136975000Y-162103750D01*
X136976174Y-162079858D01*
X136979684Y-162056197D01*
X136985496Y-162032993D01*
X136993554Y-162010471D01*
X137003782Y-161988847D01*
X137016079Y-161968330D01*
X137030329Y-161949117D01*
X137046393Y-161931393D01*
X137064117Y-161915329D01*
X137083330Y-161901079D01*
X137103847Y-161888782D01*
X137125471Y-161878554D01*
X137147993Y-161870496D01*
X137171197Y-161864684D01*
X137194858Y-161861174D01*
X137218750Y-161860000D01*
X137706250Y-161860000D01*
X137730142Y-161861174D01*
G37*
G36*
X135855142Y-161861174D02*
G01*
X135878803Y-161864684D01*
X135902007Y-161870496D01*
X135924529Y-161878554D01*
X135946153Y-161888782D01*
X135966670Y-161901079D01*
X135985883Y-161915329D01*
X136003607Y-161931393D01*
X136019671Y-161949117D01*
X136033921Y-161968330D01*
X136046218Y-161988847D01*
X136056446Y-162010471D01*
X136064504Y-162032993D01*
X136070316Y-162056197D01*
X136073826Y-162079858D01*
X136075000Y-162103750D01*
X136075000Y-163016250D01*
X136073826Y-163040142D01*
X136070316Y-163063803D01*
X136064504Y-163087007D01*
X136056446Y-163109529D01*
X136046218Y-163131153D01*
X136033921Y-163151670D01*
X136019671Y-163170883D01*
X136003607Y-163188607D01*
X135985883Y-163204671D01*
X135966670Y-163218921D01*
X135946153Y-163231218D01*
X135924529Y-163241446D01*
X135902007Y-163249504D01*
X135878803Y-163255316D01*
X135855142Y-163258826D01*
X135831250Y-163260000D01*
X135343750Y-163260000D01*
X135319858Y-163258826D01*
X135296197Y-163255316D01*
X135272993Y-163249504D01*
X135250471Y-163241446D01*
X135228847Y-163231218D01*
X135208330Y-163218921D01*
X135189117Y-163204671D01*
X135171393Y-163188607D01*
X135155329Y-163170883D01*
X135141079Y-163151670D01*
X135128782Y-163131153D01*
X135118554Y-163109529D01*
X135110496Y-163087007D01*
X135104684Y-163063803D01*
X135101174Y-163040142D01*
X135100000Y-163016250D01*
X135100000Y-162103750D01*
X135101174Y-162079858D01*
X135104684Y-162056197D01*
X135110496Y-162032993D01*
X135118554Y-162010471D01*
X135128782Y-161988847D01*
X135141079Y-161968330D01*
X135155329Y-161949117D01*
X135171393Y-161931393D01*
X135189117Y-161915329D01*
X135208330Y-161901079D01*
X135228847Y-161888782D01*
X135250471Y-161878554D01*
X135272993Y-161870496D01*
X135296197Y-161864684D01*
X135319858Y-161861174D01*
X135343750Y-161860000D01*
X135831250Y-161860000D01*
X135855142Y-161861174D01*
G37*
D15*
X132390000Y-162780000D03*
X132390000Y-163430000D03*
X132390000Y-164080000D03*
X132390000Y-164730000D03*
X132390000Y-165380000D03*
X132390000Y-166030000D03*
X132390000Y-166680000D03*
X132390000Y-167330000D03*
X132390000Y-167980000D03*
X132390000Y-168630000D03*
X132390000Y-169280000D03*
X132390000Y-169930000D03*
X132390000Y-170580000D03*
X132390000Y-171230000D03*
X126690000Y-171230000D03*
X126690000Y-170580000D03*
X126690000Y-169930000D03*
X126690000Y-169280000D03*
X126690000Y-168630000D03*
X126690000Y-167980000D03*
X126690000Y-167330000D03*
X126690000Y-166680000D03*
X126690000Y-166030000D03*
X126690000Y-165380000D03*
X126690000Y-164730000D03*
X126690000Y-164080000D03*
X126690000Y-163430000D03*
X126690000Y-162780000D03*
D16*
X153035000Y-115205000D03*
X153985000Y-117205000D03*
X152085000Y-117205000D03*
X153035000Y-127905000D03*
X153985000Y-129905000D03*
X152085000Y-129905000D03*
X153035000Y-140605000D03*
X153985000Y-142605000D03*
X152085000Y-142605000D03*
X153035000Y-153305000D03*
X153985000Y-155305000D03*
X152085000Y-155305000D03*
X133985000Y-153305000D03*
X134935000Y-155305000D03*
X133035000Y-155305000D03*
X133985000Y-140605000D03*
X134935000Y-142605000D03*
X133035000Y-142605000D03*
X133985000Y-127905000D03*
X134935000Y-129905000D03*
X133035000Y-129905000D03*
X133985000Y-115205000D03*
X134935000Y-117205000D03*
X133035000Y-117205000D03*
X114935000Y-153305000D03*
X115885000Y-155305000D03*
X113985000Y-155305000D03*
X114935000Y-140605000D03*
X115885000Y-142605000D03*
X113985000Y-142605000D03*
X114935000Y-127905000D03*
X115885000Y-129905000D03*
X113985000Y-129905000D03*
X114935000Y-115205000D03*
X115885000Y-117205000D03*
X113985000Y-117205000D03*
X95885000Y-115205000D03*
X96835000Y-117205000D03*
X94935000Y-117205000D03*
X95885000Y-127905000D03*
X96835000Y-129905000D03*
X94935000Y-129905000D03*
X95885000Y-140605000D03*
X96835000Y-142605000D03*
X94935000Y-142605000D03*
D12*
G36*
X107280142Y-79311174D02*
G01*
X107303803Y-79314684D01*
X107327007Y-79320496D01*
X107349529Y-79328554D01*
X107371153Y-79338782D01*
X107391670Y-79351079D01*
X107410883Y-79365329D01*
X107428607Y-79381393D01*
X107444671Y-79399117D01*
X107458921Y-79418330D01*
X107471218Y-79438847D01*
X107481446Y-79460471D01*
X107489504Y-79482993D01*
X107495316Y-79506197D01*
X107498826Y-79529858D01*
X107500000Y-79553750D01*
X107500000Y-80466250D01*
X107498826Y-80490142D01*
X107495316Y-80513803D01*
X107489504Y-80537007D01*
X107481446Y-80559529D01*
X107471218Y-80581153D01*
X107458921Y-80601670D01*
X107444671Y-80620883D01*
X107428607Y-80638607D01*
X107410883Y-80654671D01*
X107391670Y-80668921D01*
X107371153Y-80681218D01*
X107349529Y-80691446D01*
X107327007Y-80699504D01*
X107303803Y-80705316D01*
X107280142Y-80708826D01*
X107256250Y-80710000D01*
X106768750Y-80710000D01*
X106744858Y-80708826D01*
X106721197Y-80705316D01*
X106697993Y-80699504D01*
X106675471Y-80691446D01*
X106653847Y-80681218D01*
X106633330Y-80668921D01*
X106614117Y-80654671D01*
X106596393Y-80638607D01*
X106580329Y-80620883D01*
X106566079Y-80601670D01*
X106553782Y-80581153D01*
X106543554Y-80559529D01*
X106535496Y-80537007D01*
X106529684Y-80513803D01*
X106526174Y-80490142D01*
X106525000Y-80466250D01*
X106525000Y-79553750D01*
X106526174Y-79529858D01*
X106529684Y-79506197D01*
X106535496Y-79482993D01*
X106543554Y-79460471D01*
X106553782Y-79438847D01*
X106566079Y-79418330D01*
X106580329Y-79399117D01*
X106596393Y-79381393D01*
X106614117Y-79365329D01*
X106633330Y-79351079D01*
X106653847Y-79338782D01*
X106675471Y-79328554D01*
X106697993Y-79320496D01*
X106721197Y-79314684D01*
X106744858Y-79311174D01*
X106768750Y-79310000D01*
X107256250Y-79310000D01*
X107280142Y-79311174D01*
G37*
G36*
X109155142Y-79311174D02*
G01*
X109178803Y-79314684D01*
X109202007Y-79320496D01*
X109224529Y-79328554D01*
X109246153Y-79338782D01*
X109266670Y-79351079D01*
X109285883Y-79365329D01*
X109303607Y-79381393D01*
X109319671Y-79399117D01*
X109333921Y-79418330D01*
X109346218Y-79438847D01*
X109356446Y-79460471D01*
X109364504Y-79482993D01*
X109370316Y-79506197D01*
X109373826Y-79529858D01*
X109375000Y-79553750D01*
X109375000Y-80466250D01*
X109373826Y-80490142D01*
X109370316Y-80513803D01*
X109364504Y-80537007D01*
X109356446Y-80559529D01*
X109346218Y-80581153D01*
X109333921Y-80601670D01*
X109319671Y-80620883D01*
X109303607Y-80638607D01*
X109285883Y-80654671D01*
X109266670Y-80668921D01*
X109246153Y-80681218D01*
X109224529Y-80691446D01*
X109202007Y-80699504D01*
X109178803Y-80705316D01*
X109155142Y-80708826D01*
X109131250Y-80710000D01*
X108643750Y-80710000D01*
X108619858Y-80708826D01*
X108596197Y-80705316D01*
X108572993Y-80699504D01*
X108550471Y-80691446D01*
X108528847Y-80681218D01*
X108508330Y-80668921D01*
X108489117Y-80654671D01*
X108471393Y-80638607D01*
X108455329Y-80620883D01*
X108441079Y-80601670D01*
X108428782Y-80581153D01*
X108418554Y-80559529D01*
X108410496Y-80537007D01*
X108404684Y-80513803D01*
X108401174Y-80490142D01*
X108400000Y-80466250D01*
X108400000Y-79553750D01*
X108401174Y-79529858D01*
X108404684Y-79506197D01*
X108410496Y-79482993D01*
X108418554Y-79460471D01*
X108428782Y-79438847D01*
X108441079Y-79418330D01*
X108455329Y-79399117D01*
X108471393Y-79381393D01*
X108489117Y-79365329D01*
X108508330Y-79351079D01*
X108528847Y-79338782D01*
X108550471Y-79328554D01*
X108572993Y-79320496D01*
X108596197Y-79314684D01*
X108619858Y-79311174D01*
X108643750Y-79310000D01*
X109131250Y-79310000D01*
X109155142Y-79311174D01*
G37*
G36*
X107280142Y-75501174D02*
G01*
X107303803Y-75504684D01*
X107327007Y-75510496D01*
X107349529Y-75518554D01*
X107371153Y-75528782D01*
X107391670Y-75541079D01*
X107410883Y-75555329D01*
X107428607Y-75571393D01*
X107444671Y-75589117D01*
X107458921Y-75608330D01*
X107471218Y-75628847D01*
X107481446Y-75650471D01*
X107489504Y-75672993D01*
X107495316Y-75696197D01*
X107498826Y-75719858D01*
X107500000Y-75743750D01*
X107500000Y-76656250D01*
X107498826Y-76680142D01*
X107495316Y-76703803D01*
X107489504Y-76727007D01*
X107481446Y-76749529D01*
X107471218Y-76771153D01*
X107458921Y-76791670D01*
X107444671Y-76810883D01*
X107428607Y-76828607D01*
X107410883Y-76844671D01*
X107391670Y-76858921D01*
X107371153Y-76871218D01*
X107349529Y-76881446D01*
X107327007Y-76889504D01*
X107303803Y-76895316D01*
X107280142Y-76898826D01*
X107256250Y-76900000D01*
X106768750Y-76900000D01*
X106744858Y-76898826D01*
X106721197Y-76895316D01*
X106697993Y-76889504D01*
X106675471Y-76881446D01*
X106653847Y-76871218D01*
X106633330Y-76858921D01*
X106614117Y-76844671D01*
X106596393Y-76828607D01*
X106580329Y-76810883D01*
X106566079Y-76791670D01*
X106553782Y-76771153D01*
X106543554Y-76749529D01*
X106535496Y-76727007D01*
X106529684Y-76703803D01*
X106526174Y-76680142D01*
X106525000Y-76656250D01*
X106525000Y-75743750D01*
X106526174Y-75719858D01*
X106529684Y-75696197D01*
X106535496Y-75672993D01*
X106543554Y-75650471D01*
X106553782Y-75628847D01*
X106566079Y-75608330D01*
X106580329Y-75589117D01*
X106596393Y-75571393D01*
X106614117Y-75555329D01*
X106633330Y-75541079D01*
X106653847Y-75528782D01*
X106675471Y-75518554D01*
X106697993Y-75510496D01*
X106721197Y-75504684D01*
X106744858Y-75501174D01*
X106768750Y-75500000D01*
X107256250Y-75500000D01*
X107280142Y-75501174D01*
G37*
G36*
X109155142Y-75501174D02*
G01*
X109178803Y-75504684D01*
X109202007Y-75510496D01*
X109224529Y-75518554D01*
X109246153Y-75528782D01*
X109266670Y-75541079D01*
X109285883Y-75555329D01*
X109303607Y-75571393D01*
X109319671Y-75589117D01*
X109333921Y-75608330D01*
X109346218Y-75628847D01*
X109356446Y-75650471D01*
X109364504Y-75672993D01*
X109370316Y-75696197D01*
X109373826Y-75719858D01*
X109375000Y-75743750D01*
X109375000Y-76656250D01*
X109373826Y-76680142D01*
X109370316Y-76703803D01*
X109364504Y-76727007D01*
X109356446Y-76749529D01*
X109346218Y-76771153D01*
X109333921Y-76791670D01*
X109319671Y-76810883D01*
X109303607Y-76828607D01*
X109285883Y-76844671D01*
X109266670Y-76858921D01*
X109246153Y-76871218D01*
X109224529Y-76881446D01*
X109202007Y-76889504D01*
X109178803Y-76895316D01*
X109155142Y-76898826D01*
X109131250Y-76900000D01*
X108643750Y-76900000D01*
X108619858Y-76898826D01*
X108596197Y-76895316D01*
X108572993Y-76889504D01*
X108550471Y-76881446D01*
X108528847Y-76871218D01*
X108508330Y-76858921D01*
X108489117Y-76844671D01*
X108471393Y-76828607D01*
X108455329Y-76810883D01*
X108441079Y-76791670D01*
X108428782Y-76771153D01*
X108418554Y-76749529D01*
X108410496Y-76727007D01*
X108404684Y-76703803D01*
X108401174Y-76680142D01*
X108400000Y-76656250D01*
X108400000Y-75743750D01*
X108401174Y-75719858D01*
X108404684Y-75696197D01*
X108410496Y-75672993D01*
X108418554Y-75650471D01*
X108428782Y-75628847D01*
X108441079Y-75608330D01*
X108455329Y-75589117D01*
X108471393Y-75571393D01*
X108489117Y-75555329D01*
X108508330Y-75541079D01*
X108528847Y-75528782D01*
X108550471Y-75518554D01*
X108572993Y-75510496D01*
X108596197Y-75504684D01*
X108619858Y-75501174D01*
X108643750Y-75500000D01*
X109131250Y-75500000D01*
X109155142Y-75501174D01*
G37*
D17*
X114300000Y-73855000D03*
X114300000Y-82355000D03*
D18*
X125940000Y-98205000D03*
X125940000Y-97555000D03*
X125940000Y-96905000D03*
X125940000Y-96255000D03*
X125940000Y-95605000D03*
X125940000Y-94955000D03*
X125940000Y-94305000D03*
X125940000Y-93655000D03*
X125940000Y-93005000D03*
X125940000Y-92355000D03*
X125940000Y-91705000D03*
X125940000Y-91055000D03*
X125940000Y-90405000D03*
X125940000Y-89755000D03*
X133140000Y-89755000D03*
X133140000Y-90405000D03*
X133140000Y-91055000D03*
X133140000Y-91705000D03*
X133140000Y-92355000D03*
X133140000Y-93005000D03*
X133140000Y-93655000D03*
X133140000Y-94305000D03*
X133140000Y-94955000D03*
X133140000Y-95605000D03*
X133140000Y-96255000D03*
X133140000Y-96905000D03*
X133140000Y-97555000D03*
X133140000Y-98205000D03*
D12*
G36*
X127904703Y-63835722D02*
G01*
X127919264Y-63837882D01*
X127933543Y-63841459D01*
X127947403Y-63846418D01*
X127960710Y-63852712D01*
X127973336Y-63860280D01*
X127985159Y-63869048D01*
X127996066Y-63878934D01*
X128005952Y-63889841D01*
X128014720Y-63901664D01*
X128022288Y-63914290D01*
X128028582Y-63927597D01*
X128033541Y-63941457D01*
X128037118Y-63955736D01*
X128039278Y-63970297D01*
X128040000Y-63985000D01*
X128040000Y-64285000D01*
X128039278Y-64299703D01*
X128037118Y-64314264D01*
X128033541Y-64328543D01*
X128028582Y-64342403D01*
X128022288Y-64355710D01*
X128014720Y-64368336D01*
X128005952Y-64380159D01*
X127996066Y-64391066D01*
X127985159Y-64400952D01*
X127973336Y-64409720D01*
X127960710Y-64417288D01*
X127947403Y-64423582D01*
X127933543Y-64428541D01*
X127919264Y-64432118D01*
X127904703Y-64434278D01*
X127890000Y-64435000D01*
X126240000Y-64435000D01*
X126225297Y-64434278D01*
X126210736Y-64432118D01*
X126196457Y-64428541D01*
X126182597Y-64423582D01*
X126169290Y-64417288D01*
X126156664Y-64409720D01*
X126144841Y-64400952D01*
X126133934Y-64391066D01*
X126124048Y-64380159D01*
X126115280Y-64368336D01*
X126107712Y-64355710D01*
X126101418Y-64342403D01*
X126096459Y-64328543D01*
X126092882Y-64314264D01*
X126090722Y-64299703D01*
X126090000Y-64285000D01*
X126090000Y-63985000D01*
X126090722Y-63970297D01*
X126092882Y-63955736D01*
X126096459Y-63941457D01*
X126101418Y-63927597D01*
X126107712Y-63914290D01*
X126115280Y-63901664D01*
X126124048Y-63889841D01*
X126133934Y-63878934D01*
X126144841Y-63869048D01*
X126156664Y-63860280D01*
X126169290Y-63852712D01*
X126182597Y-63846418D01*
X126196457Y-63841459D01*
X126210736Y-63837882D01*
X126225297Y-63835722D01*
X126240000Y-63835000D01*
X127890000Y-63835000D01*
X127904703Y-63835722D01*
G37*
G36*
X127904703Y-62565722D02*
G01*
X127919264Y-62567882D01*
X127933543Y-62571459D01*
X127947403Y-62576418D01*
X127960710Y-62582712D01*
X127973336Y-62590280D01*
X127985159Y-62599048D01*
X127996066Y-62608934D01*
X128005952Y-62619841D01*
X128014720Y-62631664D01*
X128022288Y-62644290D01*
X128028582Y-62657597D01*
X128033541Y-62671457D01*
X128037118Y-62685736D01*
X128039278Y-62700297D01*
X128040000Y-62715000D01*
X128040000Y-63015000D01*
X128039278Y-63029703D01*
X128037118Y-63044264D01*
X128033541Y-63058543D01*
X128028582Y-63072403D01*
X128022288Y-63085710D01*
X128014720Y-63098336D01*
X128005952Y-63110159D01*
X127996066Y-63121066D01*
X127985159Y-63130952D01*
X127973336Y-63139720D01*
X127960710Y-63147288D01*
X127947403Y-63153582D01*
X127933543Y-63158541D01*
X127919264Y-63162118D01*
X127904703Y-63164278D01*
X127890000Y-63165000D01*
X126240000Y-63165000D01*
X126225297Y-63164278D01*
X126210736Y-63162118D01*
X126196457Y-63158541D01*
X126182597Y-63153582D01*
X126169290Y-63147288D01*
X126156664Y-63139720D01*
X126144841Y-63130952D01*
X126133934Y-63121066D01*
X126124048Y-63110159D01*
X126115280Y-63098336D01*
X126107712Y-63085710D01*
X126101418Y-63072403D01*
X126096459Y-63058543D01*
X126092882Y-63044264D01*
X126090722Y-63029703D01*
X126090000Y-63015000D01*
X126090000Y-62715000D01*
X126090722Y-62700297D01*
X126092882Y-62685736D01*
X126096459Y-62671457D01*
X126101418Y-62657597D01*
X126107712Y-62644290D01*
X126115280Y-62631664D01*
X126124048Y-62619841D01*
X126133934Y-62608934D01*
X126144841Y-62599048D01*
X126156664Y-62590280D01*
X126169290Y-62582712D01*
X126182597Y-62576418D01*
X126196457Y-62571459D01*
X126210736Y-62567882D01*
X126225297Y-62565722D01*
X126240000Y-62565000D01*
X127890000Y-62565000D01*
X127904703Y-62565722D01*
G37*
G36*
X127904703Y-61295722D02*
G01*
X127919264Y-61297882D01*
X127933543Y-61301459D01*
X127947403Y-61306418D01*
X127960710Y-61312712D01*
X127973336Y-61320280D01*
X127985159Y-61329048D01*
X127996066Y-61338934D01*
X128005952Y-61349841D01*
X128014720Y-61361664D01*
X128022288Y-61374290D01*
X128028582Y-61387597D01*
X128033541Y-61401457D01*
X128037118Y-61415736D01*
X128039278Y-61430297D01*
X128040000Y-61445000D01*
X128040000Y-61745000D01*
X128039278Y-61759703D01*
X128037118Y-61774264D01*
X128033541Y-61788543D01*
X128028582Y-61802403D01*
X128022288Y-61815710D01*
X128014720Y-61828336D01*
X128005952Y-61840159D01*
X127996066Y-61851066D01*
X127985159Y-61860952D01*
X127973336Y-61869720D01*
X127960710Y-61877288D01*
X127947403Y-61883582D01*
X127933543Y-61888541D01*
X127919264Y-61892118D01*
X127904703Y-61894278D01*
X127890000Y-61895000D01*
X126240000Y-61895000D01*
X126225297Y-61894278D01*
X126210736Y-61892118D01*
X126196457Y-61888541D01*
X126182597Y-61883582D01*
X126169290Y-61877288D01*
X126156664Y-61869720D01*
X126144841Y-61860952D01*
X126133934Y-61851066D01*
X126124048Y-61840159D01*
X126115280Y-61828336D01*
X126107712Y-61815710D01*
X126101418Y-61802403D01*
X126096459Y-61788543D01*
X126092882Y-61774264D01*
X126090722Y-61759703D01*
X126090000Y-61745000D01*
X126090000Y-61445000D01*
X126090722Y-61430297D01*
X126092882Y-61415736D01*
X126096459Y-61401457D01*
X126101418Y-61387597D01*
X126107712Y-61374290D01*
X126115280Y-61361664D01*
X126124048Y-61349841D01*
X126133934Y-61338934D01*
X126144841Y-61329048D01*
X126156664Y-61320280D01*
X126169290Y-61312712D01*
X126182597Y-61306418D01*
X126196457Y-61301459D01*
X126210736Y-61297882D01*
X126225297Y-61295722D01*
X126240000Y-61295000D01*
X127890000Y-61295000D01*
X127904703Y-61295722D01*
G37*
G36*
X127904703Y-60025722D02*
G01*
X127919264Y-60027882D01*
X127933543Y-60031459D01*
X127947403Y-60036418D01*
X127960710Y-60042712D01*
X127973336Y-60050280D01*
X127985159Y-60059048D01*
X127996066Y-60068934D01*
X128005952Y-60079841D01*
X128014720Y-60091664D01*
X128022288Y-60104290D01*
X128028582Y-60117597D01*
X128033541Y-60131457D01*
X128037118Y-60145736D01*
X128039278Y-60160297D01*
X128040000Y-60175000D01*
X128040000Y-60475000D01*
X128039278Y-60489703D01*
X128037118Y-60504264D01*
X128033541Y-60518543D01*
X128028582Y-60532403D01*
X128022288Y-60545710D01*
X128014720Y-60558336D01*
X128005952Y-60570159D01*
X127996066Y-60581066D01*
X127985159Y-60590952D01*
X127973336Y-60599720D01*
X127960710Y-60607288D01*
X127947403Y-60613582D01*
X127933543Y-60618541D01*
X127919264Y-60622118D01*
X127904703Y-60624278D01*
X127890000Y-60625000D01*
X126240000Y-60625000D01*
X126225297Y-60624278D01*
X126210736Y-60622118D01*
X126196457Y-60618541D01*
X126182597Y-60613582D01*
X126169290Y-60607288D01*
X126156664Y-60599720D01*
X126144841Y-60590952D01*
X126133934Y-60581066D01*
X126124048Y-60570159D01*
X126115280Y-60558336D01*
X126107712Y-60545710D01*
X126101418Y-60532403D01*
X126096459Y-60518543D01*
X126092882Y-60504264D01*
X126090722Y-60489703D01*
X126090000Y-60475000D01*
X126090000Y-60175000D01*
X126090722Y-60160297D01*
X126092882Y-60145736D01*
X126096459Y-60131457D01*
X126101418Y-60117597D01*
X126107712Y-60104290D01*
X126115280Y-60091664D01*
X126124048Y-60079841D01*
X126133934Y-60068934D01*
X126144841Y-60059048D01*
X126156664Y-60050280D01*
X126169290Y-60042712D01*
X126182597Y-60036418D01*
X126196457Y-60031459D01*
X126210736Y-60027882D01*
X126225297Y-60025722D01*
X126240000Y-60025000D01*
X127890000Y-60025000D01*
X127904703Y-60025722D01*
G37*
G36*
X127904703Y-58755722D02*
G01*
X127919264Y-58757882D01*
X127933543Y-58761459D01*
X127947403Y-58766418D01*
X127960710Y-58772712D01*
X127973336Y-58780280D01*
X127985159Y-58789048D01*
X127996066Y-58798934D01*
X128005952Y-58809841D01*
X128014720Y-58821664D01*
X128022288Y-58834290D01*
X128028582Y-58847597D01*
X128033541Y-58861457D01*
X128037118Y-58875736D01*
X128039278Y-58890297D01*
X128040000Y-58905000D01*
X128040000Y-59205000D01*
X128039278Y-59219703D01*
X128037118Y-59234264D01*
X128033541Y-59248543D01*
X128028582Y-59262403D01*
X128022288Y-59275710D01*
X128014720Y-59288336D01*
X128005952Y-59300159D01*
X127996066Y-59311066D01*
X127985159Y-59320952D01*
X127973336Y-59329720D01*
X127960710Y-59337288D01*
X127947403Y-59343582D01*
X127933543Y-59348541D01*
X127919264Y-59352118D01*
X127904703Y-59354278D01*
X127890000Y-59355000D01*
X126240000Y-59355000D01*
X126225297Y-59354278D01*
X126210736Y-59352118D01*
X126196457Y-59348541D01*
X126182597Y-59343582D01*
X126169290Y-59337288D01*
X126156664Y-59329720D01*
X126144841Y-59320952D01*
X126133934Y-59311066D01*
X126124048Y-59300159D01*
X126115280Y-59288336D01*
X126107712Y-59275710D01*
X126101418Y-59262403D01*
X126096459Y-59248543D01*
X126092882Y-59234264D01*
X126090722Y-59219703D01*
X126090000Y-59205000D01*
X126090000Y-58905000D01*
X126090722Y-58890297D01*
X126092882Y-58875736D01*
X126096459Y-58861457D01*
X126101418Y-58847597D01*
X126107712Y-58834290D01*
X126115280Y-58821664D01*
X126124048Y-58809841D01*
X126133934Y-58798934D01*
X126144841Y-58789048D01*
X126156664Y-58780280D01*
X126169290Y-58772712D01*
X126182597Y-58766418D01*
X126196457Y-58761459D01*
X126210736Y-58757882D01*
X126225297Y-58755722D01*
X126240000Y-58755000D01*
X127890000Y-58755000D01*
X127904703Y-58755722D01*
G37*
G36*
X127904703Y-57485722D02*
G01*
X127919264Y-57487882D01*
X127933543Y-57491459D01*
X127947403Y-57496418D01*
X127960710Y-57502712D01*
X127973336Y-57510280D01*
X127985159Y-57519048D01*
X127996066Y-57528934D01*
X128005952Y-57539841D01*
X128014720Y-57551664D01*
X128022288Y-57564290D01*
X128028582Y-57577597D01*
X128033541Y-57591457D01*
X128037118Y-57605736D01*
X128039278Y-57620297D01*
X128040000Y-57635000D01*
X128040000Y-57935000D01*
X128039278Y-57949703D01*
X128037118Y-57964264D01*
X128033541Y-57978543D01*
X128028582Y-57992403D01*
X128022288Y-58005710D01*
X128014720Y-58018336D01*
X128005952Y-58030159D01*
X127996066Y-58041066D01*
X127985159Y-58050952D01*
X127973336Y-58059720D01*
X127960710Y-58067288D01*
X127947403Y-58073582D01*
X127933543Y-58078541D01*
X127919264Y-58082118D01*
X127904703Y-58084278D01*
X127890000Y-58085000D01*
X126240000Y-58085000D01*
X126225297Y-58084278D01*
X126210736Y-58082118D01*
X126196457Y-58078541D01*
X126182597Y-58073582D01*
X126169290Y-58067288D01*
X126156664Y-58059720D01*
X126144841Y-58050952D01*
X126133934Y-58041066D01*
X126124048Y-58030159D01*
X126115280Y-58018336D01*
X126107712Y-58005710D01*
X126101418Y-57992403D01*
X126096459Y-57978543D01*
X126092882Y-57964264D01*
X126090722Y-57949703D01*
X126090000Y-57935000D01*
X126090000Y-57635000D01*
X126090722Y-57620297D01*
X126092882Y-57605736D01*
X126096459Y-57591457D01*
X126101418Y-57577597D01*
X126107712Y-57564290D01*
X126115280Y-57551664D01*
X126124048Y-57539841D01*
X126133934Y-57528934D01*
X126144841Y-57519048D01*
X126156664Y-57510280D01*
X126169290Y-57502712D01*
X126182597Y-57496418D01*
X126196457Y-57491459D01*
X126210736Y-57487882D01*
X126225297Y-57485722D01*
X126240000Y-57485000D01*
X127890000Y-57485000D01*
X127904703Y-57485722D01*
G37*
G36*
X127904703Y-56215722D02*
G01*
X127919264Y-56217882D01*
X127933543Y-56221459D01*
X127947403Y-56226418D01*
X127960710Y-56232712D01*
X127973336Y-56240280D01*
X127985159Y-56249048D01*
X127996066Y-56258934D01*
X128005952Y-56269841D01*
X128014720Y-56281664D01*
X128022288Y-56294290D01*
X128028582Y-56307597D01*
X128033541Y-56321457D01*
X128037118Y-56335736D01*
X128039278Y-56350297D01*
X128040000Y-56365000D01*
X128040000Y-56665000D01*
X128039278Y-56679703D01*
X128037118Y-56694264D01*
X128033541Y-56708543D01*
X128028582Y-56722403D01*
X128022288Y-56735710D01*
X128014720Y-56748336D01*
X128005952Y-56760159D01*
X127996066Y-56771066D01*
X127985159Y-56780952D01*
X127973336Y-56789720D01*
X127960710Y-56797288D01*
X127947403Y-56803582D01*
X127933543Y-56808541D01*
X127919264Y-56812118D01*
X127904703Y-56814278D01*
X127890000Y-56815000D01*
X126240000Y-56815000D01*
X126225297Y-56814278D01*
X126210736Y-56812118D01*
X126196457Y-56808541D01*
X126182597Y-56803582D01*
X126169290Y-56797288D01*
X126156664Y-56789720D01*
X126144841Y-56780952D01*
X126133934Y-56771066D01*
X126124048Y-56760159D01*
X126115280Y-56748336D01*
X126107712Y-56735710D01*
X126101418Y-56722403D01*
X126096459Y-56708543D01*
X126092882Y-56694264D01*
X126090722Y-56679703D01*
X126090000Y-56665000D01*
X126090000Y-56365000D01*
X126090722Y-56350297D01*
X126092882Y-56335736D01*
X126096459Y-56321457D01*
X126101418Y-56307597D01*
X126107712Y-56294290D01*
X126115280Y-56281664D01*
X126124048Y-56269841D01*
X126133934Y-56258934D01*
X126144841Y-56249048D01*
X126156664Y-56240280D01*
X126169290Y-56232712D01*
X126182597Y-56226418D01*
X126196457Y-56221459D01*
X126210736Y-56217882D01*
X126225297Y-56215722D01*
X126240000Y-56215000D01*
X127890000Y-56215000D01*
X127904703Y-56215722D01*
G37*
G36*
X127904703Y-54945722D02*
G01*
X127919264Y-54947882D01*
X127933543Y-54951459D01*
X127947403Y-54956418D01*
X127960710Y-54962712D01*
X127973336Y-54970280D01*
X127985159Y-54979048D01*
X127996066Y-54988934D01*
X128005952Y-54999841D01*
X128014720Y-55011664D01*
X128022288Y-55024290D01*
X128028582Y-55037597D01*
X128033541Y-55051457D01*
X128037118Y-55065736D01*
X128039278Y-55080297D01*
X128040000Y-55095000D01*
X128040000Y-55395000D01*
X128039278Y-55409703D01*
X128037118Y-55424264D01*
X128033541Y-55438543D01*
X128028582Y-55452403D01*
X128022288Y-55465710D01*
X128014720Y-55478336D01*
X128005952Y-55490159D01*
X127996066Y-55501066D01*
X127985159Y-55510952D01*
X127973336Y-55519720D01*
X127960710Y-55527288D01*
X127947403Y-55533582D01*
X127933543Y-55538541D01*
X127919264Y-55542118D01*
X127904703Y-55544278D01*
X127890000Y-55545000D01*
X126240000Y-55545000D01*
X126225297Y-55544278D01*
X126210736Y-55542118D01*
X126196457Y-55538541D01*
X126182597Y-55533582D01*
X126169290Y-55527288D01*
X126156664Y-55519720D01*
X126144841Y-55510952D01*
X126133934Y-55501066D01*
X126124048Y-55490159D01*
X126115280Y-55478336D01*
X126107712Y-55465710D01*
X126101418Y-55452403D01*
X126096459Y-55438543D01*
X126092882Y-55424264D01*
X126090722Y-55409703D01*
X126090000Y-55395000D01*
X126090000Y-55095000D01*
X126090722Y-55080297D01*
X126092882Y-55065736D01*
X126096459Y-55051457D01*
X126101418Y-55037597D01*
X126107712Y-55024290D01*
X126115280Y-55011664D01*
X126124048Y-54999841D01*
X126133934Y-54988934D01*
X126144841Y-54979048D01*
X126156664Y-54970280D01*
X126169290Y-54962712D01*
X126182597Y-54956418D01*
X126196457Y-54951459D01*
X126210736Y-54947882D01*
X126225297Y-54945722D01*
X126240000Y-54945000D01*
X127890000Y-54945000D01*
X127904703Y-54945722D01*
G37*
G36*
X132854703Y-54945722D02*
G01*
X132869264Y-54947882D01*
X132883543Y-54951459D01*
X132897403Y-54956418D01*
X132910710Y-54962712D01*
X132923336Y-54970280D01*
X132935159Y-54979048D01*
X132946066Y-54988934D01*
X132955952Y-54999841D01*
X132964720Y-55011664D01*
X132972288Y-55024290D01*
X132978582Y-55037597D01*
X132983541Y-55051457D01*
X132987118Y-55065736D01*
X132989278Y-55080297D01*
X132990000Y-55095000D01*
X132990000Y-55395000D01*
X132989278Y-55409703D01*
X132987118Y-55424264D01*
X132983541Y-55438543D01*
X132978582Y-55452403D01*
X132972288Y-55465710D01*
X132964720Y-55478336D01*
X132955952Y-55490159D01*
X132946066Y-55501066D01*
X132935159Y-55510952D01*
X132923336Y-55519720D01*
X132910710Y-55527288D01*
X132897403Y-55533582D01*
X132883543Y-55538541D01*
X132869264Y-55542118D01*
X132854703Y-55544278D01*
X132840000Y-55545000D01*
X131190000Y-55545000D01*
X131175297Y-55544278D01*
X131160736Y-55542118D01*
X131146457Y-55538541D01*
X131132597Y-55533582D01*
X131119290Y-55527288D01*
X131106664Y-55519720D01*
X131094841Y-55510952D01*
X131083934Y-55501066D01*
X131074048Y-55490159D01*
X131065280Y-55478336D01*
X131057712Y-55465710D01*
X131051418Y-55452403D01*
X131046459Y-55438543D01*
X131042882Y-55424264D01*
X131040722Y-55409703D01*
X131040000Y-55395000D01*
X131040000Y-55095000D01*
X131040722Y-55080297D01*
X131042882Y-55065736D01*
X131046459Y-55051457D01*
X131051418Y-55037597D01*
X131057712Y-55024290D01*
X131065280Y-55011664D01*
X131074048Y-54999841D01*
X131083934Y-54988934D01*
X131094841Y-54979048D01*
X131106664Y-54970280D01*
X131119290Y-54962712D01*
X131132597Y-54956418D01*
X131146457Y-54951459D01*
X131160736Y-54947882D01*
X131175297Y-54945722D01*
X131190000Y-54945000D01*
X132840000Y-54945000D01*
X132854703Y-54945722D01*
G37*
G36*
X132854703Y-56215722D02*
G01*
X132869264Y-56217882D01*
X132883543Y-56221459D01*
X132897403Y-56226418D01*
X132910710Y-56232712D01*
X132923336Y-56240280D01*
X132935159Y-56249048D01*
X132946066Y-56258934D01*
X132955952Y-56269841D01*
X132964720Y-56281664D01*
X132972288Y-56294290D01*
X132978582Y-56307597D01*
X132983541Y-56321457D01*
X132987118Y-56335736D01*
X132989278Y-56350297D01*
X132990000Y-56365000D01*
X132990000Y-56665000D01*
X132989278Y-56679703D01*
X132987118Y-56694264D01*
X132983541Y-56708543D01*
X132978582Y-56722403D01*
X132972288Y-56735710D01*
X132964720Y-56748336D01*
X132955952Y-56760159D01*
X132946066Y-56771066D01*
X132935159Y-56780952D01*
X132923336Y-56789720D01*
X132910710Y-56797288D01*
X132897403Y-56803582D01*
X132883543Y-56808541D01*
X132869264Y-56812118D01*
X132854703Y-56814278D01*
X132840000Y-56815000D01*
X131190000Y-56815000D01*
X131175297Y-56814278D01*
X131160736Y-56812118D01*
X131146457Y-56808541D01*
X131132597Y-56803582D01*
X131119290Y-56797288D01*
X131106664Y-56789720D01*
X131094841Y-56780952D01*
X131083934Y-56771066D01*
X131074048Y-56760159D01*
X131065280Y-56748336D01*
X131057712Y-56735710D01*
X131051418Y-56722403D01*
X131046459Y-56708543D01*
X131042882Y-56694264D01*
X131040722Y-56679703D01*
X131040000Y-56665000D01*
X131040000Y-56365000D01*
X131040722Y-56350297D01*
X131042882Y-56335736D01*
X131046459Y-56321457D01*
X131051418Y-56307597D01*
X131057712Y-56294290D01*
X131065280Y-56281664D01*
X131074048Y-56269841D01*
X131083934Y-56258934D01*
X131094841Y-56249048D01*
X131106664Y-56240280D01*
X131119290Y-56232712D01*
X131132597Y-56226418D01*
X131146457Y-56221459D01*
X131160736Y-56217882D01*
X131175297Y-56215722D01*
X131190000Y-56215000D01*
X132840000Y-56215000D01*
X132854703Y-56215722D01*
G37*
G36*
X132854703Y-57485722D02*
G01*
X132869264Y-57487882D01*
X132883543Y-57491459D01*
X132897403Y-57496418D01*
X132910710Y-57502712D01*
X132923336Y-57510280D01*
X132935159Y-57519048D01*
X132946066Y-57528934D01*
X132955952Y-57539841D01*
X132964720Y-57551664D01*
X132972288Y-57564290D01*
X132978582Y-57577597D01*
X132983541Y-57591457D01*
X132987118Y-57605736D01*
X132989278Y-57620297D01*
X132990000Y-57635000D01*
X132990000Y-57935000D01*
X132989278Y-57949703D01*
X132987118Y-57964264D01*
X132983541Y-57978543D01*
X132978582Y-57992403D01*
X132972288Y-58005710D01*
X132964720Y-58018336D01*
X132955952Y-58030159D01*
X132946066Y-58041066D01*
X132935159Y-58050952D01*
X132923336Y-58059720D01*
X132910710Y-58067288D01*
X132897403Y-58073582D01*
X132883543Y-58078541D01*
X132869264Y-58082118D01*
X132854703Y-58084278D01*
X132840000Y-58085000D01*
X131190000Y-58085000D01*
X131175297Y-58084278D01*
X131160736Y-58082118D01*
X131146457Y-58078541D01*
X131132597Y-58073582D01*
X131119290Y-58067288D01*
X131106664Y-58059720D01*
X131094841Y-58050952D01*
X131083934Y-58041066D01*
X131074048Y-58030159D01*
X131065280Y-58018336D01*
X131057712Y-58005710D01*
X131051418Y-57992403D01*
X131046459Y-57978543D01*
X131042882Y-57964264D01*
X131040722Y-57949703D01*
X131040000Y-57935000D01*
X131040000Y-57635000D01*
X131040722Y-57620297D01*
X131042882Y-57605736D01*
X131046459Y-57591457D01*
X131051418Y-57577597D01*
X131057712Y-57564290D01*
X131065280Y-57551664D01*
X131074048Y-57539841D01*
X131083934Y-57528934D01*
X131094841Y-57519048D01*
X131106664Y-57510280D01*
X131119290Y-57502712D01*
X131132597Y-57496418D01*
X131146457Y-57491459D01*
X131160736Y-57487882D01*
X131175297Y-57485722D01*
X131190000Y-57485000D01*
X132840000Y-57485000D01*
X132854703Y-57485722D01*
G37*
G36*
X132854703Y-58755722D02*
G01*
X132869264Y-58757882D01*
X132883543Y-58761459D01*
X132897403Y-58766418D01*
X132910710Y-58772712D01*
X132923336Y-58780280D01*
X132935159Y-58789048D01*
X132946066Y-58798934D01*
X132955952Y-58809841D01*
X132964720Y-58821664D01*
X132972288Y-58834290D01*
X132978582Y-58847597D01*
X132983541Y-58861457D01*
X132987118Y-58875736D01*
X132989278Y-58890297D01*
X132990000Y-58905000D01*
X132990000Y-59205000D01*
X132989278Y-59219703D01*
X132987118Y-59234264D01*
X132983541Y-59248543D01*
X132978582Y-59262403D01*
X132972288Y-59275710D01*
X132964720Y-59288336D01*
X132955952Y-59300159D01*
X132946066Y-59311066D01*
X132935159Y-59320952D01*
X132923336Y-59329720D01*
X132910710Y-59337288D01*
X132897403Y-59343582D01*
X132883543Y-59348541D01*
X132869264Y-59352118D01*
X132854703Y-59354278D01*
X132840000Y-59355000D01*
X131190000Y-59355000D01*
X131175297Y-59354278D01*
X131160736Y-59352118D01*
X131146457Y-59348541D01*
X131132597Y-59343582D01*
X131119290Y-59337288D01*
X131106664Y-59329720D01*
X131094841Y-59320952D01*
X131083934Y-59311066D01*
X131074048Y-59300159D01*
X131065280Y-59288336D01*
X131057712Y-59275710D01*
X131051418Y-59262403D01*
X131046459Y-59248543D01*
X131042882Y-59234264D01*
X131040722Y-59219703D01*
X131040000Y-59205000D01*
X131040000Y-58905000D01*
X131040722Y-58890297D01*
X131042882Y-58875736D01*
X131046459Y-58861457D01*
X131051418Y-58847597D01*
X131057712Y-58834290D01*
X131065280Y-58821664D01*
X131074048Y-58809841D01*
X131083934Y-58798934D01*
X131094841Y-58789048D01*
X131106664Y-58780280D01*
X131119290Y-58772712D01*
X131132597Y-58766418D01*
X131146457Y-58761459D01*
X131160736Y-58757882D01*
X131175297Y-58755722D01*
X131190000Y-58755000D01*
X132840000Y-58755000D01*
X132854703Y-58755722D01*
G37*
G36*
X132854703Y-60025722D02*
G01*
X132869264Y-60027882D01*
X132883543Y-60031459D01*
X132897403Y-60036418D01*
X132910710Y-60042712D01*
X132923336Y-60050280D01*
X132935159Y-60059048D01*
X132946066Y-60068934D01*
X132955952Y-60079841D01*
X132964720Y-60091664D01*
X132972288Y-60104290D01*
X132978582Y-60117597D01*
X132983541Y-60131457D01*
X132987118Y-60145736D01*
X132989278Y-60160297D01*
X132990000Y-60175000D01*
X132990000Y-60475000D01*
X132989278Y-60489703D01*
X132987118Y-60504264D01*
X132983541Y-60518543D01*
X132978582Y-60532403D01*
X132972288Y-60545710D01*
X132964720Y-60558336D01*
X132955952Y-60570159D01*
X132946066Y-60581066D01*
X132935159Y-60590952D01*
X132923336Y-60599720D01*
X132910710Y-60607288D01*
X132897403Y-60613582D01*
X132883543Y-60618541D01*
X132869264Y-60622118D01*
X132854703Y-60624278D01*
X132840000Y-60625000D01*
X131190000Y-60625000D01*
X131175297Y-60624278D01*
X131160736Y-60622118D01*
X131146457Y-60618541D01*
X131132597Y-60613582D01*
X131119290Y-60607288D01*
X131106664Y-60599720D01*
X131094841Y-60590952D01*
X131083934Y-60581066D01*
X131074048Y-60570159D01*
X131065280Y-60558336D01*
X131057712Y-60545710D01*
X131051418Y-60532403D01*
X131046459Y-60518543D01*
X131042882Y-60504264D01*
X131040722Y-60489703D01*
X131040000Y-60475000D01*
X131040000Y-60175000D01*
X131040722Y-60160297D01*
X131042882Y-60145736D01*
X131046459Y-60131457D01*
X131051418Y-60117597D01*
X131057712Y-60104290D01*
X131065280Y-60091664D01*
X131074048Y-60079841D01*
X131083934Y-60068934D01*
X131094841Y-60059048D01*
X131106664Y-60050280D01*
X131119290Y-60042712D01*
X131132597Y-60036418D01*
X131146457Y-60031459D01*
X131160736Y-60027882D01*
X131175297Y-60025722D01*
X131190000Y-60025000D01*
X132840000Y-60025000D01*
X132854703Y-60025722D01*
G37*
G36*
X132854703Y-61295722D02*
G01*
X132869264Y-61297882D01*
X132883543Y-61301459D01*
X132897403Y-61306418D01*
X132910710Y-61312712D01*
X132923336Y-61320280D01*
X132935159Y-61329048D01*
X132946066Y-61338934D01*
X132955952Y-61349841D01*
X132964720Y-61361664D01*
X132972288Y-61374290D01*
X132978582Y-61387597D01*
X132983541Y-61401457D01*
X132987118Y-61415736D01*
X132989278Y-61430297D01*
X132990000Y-61445000D01*
X132990000Y-61745000D01*
X132989278Y-61759703D01*
X132987118Y-61774264D01*
X132983541Y-61788543D01*
X132978582Y-61802403D01*
X132972288Y-61815710D01*
X132964720Y-61828336D01*
X132955952Y-61840159D01*
X132946066Y-61851066D01*
X132935159Y-61860952D01*
X132923336Y-61869720D01*
X132910710Y-61877288D01*
X132897403Y-61883582D01*
X132883543Y-61888541D01*
X132869264Y-61892118D01*
X132854703Y-61894278D01*
X132840000Y-61895000D01*
X131190000Y-61895000D01*
X131175297Y-61894278D01*
X131160736Y-61892118D01*
X131146457Y-61888541D01*
X131132597Y-61883582D01*
X131119290Y-61877288D01*
X131106664Y-61869720D01*
X131094841Y-61860952D01*
X131083934Y-61851066D01*
X131074048Y-61840159D01*
X131065280Y-61828336D01*
X131057712Y-61815710D01*
X131051418Y-61802403D01*
X131046459Y-61788543D01*
X131042882Y-61774264D01*
X131040722Y-61759703D01*
X131040000Y-61745000D01*
X131040000Y-61445000D01*
X131040722Y-61430297D01*
X131042882Y-61415736D01*
X131046459Y-61401457D01*
X131051418Y-61387597D01*
X131057712Y-61374290D01*
X131065280Y-61361664D01*
X131074048Y-61349841D01*
X131083934Y-61338934D01*
X131094841Y-61329048D01*
X131106664Y-61320280D01*
X131119290Y-61312712D01*
X131132597Y-61306418D01*
X131146457Y-61301459D01*
X131160736Y-61297882D01*
X131175297Y-61295722D01*
X131190000Y-61295000D01*
X132840000Y-61295000D01*
X132854703Y-61295722D01*
G37*
G36*
X132854703Y-62565722D02*
G01*
X132869264Y-62567882D01*
X132883543Y-62571459D01*
X132897403Y-62576418D01*
X132910710Y-62582712D01*
X132923336Y-62590280D01*
X132935159Y-62599048D01*
X132946066Y-62608934D01*
X132955952Y-62619841D01*
X132964720Y-62631664D01*
X132972288Y-62644290D01*
X132978582Y-62657597D01*
X132983541Y-62671457D01*
X132987118Y-62685736D01*
X132989278Y-62700297D01*
X132990000Y-62715000D01*
X132990000Y-63015000D01*
X132989278Y-63029703D01*
X132987118Y-63044264D01*
X132983541Y-63058543D01*
X132978582Y-63072403D01*
X132972288Y-63085710D01*
X132964720Y-63098336D01*
X132955952Y-63110159D01*
X132946066Y-63121066D01*
X132935159Y-63130952D01*
X132923336Y-63139720D01*
X132910710Y-63147288D01*
X132897403Y-63153582D01*
X132883543Y-63158541D01*
X132869264Y-63162118D01*
X132854703Y-63164278D01*
X132840000Y-63165000D01*
X131190000Y-63165000D01*
X131175297Y-63164278D01*
X131160736Y-63162118D01*
X131146457Y-63158541D01*
X131132597Y-63153582D01*
X131119290Y-63147288D01*
X131106664Y-63139720D01*
X131094841Y-63130952D01*
X131083934Y-63121066D01*
X131074048Y-63110159D01*
X131065280Y-63098336D01*
X131057712Y-63085710D01*
X131051418Y-63072403D01*
X131046459Y-63058543D01*
X131042882Y-63044264D01*
X131040722Y-63029703D01*
X131040000Y-63015000D01*
X131040000Y-62715000D01*
X131040722Y-62700297D01*
X131042882Y-62685736D01*
X131046459Y-62671457D01*
X131051418Y-62657597D01*
X131057712Y-62644290D01*
X131065280Y-62631664D01*
X131074048Y-62619841D01*
X131083934Y-62608934D01*
X131094841Y-62599048D01*
X131106664Y-62590280D01*
X131119290Y-62582712D01*
X131132597Y-62576418D01*
X131146457Y-62571459D01*
X131160736Y-62567882D01*
X131175297Y-62565722D01*
X131190000Y-62565000D01*
X132840000Y-62565000D01*
X132854703Y-62565722D01*
G37*
G36*
X132854703Y-63835722D02*
G01*
X132869264Y-63837882D01*
X132883543Y-63841459D01*
X132897403Y-63846418D01*
X132910710Y-63852712D01*
X132923336Y-63860280D01*
X132935159Y-63869048D01*
X132946066Y-63878934D01*
X132955952Y-63889841D01*
X132964720Y-63901664D01*
X132972288Y-63914290D01*
X132978582Y-63927597D01*
X132983541Y-63941457D01*
X132987118Y-63955736D01*
X132989278Y-63970297D01*
X132990000Y-63985000D01*
X132990000Y-64285000D01*
X132989278Y-64299703D01*
X132987118Y-64314264D01*
X132983541Y-64328543D01*
X132978582Y-64342403D01*
X132972288Y-64355710D01*
X132964720Y-64368336D01*
X132955952Y-64380159D01*
X132946066Y-64391066D01*
X132935159Y-64400952D01*
X132923336Y-64409720D01*
X132910710Y-64417288D01*
X132897403Y-64423582D01*
X132883543Y-64428541D01*
X132869264Y-64432118D01*
X132854703Y-64434278D01*
X132840000Y-64435000D01*
X131190000Y-64435000D01*
X131175297Y-64434278D01*
X131160736Y-64432118D01*
X131146457Y-64428541D01*
X131132597Y-64423582D01*
X131119290Y-64417288D01*
X131106664Y-64409720D01*
X131094841Y-64400952D01*
X131083934Y-64391066D01*
X131074048Y-64380159D01*
X131065280Y-64368336D01*
X131057712Y-64355710D01*
X131051418Y-64342403D01*
X131046459Y-64328543D01*
X131042882Y-64314264D01*
X131040722Y-64299703D01*
X131040000Y-64285000D01*
X131040000Y-63985000D01*
X131040722Y-63970297D01*
X131042882Y-63955736D01*
X131046459Y-63941457D01*
X131051418Y-63927597D01*
X131057712Y-63914290D01*
X131065280Y-63901664D01*
X131074048Y-63889841D01*
X131083934Y-63878934D01*
X131094841Y-63869048D01*
X131106664Y-63860280D01*
X131119290Y-63852712D01*
X131132597Y-63846418D01*
X131146457Y-63841459D01*
X131160736Y-63837882D01*
X131175297Y-63835722D01*
X131190000Y-63835000D01*
X132840000Y-63835000D01*
X132854703Y-63835722D01*
G37*
G36*
X122490142Y-90741174D02*
G01*
X122513803Y-90744684D01*
X122537007Y-90750496D01*
X122559529Y-90758554D01*
X122581153Y-90768782D01*
X122601670Y-90781079D01*
X122620883Y-90795329D01*
X122638607Y-90811393D01*
X122654671Y-90829117D01*
X122668921Y-90848330D01*
X122681218Y-90868847D01*
X122691446Y-90890471D01*
X122699504Y-90912993D01*
X122705316Y-90936197D01*
X122708826Y-90959858D01*
X122710000Y-90983750D01*
X122710000Y-91896250D01*
X122708826Y-91920142D01*
X122705316Y-91943803D01*
X122699504Y-91967007D01*
X122691446Y-91989529D01*
X122681218Y-92011153D01*
X122668921Y-92031670D01*
X122654671Y-92050883D01*
X122638607Y-92068607D01*
X122620883Y-92084671D01*
X122601670Y-92098921D01*
X122581153Y-92111218D01*
X122559529Y-92121446D01*
X122537007Y-92129504D01*
X122513803Y-92135316D01*
X122490142Y-92138826D01*
X122466250Y-92140000D01*
X121978750Y-92140000D01*
X121954858Y-92138826D01*
X121931197Y-92135316D01*
X121907993Y-92129504D01*
X121885471Y-92121446D01*
X121863847Y-92111218D01*
X121843330Y-92098921D01*
X121824117Y-92084671D01*
X121806393Y-92068607D01*
X121790329Y-92050883D01*
X121776079Y-92031670D01*
X121763782Y-92011153D01*
X121753554Y-91989529D01*
X121745496Y-91967007D01*
X121739684Y-91943803D01*
X121736174Y-91920142D01*
X121735000Y-91896250D01*
X121735000Y-90983750D01*
X121736174Y-90959858D01*
X121739684Y-90936197D01*
X121745496Y-90912993D01*
X121753554Y-90890471D01*
X121763782Y-90868847D01*
X121776079Y-90848330D01*
X121790329Y-90829117D01*
X121806393Y-90811393D01*
X121824117Y-90795329D01*
X121843330Y-90781079D01*
X121863847Y-90768782D01*
X121885471Y-90758554D01*
X121907993Y-90750496D01*
X121931197Y-90744684D01*
X121954858Y-90741174D01*
X121978750Y-90740000D01*
X122466250Y-90740000D01*
X122490142Y-90741174D01*
G37*
G36*
X120615142Y-90741174D02*
G01*
X120638803Y-90744684D01*
X120662007Y-90750496D01*
X120684529Y-90758554D01*
X120706153Y-90768782D01*
X120726670Y-90781079D01*
X120745883Y-90795329D01*
X120763607Y-90811393D01*
X120779671Y-90829117D01*
X120793921Y-90848330D01*
X120806218Y-90868847D01*
X120816446Y-90890471D01*
X120824504Y-90912993D01*
X120830316Y-90936197D01*
X120833826Y-90959858D01*
X120835000Y-90983750D01*
X120835000Y-91896250D01*
X120833826Y-91920142D01*
X120830316Y-91943803D01*
X120824504Y-91967007D01*
X120816446Y-91989529D01*
X120806218Y-92011153D01*
X120793921Y-92031670D01*
X120779671Y-92050883D01*
X120763607Y-92068607D01*
X120745883Y-92084671D01*
X120726670Y-92098921D01*
X120706153Y-92111218D01*
X120684529Y-92121446D01*
X120662007Y-92129504D01*
X120638803Y-92135316D01*
X120615142Y-92138826D01*
X120591250Y-92140000D01*
X120103750Y-92140000D01*
X120079858Y-92138826D01*
X120056197Y-92135316D01*
X120032993Y-92129504D01*
X120010471Y-92121446D01*
X119988847Y-92111218D01*
X119968330Y-92098921D01*
X119949117Y-92084671D01*
X119931393Y-92068607D01*
X119915329Y-92050883D01*
X119901079Y-92031670D01*
X119888782Y-92011153D01*
X119878554Y-91989529D01*
X119870496Y-91967007D01*
X119864684Y-91943803D01*
X119861174Y-91920142D01*
X119860000Y-91896250D01*
X119860000Y-90983750D01*
X119861174Y-90959858D01*
X119864684Y-90936197D01*
X119870496Y-90912993D01*
X119878554Y-90890471D01*
X119888782Y-90868847D01*
X119901079Y-90848330D01*
X119915329Y-90829117D01*
X119931393Y-90811393D01*
X119949117Y-90795329D01*
X119968330Y-90781079D01*
X119988847Y-90768782D01*
X120010471Y-90758554D01*
X120032993Y-90750496D01*
X120056197Y-90744684D01*
X120079858Y-90741174D01*
X120103750Y-90740000D01*
X120591250Y-90740000D01*
X120615142Y-90741174D01*
G37*
G36*
X123790142Y-69151174D02*
G01*
X123813803Y-69154684D01*
X123837007Y-69160496D01*
X123859529Y-69168554D01*
X123881153Y-69178782D01*
X123901670Y-69191079D01*
X123920883Y-69205329D01*
X123938607Y-69221393D01*
X123954671Y-69239117D01*
X123968921Y-69258330D01*
X123981218Y-69278847D01*
X123991446Y-69300471D01*
X123999504Y-69322993D01*
X124005316Y-69346197D01*
X124008826Y-69369858D01*
X124010000Y-69393750D01*
X124010000Y-70306250D01*
X124008826Y-70330142D01*
X124005316Y-70353803D01*
X123999504Y-70377007D01*
X123991446Y-70399529D01*
X123981218Y-70421153D01*
X123968921Y-70441670D01*
X123954671Y-70460883D01*
X123938607Y-70478607D01*
X123920883Y-70494671D01*
X123901670Y-70508921D01*
X123881153Y-70521218D01*
X123859529Y-70531446D01*
X123837007Y-70539504D01*
X123813803Y-70545316D01*
X123790142Y-70548826D01*
X123766250Y-70550000D01*
X123278750Y-70550000D01*
X123254858Y-70548826D01*
X123231197Y-70545316D01*
X123207993Y-70539504D01*
X123185471Y-70531446D01*
X123163847Y-70521218D01*
X123143330Y-70508921D01*
X123124117Y-70494671D01*
X123106393Y-70478607D01*
X123090329Y-70460883D01*
X123076079Y-70441670D01*
X123063782Y-70421153D01*
X123053554Y-70399529D01*
X123045496Y-70377007D01*
X123039684Y-70353803D01*
X123036174Y-70330142D01*
X123035000Y-70306250D01*
X123035000Y-69393750D01*
X123036174Y-69369858D01*
X123039684Y-69346197D01*
X123045496Y-69322993D01*
X123053554Y-69300471D01*
X123063782Y-69278847D01*
X123076079Y-69258330D01*
X123090329Y-69239117D01*
X123106393Y-69221393D01*
X123124117Y-69205329D01*
X123143330Y-69191079D01*
X123163847Y-69178782D01*
X123185471Y-69168554D01*
X123207993Y-69160496D01*
X123231197Y-69154684D01*
X123254858Y-69151174D01*
X123278750Y-69150000D01*
X123766250Y-69150000D01*
X123790142Y-69151174D01*
G37*
G36*
X125665142Y-69151174D02*
G01*
X125688803Y-69154684D01*
X125712007Y-69160496D01*
X125734529Y-69168554D01*
X125756153Y-69178782D01*
X125776670Y-69191079D01*
X125795883Y-69205329D01*
X125813607Y-69221393D01*
X125829671Y-69239117D01*
X125843921Y-69258330D01*
X125856218Y-69278847D01*
X125866446Y-69300471D01*
X125874504Y-69322993D01*
X125880316Y-69346197D01*
X125883826Y-69369858D01*
X125885000Y-69393750D01*
X125885000Y-70306250D01*
X125883826Y-70330142D01*
X125880316Y-70353803D01*
X125874504Y-70377007D01*
X125866446Y-70399529D01*
X125856218Y-70421153D01*
X125843921Y-70441670D01*
X125829671Y-70460883D01*
X125813607Y-70478607D01*
X125795883Y-70494671D01*
X125776670Y-70508921D01*
X125756153Y-70521218D01*
X125734529Y-70531446D01*
X125712007Y-70539504D01*
X125688803Y-70545316D01*
X125665142Y-70548826D01*
X125641250Y-70550000D01*
X125153750Y-70550000D01*
X125129858Y-70548826D01*
X125106197Y-70545316D01*
X125082993Y-70539504D01*
X125060471Y-70531446D01*
X125038847Y-70521218D01*
X125018330Y-70508921D01*
X124999117Y-70494671D01*
X124981393Y-70478607D01*
X124965329Y-70460883D01*
X124951079Y-70441670D01*
X124938782Y-70421153D01*
X124928554Y-70399529D01*
X124920496Y-70377007D01*
X124914684Y-70353803D01*
X124911174Y-70330142D01*
X124910000Y-70306250D01*
X124910000Y-69393750D01*
X124911174Y-69369858D01*
X124914684Y-69346197D01*
X124920496Y-69322993D01*
X124928554Y-69300471D01*
X124938782Y-69278847D01*
X124951079Y-69258330D01*
X124965329Y-69239117D01*
X124981393Y-69221393D01*
X124999117Y-69205329D01*
X125018330Y-69191079D01*
X125038847Y-69178782D01*
X125060471Y-69168554D01*
X125082993Y-69160496D01*
X125106197Y-69154684D01*
X125129858Y-69151174D01*
X125153750Y-69150000D01*
X125641250Y-69150000D01*
X125665142Y-69151174D01*
G37*
D16*
X95885000Y-153305000D03*
X96835000Y-155305000D03*
X94935000Y-155305000D03*
D12*
G36*
X150430142Y-59626174D02*
G01*
X150453803Y-59629684D01*
X150477007Y-59635496D01*
X150499529Y-59643554D01*
X150521153Y-59653782D01*
X150541670Y-59666079D01*
X150560883Y-59680329D01*
X150578607Y-59696393D01*
X150594671Y-59714117D01*
X150608921Y-59733330D01*
X150621218Y-59753847D01*
X150631446Y-59775471D01*
X150639504Y-59797993D01*
X150645316Y-59821197D01*
X150648826Y-59844858D01*
X150650000Y-59868750D01*
X150650000Y-60781250D01*
X150648826Y-60805142D01*
X150645316Y-60828803D01*
X150639504Y-60852007D01*
X150631446Y-60874529D01*
X150621218Y-60896153D01*
X150608921Y-60916670D01*
X150594671Y-60935883D01*
X150578607Y-60953607D01*
X150560883Y-60969671D01*
X150541670Y-60983921D01*
X150521153Y-60996218D01*
X150499529Y-61006446D01*
X150477007Y-61014504D01*
X150453803Y-61020316D01*
X150430142Y-61023826D01*
X150406250Y-61025000D01*
X149918750Y-61025000D01*
X149894858Y-61023826D01*
X149871197Y-61020316D01*
X149847993Y-61014504D01*
X149825471Y-61006446D01*
X149803847Y-60996218D01*
X149783330Y-60983921D01*
X149764117Y-60969671D01*
X149746393Y-60953607D01*
X149730329Y-60935883D01*
X149716079Y-60916670D01*
X149703782Y-60896153D01*
X149693554Y-60874529D01*
X149685496Y-60852007D01*
X149679684Y-60828803D01*
X149676174Y-60805142D01*
X149675000Y-60781250D01*
X149675000Y-59868750D01*
X149676174Y-59844858D01*
X149679684Y-59821197D01*
X149685496Y-59797993D01*
X149693554Y-59775471D01*
X149703782Y-59753847D01*
X149716079Y-59733330D01*
X149730329Y-59714117D01*
X149746393Y-59696393D01*
X149764117Y-59680329D01*
X149783330Y-59666079D01*
X149803847Y-59653782D01*
X149825471Y-59643554D01*
X149847993Y-59635496D01*
X149871197Y-59629684D01*
X149894858Y-59626174D01*
X149918750Y-59625000D01*
X150406250Y-59625000D01*
X150430142Y-59626174D01*
G37*
G36*
X148555142Y-59626174D02*
G01*
X148578803Y-59629684D01*
X148602007Y-59635496D01*
X148624529Y-59643554D01*
X148646153Y-59653782D01*
X148666670Y-59666079D01*
X148685883Y-59680329D01*
X148703607Y-59696393D01*
X148719671Y-59714117D01*
X148733921Y-59733330D01*
X148746218Y-59753847D01*
X148756446Y-59775471D01*
X148764504Y-59797993D01*
X148770316Y-59821197D01*
X148773826Y-59844858D01*
X148775000Y-59868750D01*
X148775000Y-60781250D01*
X148773826Y-60805142D01*
X148770316Y-60828803D01*
X148764504Y-60852007D01*
X148756446Y-60874529D01*
X148746218Y-60896153D01*
X148733921Y-60916670D01*
X148719671Y-60935883D01*
X148703607Y-60953607D01*
X148685883Y-60969671D01*
X148666670Y-60983921D01*
X148646153Y-60996218D01*
X148624529Y-61006446D01*
X148602007Y-61014504D01*
X148578803Y-61020316D01*
X148555142Y-61023826D01*
X148531250Y-61025000D01*
X148043750Y-61025000D01*
X148019858Y-61023826D01*
X147996197Y-61020316D01*
X147972993Y-61014504D01*
X147950471Y-61006446D01*
X147928847Y-60996218D01*
X147908330Y-60983921D01*
X147889117Y-60969671D01*
X147871393Y-60953607D01*
X147855329Y-60935883D01*
X147841079Y-60916670D01*
X147828782Y-60896153D01*
X147818554Y-60874529D01*
X147810496Y-60852007D01*
X147804684Y-60828803D01*
X147801174Y-60805142D01*
X147800000Y-60781250D01*
X147800000Y-59868750D01*
X147801174Y-59844858D01*
X147804684Y-59821197D01*
X147810496Y-59797993D01*
X147818554Y-59775471D01*
X147828782Y-59753847D01*
X147841079Y-59733330D01*
X147855329Y-59714117D01*
X147871393Y-59696393D01*
X147889117Y-59680329D01*
X147908330Y-59666079D01*
X147928847Y-59653782D01*
X147950471Y-59643554D01*
X147972993Y-59635496D01*
X147996197Y-59629684D01*
X148019858Y-59626174D01*
X148043750Y-59625000D01*
X148531250Y-59625000D01*
X148555142Y-59626174D01*
G37*
G36*
X135855142Y-59626174D02*
G01*
X135878803Y-59629684D01*
X135902007Y-59635496D01*
X135924529Y-59643554D01*
X135946153Y-59653782D01*
X135966670Y-59666079D01*
X135985883Y-59680329D01*
X136003607Y-59696393D01*
X136019671Y-59714117D01*
X136033921Y-59733330D01*
X136046218Y-59753847D01*
X136056446Y-59775471D01*
X136064504Y-59797993D01*
X136070316Y-59821197D01*
X136073826Y-59844858D01*
X136075000Y-59868750D01*
X136075000Y-60781250D01*
X136073826Y-60805142D01*
X136070316Y-60828803D01*
X136064504Y-60852007D01*
X136056446Y-60874529D01*
X136046218Y-60896153D01*
X136033921Y-60916670D01*
X136019671Y-60935883D01*
X136003607Y-60953607D01*
X135985883Y-60969671D01*
X135966670Y-60983921D01*
X135946153Y-60996218D01*
X135924529Y-61006446D01*
X135902007Y-61014504D01*
X135878803Y-61020316D01*
X135855142Y-61023826D01*
X135831250Y-61025000D01*
X135343750Y-61025000D01*
X135319858Y-61023826D01*
X135296197Y-61020316D01*
X135272993Y-61014504D01*
X135250471Y-61006446D01*
X135228847Y-60996218D01*
X135208330Y-60983921D01*
X135189117Y-60969671D01*
X135171393Y-60953607D01*
X135155329Y-60935883D01*
X135141079Y-60916670D01*
X135128782Y-60896153D01*
X135118554Y-60874529D01*
X135110496Y-60852007D01*
X135104684Y-60828803D01*
X135101174Y-60805142D01*
X135100000Y-60781250D01*
X135100000Y-59868750D01*
X135101174Y-59844858D01*
X135104684Y-59821197D01*
X135110496Y-59797993D01*
X135118554Y-59775471D01*
X135128782Y-59753847D01*
X135141079Y-59733330D01*
X135155329Y-59714117D01*
X135171393Y-59696393D01*
X135189117Y-59680329D01*
X135208330Y-59666079D01*
X135228847Y-59653782D01*
X135250471Y-59643554D01*
X135272993Y-59635496D01*
X135296197Y-59629684D01*
X135319858Y-59626174D01*
X135343750Y-59625000D01*
X135831250Y-59625000D01*
X135855142Y-59626174D01*
G37*
G36*
X137730142Y-59626174D02*
G01*
X137753803Y-59629684D01*
X137777007Y-59635496D01*
X137799529Y-59643554D01*
X137821153Y-59653782D01*
X137841670Y-59666079D01*
X137860883Y-59680329D01*
X137878607Y-59696393D01*
X137894671Y-59714117D01*
X137908921Y-59733330D01*
X137921218Y-59753847D01*
X137931446Y-59775471D01*
X137939504Y-59797993D01*
X137945316Y-59821197D01*
X137948826Y-59844858D01*
X137950000Y-59868750D01*
X137950000Y-60781250D01*
X137948826Y-60805142D01*
X137945316Y-60828803D01*
X137939504Y-60852007D01*
X137931446Y-60874529D01*
X137921218Y-60896153D01*
X137908921Y-60916670D01*
X137894671Y-60935883D01*
X137878607Y-60953607D01*
X137860883Y-60969671D01*
X137841670Y-60983921D01*
X137821153Y-60996218D01*
X137799529Y-61006446D01*
X137777007Y-61014504D01*
X137753803Y-61020316D01*
X137730142Y-61023826D01*
X137706250Y-61025000D01*
X137218750Y-61025000D01*
X137194858Y-61023826D01*
X137171197Y-61020316D01*
X137147993Y-61014504D01*
X137125471Y-61006446D01*
X137103847Y-60996218D01*
X137083330Y-60983921D01*
X137064117Y-60969671D01*
X137046393Y-60953607D01*
X137030329Y-60935883D01*
X137016079Y-60916670D01*
X137003782Y-60896153D01*
X136993554Y-60874529D01*
X136985496Y-60852007D01*
X136979684Y-60828803D01*
X136976174Y-60805142D01*
X136975000Y-60781250D01*
X136975000Y-59868750D01*
X136976174Y-59844858D01*
X136979684Y-59821197D01*
X136985496Y-59797993D01*
X136993554Y-59775471D01*
X137003782Y-59753847D01*
X137016079Y-59733330D01*
X137030329Y-59714117D01*
X137046393Y-59696393D01*
X137064117Y-59680329D01*
X137083330Y-59666079D01*
X137103847Y-59653782D01*
X137125471Y-59643554D01*
X137147993Y-59635496D01*
X137171197Y-59629684D01*
X137194858Y-59626174D01*
X137218750Y-59625000D01*
X137706250Y-59625000D01*
X137730142Y-59626174D01*
G37*
G36*
X139000142Y-92011174D02*
G01*
X139023803Y-92014684D01*
X139047007Y-92020496D01*
X139069529Y-92028554D01*
X139091153Y-92038782D01*
X139111670Y-92051079D01*
X139130883Y-92065329D01*
X139148607Y-92081393D01*
X139164671Y-92099117D01*
X139178921Y-92118330D01*
X139191218Y-92138847D01*
X139201446Y-92160471D01*
X139209504Y-92182993D01*
X139215316Y-92206197D01*
X139218826Y-92229858D01*
X139220000Y-92253750D01*
X139220000Y-93166250D01*
X139218826Y-93190142D01*
X139215316Y-93213803D01*
X139209504Y-93237007D01*
X139201446Y-93259529D01*
X139191218Y-93281153D01*
X139178921Y-93301670D01*
X139164671Y-93320883D01*
X139148607Y-93338607D01*
X139130883Y-93354671D01*
X139111670Y-93368921D01*
X139091153Y-93381218D01*
X139069529Y-93391446D01*
X139047007Y-93399504D01*
X139023803Y-93405316D01*
X139000142Y-93408826D01*
X138976250Y-93410000D01*
X138488750Y-93410000D01*
X138464858Y-93408826D01*
X138441197Y-93405316D01*
X138417993Y-93399504D01*
X138395471Y-93391446D01*
X138373847Y-93381218D01*
X138353330Y-93368921D01*
X138334117Y-93354671D01*
X138316393Y-93338607D01*
X138300329Y-93320883D01*
X138286079Y-93301670D01*
X138273782Y-93281153D01*
X138263554Y-93259529D01*
X138255496Y-93237007D01*
X138249684Y-93213803D01*
X138246174Y-93190142D01*
X138245000Y-93166250D01*
X138245000Y-92253750D01*
X138246174Y-92229858D01*
X138249684Y-92206197D01*
X138255496Y-92182993D01*
X138263554Y-92160471D01*
X138273782Y-92138847D01*
X138286079Y-92118330D01*
X138300329Y-92099117D01*
X138316393Y-92081393D01*
X138334117Y-92065329D01*
X138353330Y-92051079D01*
X138373847Y-92038782D01*
X138395471Y-92028554D01*
X138417993Y-92020496D01*
X138441197Y-92014684D01*
X138464858Y-92011174D01*
X138488750Y-92010000D01*
X138976250Y-92010000D01*
X139000142Y-92011174D01*
G37*
G36*
X137125142Y-92011174D02*
G01*
X137148803Y-92014684D01*
X137172007Y-92020496D01*
X137194529Y-92028554D01*
X137216153Y-92038782D01*
X137236670Y-92051079D01*
X137255883Y-92065329D01*
X137273607Y-92081393D01*
X137289671Y-92099117D01*
X137303921Y-92118330D01*
X137316218Y-92138847D01*
X137326446Y-92160471D01*
X137334504Y-92182993D01*
X137340316Y-92206197D01*
X137343826Y-92229858D01*
X137345000Y-92253750D01*
X137345000Y-93166250D01*
X137343826Y-93190142D01*
X137340316Y-93213803D01*
X137334504Y-93237007D01*
X137326446Y-93259529D01*
X137316218Y-93281153D01*
X137303921Y-93301670D01*
X137289671Y-93320883D01*
X137273607Y-93338607D01*
X137255883Y-93354671D01*
X137236670Y-93368921D01*
X137216153Y-93381218D01*
X137194529Y-93391446D01*
X137172007Y-93399504D01*
X137148803Y-93405316D01*
X137125142Y-93408826D01*
X137101250Y-93410000D01*
X136613750Y-93410000D01*
X136589858Y-93408826D01*
X136566197Y-93405316D01*
X136542993Y-93399504D01*
X136520471Y-93391446D01*
X136498847Y-93381218D01*
X136478330Y-93368921D01*
X136459117Y-93354671D01*
X136441393Y-93338607D01*
X136425329Y-93320883D01*
X136411079Y-93301670D01*
X136398782Y-93281153D01*
X136388554Y-93259529D01*
X136380496Y-93237007D01*
X136374684Y-93213803D01*
X136371174Y-93190142D01*
X136370000Y-93166250D01*
X136370000Y-92253750D01*
X136371174Y-92229858D01*
X136374684Y-92206197D01*
X136380496Y-92182993D01*
X136388554Y-92160471D01*
X136398782Y-92138847D01*
X136411079Y-92118330D01*
X136425329Y-92099117D01*
X136441393Y-92081393D01*
X136459117Y-92065329D01*
X136478330Y-92051079D01*
X136498847Y-92038782D01*
X136520471Y-92028554D01*
X136542993Y-92020496D01*
X136566197Y-92014684D01*
X136589858Y-92011174D01*
X136613750Y-92010000D01*
X137101250Y-92010000D01*
X137125142Y-92011174D01*
G37*
G36*
X119980142Y-75501174D02*
G01*
X120003803Y-75504684D01*
X120027007Y-75510496D01*
X120049529Y-75518554D01*
X120071153Y-75528782D01*
X120091670Y-75541079D01*
X120110883Y-75555329D01*
X120128607Y-75571393D01*
X120144671Y-75589117D01*
X120158921Y-75608330D01*
X120171218Y-75628847D01*
X120181446Y-75650471D01*
X120189504Y-75672993D01*
X120195316Y-75696197D01*
X120198826Y-75719858D01*
X120200000Y-75743750D01*
X120200000Y-76656250D01*
X120198826Y-76680142D01*
X120195316Y-76703803D01*
X120189504Y-76727007D01*
X120181446Y-76749529D01*
X120171218Y-76771153D01*
X120158921Y-76791670D01*
X120144671Y-76810883D01*
X120128607Y-76828607D01*
X120110883Y-76844671D01*
X120091670Y-76858921D01*
X120071153Y-76871218D01*
X120049529Y-76881446D01*
X120027007Y-76889504D01*
X120003803Y-76895316D01*
X119980142Y-76898826D01*
X119956250Y-76900000D01*
X119468750Y-76900000D01*
X119444858Y-76898826D01*
X119421197Y-76895316D01*
X119397993Y-76889504D01*
X119375471Y-76881446D01*
X119353847Y-76871218D01*
X119333330Y-76858921D01*
X119314117Y-76844671D01*
X119296393Y-76828607D01*
X119280329Y-76810883D01*
X119266079Y-76791670D01*
X119253782Y-76771153D01*
X119243554Y-76749529D01*
X119235496Y-76727007D01*
X119229684Y-76703803D01*
X119226174Y-76680142D01*
X119225000Y-76656250D01*
X119225000Y-75743750D01*
X119226174Y-75719858D01*
X119229684Y-75696197D01*
X119235496Y-75672993D01*
X119243554Y-75650471D01*
X119253782Y-75628847D01*
X119266079Y-75608330D01*
X119280329Y-75589117D01*
X119296393Y-75571393D01*
X119314117Y-75555329D01*
X119333330Y-75541079D01*
X119353847Y-75528782D01*
X119375471Y-75518554D01*
X119397993Y-75510496D01*
X119421197Y-75504684D01*
X119444858Y-75501174D01*
X119468750Y-75500000D01*
X119956250Y-75500000D01*
X119980142Y-75501174D01*
G37*
G36*
X121855142Y-75501174D02*
G01*
X121878803Y-75504684D01*
X121902007Y-75510496D01*
X121924529Y-75518554D01*
X121946153Y-75528782D01*
X121966670Y-75541079D01*
X121985883Y-75555329D01*
X122003607Y-75571393D01*
X122019671Y-75589117D01*
X122033921Y-75608330D01*
X122046218Y-75628847D01*
X122056446Y-75650471D01*
X122064504Y-75672993D01*
X122070316Y-75696197D01*
X122073826Y-75719858D01*
X122075000Y-75743750D01*
X122075000Y-76656250D01*
X122073826Y-76680142D01*
X122070316Y-76703803D01*
X122064504Y-76727007D01*
X122056446Y-76749529D01*
X122046218Y-76771153D01*
X122033921Y-76791670D01*
X122019671Y-76810883D01*
X122003607Y-76828607D01*
X121985883Y-76844671D01*
X121966670Y-76858921D01*
X121946153Y-76871218D01*
X121924529Y-76881446D01*
X121902007Y-76889504D01*
X121878803Y-76895316D01*
X121855142Y-76898826D01*
X121831250Y-76900000D01*
X121343750Y-76900000D01*
X121319858Y-76898826D01*
X121296197Y-76895316D01*
X121272993Y-76889504D01*
X121250471Y-76881446D01*
X121228847Y-76871218D01*
X121208330Y-76858921D01*
X121189117Y-76844671D01*
X121171393Y-76828607D01*
X121155329Y-76810883D01*
X121141079Y-76791670D01*
X121128782Y-76771153D01*
X121118554Y-76749529D01*
X121110496Y-76727007D01*
X121104684Y-76703803D01*
X121101174Y-76680142D01*
X121100000Y-76656250D01*
X121100000Y-75743750D01*
X121101174Y-75719858D01*
X121104684Y-75696197D01*
X121110496Y-75672993D01*
X121118554Y-75650471D01*
X121128782Y-75628847D01*
X121141079Y-75608330D01*
X121155329Y-75589117D01*
X121171393Y-75571393D01*
X121189117Y-75555329D01*
X121208330Y-75541079D01*
X121228847Y-75528782D01*
X121250471Y-75518554D01*
X121272993Y-75510496D01*
X121296197Y-75504684D01*
X121319858Y-75501174D01*
X121343750Y-75500000D01*
X121831250Y-75500000D01*
X121855142Y-75501174D01*
G37*
G36*
X119980142Y-79311174D02*
G01*
X120003803Y-79314684D01*
X120027007Y-79320496D01*
X120049529Y-79328554D01*
X120071153Y-79338782D01*
X120091670Y-79351079D01*
X120110883Y-79365329D01*
X120128607Y-79381393D01*
X120144671Y-79399117D01*
X120158921Y-79418330D01*
X120171218Y-79438847D01*
X120181446Y-79460471D01*
X120189504Y-79482993D01*
X120195316Y-79506197D01*
X120198826Y-79529858D01*
X120200000Y-79553750D01*
X120200000Y-80466250D01*
X120198826Y-80490142D01*
X120195316Y-80513803D01*
X120189504Y-80537007D01*
X120181446Y-80559529D01*
X120171218Y-80581153D01*
X120158921Y-80601670D01*
X120144671Y-80620883D01*
X120128607Y-80638607D01*
X120110883Y-80654671D01*
X120091670Y-80668921D01*
X120071153Y-80681218D01*
X120049529Y-80691446D01*
X120027007Y-80699504D01*
X120003803Y-80705316D01*
X119980142Y-80708826D01*
X119956250Y-80710000D01*
X119468750Y-80710000D01*
X119444858Y-80708826D01*
X119421197Y-80705316D01*
X119397993Y-80699504D01*
X119375471Y-80691446D01*
X119353847Y-80681218D01*
X119333330Y-80668921D01*
X119314117Y-80654671D01*
X119296393Y-80638607D01*
X119280329Y-80620883D01*
X119266079Y-80601670D01*
X119253782Y-80581153D01*
X119243554Y-80559529D01*
X119235496Y-80537007D01*
X119229684Y-80513803D01*
X119226174Y-80490142D01*
X119225000Y-80466250D01*
X119225000Y-79553750D01*
X119226174Y-79529858D01*
X119229684Y-79506197D01*
X119235496Y-79482993D01*
X119243554Y-79460471D01*
X119253782Y-79438847D01*
X119266079Y-79418330D01*
X119280329Y-79399117D01*
X119296393Y-79381393D01*
X119314117Y-79365329D01*
X119333330Y-79351079D01*
X119353847Y-79338782D01*
X119375471Y-79328554D01*
X119397993Y-79320496D01*
X119421197Y-79314684D01*
X119444858Y-79311174D01*
X119468750Y-79310000D01*
X119956250Y-79310000D01*
X119980142Y-79311174D01*
G37*
G36*
X121855142Y-79311174D02*
G01*
X121878803Y-79314684D01*
X121902007Y-79320496D01*
X121924529Y-79328554D01*
X121946153Y-79338782D01*
X121966670Y-79351079D01*
X121985883Y-79365329D01*
X122003607Y-79381393D01*
X122019671Y-79399117D01*
X122033921Y-79418330D01*
X122046218Y-79438847D01*
X122056446Y-79460471D01*
X122064504Y-79482993D01*
X122070316Y-79506197D01*
X122073826Y-79529858D01*
X122075000Y-79553750D01*
X122075000Y-80466250D01*
X122073826Y-80490142D01*
X122070316Y-80513803D01*
X122064504Y-80537007D01*
X122056446Y-80559529D01*
X122046218Y-80581153D01*
X122033921Y-80601670D01*
X122019671Y-80620883D01*
X122003607Y-80638607D01*
X121985883Y-80654671D01*
X121966670Y-80668921D01*
X121946153Y-80681218D01*
X121924529Y-80691446D01*
X121902007Y-80699504D01*
X121878803Y-80705316D01*
X121855142Y-80708826D01*
X121831250Y-80710000D01*
X121343750Y-80710000D01*
X121319858Y-80708826D01*
X121296197Y-80705316D01*
X121272993Y-80699504D01*
X121250471Y-80691446D01*
X121228847Y-80681218D01*
X121208330Y-80668921D01*
X121189117Y-80654671D01*
X121171393Y-80638607D01*
X121155329Y-80620883D01*
X121141079Y-80601670D01*
X121128782Y-80581153D01*
X121118554Y-80559529D01*
X121110496Y-80537007D01*
X121104684Y-80513803D01*
X121101174Y-80490142D01*
X121100000Y-80466250D01*
X121100000Y-79553750D01*
X121101174Y-79529858D01*
X121104684Y-79506197D01*
X121110496Y-79482993D01*
X121118554Y-79460471D01*
X121128782Y-79438847D01*
X121141079Y-79418330D01*
X121155329Y-79399117D01*
X121171393Y-79381393D01*
X121189117Y-79365329D01*
X121208330Y-79351079D01*
X121228847Y-79338782D01*
X121250471Y-79328554D01*
X121272993Y-79320496D01*
X121296197Y-79314684D01*
X121319858Y-79311174D01*
X121343750Y-79310000D01*
X121831250Y-79310000D01*
X121855142Y-79311174D01*
G37*
G36*
X139635142Y-79311174D02*
G01*
X139658803Y-79314684D01*
X139682007Y-79320496D01*
X139704529Y-79328554D01*
X139726153Y-79338782D01*
X139746670Y-79351079D01*
X139765883Y-79365329D01*
X139783607Y-79381393D01*
X139799671Y-79399117D01*
X139813921Y-79418330D01*
X139826218Y-79438847D01*
X139836446Y-79460471D01*
X139844504Y-79482993D01*
X139850316Y-79506197D01*
X139853826Y-79529858D01*
X139855000Y-79553750D01*
X139855000Y-80466250D01*
X139853826Y-80490142D01*
X139850316Y-80513803D01*
X139844504Y-80537007D01*
X139836446Y-80559529D01*
X139826218Y-80581153D01*
X139813921Y-80601670D01*
X139799671Y-80620883D01*
X139783607Y-80638607D01*
X139765883Y-80654671D01*
X139746670Y-80668921D01*
X139726153Y-80681218D01*
X139704529Y-80691446D01*
X139682007Y-80699504D01*
X139658803Y-80705316D01*
X139635142Y-80708826D01*
X139611250Y-80710000D01*
X139123750Y-80710000D01*
X139099858Y-80708826D01*
X139076197Y-80705316D01*
X139052993Y-80699504D01*
X139030471Y-80691446D01*
X139008847Y-80681218D01*
X138988330Y-80668921D01*
X138969117Y-80654671D01*
X138951393Y-80638607D01*
X138935329Y-80620883D01*
X138921079Y-80601670D01*
X138908782Y-80581153D01*
X138898554Y-80559529D01*
X138890496Y-80537007D01*
X138884684Y-80513803D01*
X138881174Y-80490142D01*
X138880000Y-80466250D01*
X138880000Y-79553750D01*
X138881174Y-79529858D01*
X138884684Y-79506197D01*
X138890496Y-79482993D01*
X138898554Y-79460471D01*
X138908782Y-79438847D01*
X138921079Y-79418330D01*
X138935329Y-79399117D01*
X138951393Y-79381393D01*
X138969117Y-79365329D01*
X138988330Y-79351079D01*
X139008847Y-79338782D01*
X139030471Y-79328554D01*
X139052993Y-79320496D01*
X139076197Y-79314684D01*
X139099858Y-79311174D01*
X139123750Y-79310000D01*
X139611250Y-79310000D01*
X139635142Y-79311174D01*
G37*
G36*
X137760142Y-79311174D02*
G01*
X137783803Y-79314684D01*
X137807007Y-79320496D01*
X137829529Y-79328554D01*
X137851153Y-79338782D01*
X137871670Y-79351079D01*
X137890883Y-79365329D01*
X137908607Y-79381393D01*
X137924671Y-79399117D01*
X137938921Y-79418330D01*
X137951218Y-79438847D01*
X137961446Y-79460471D01*
X137969504Y-79482993D01*
X137975316Y-79506197D01*
X137978826Y-79529858D01*
X137980000Y-79553750D01*
X137980000Y-80466250D01*
X137978826Y-80490142D01*
X137975316Y-80513803D01*
X137969504Y-80537007D01*
X137961446Y-80559529D01*
X137951218Y-80581153D01*
X137938921Y-80601670D01*
X137924671Y-80620883D01*
X137908607Y-80638607D01*
X137890883Y-80654671D01*
X137871670Y-80668921D01*
X137851153Y-80681218D01*
X137829529Y-80691446D01*
X137807007Y-80699504D01*
X137783803Y-80705316D01*
X137760142Y-80708826D01*
X137736250Y-80710000D01*
X137248750Y-80710000D01*
X137224858Y-80708826D01*
X137201197Y-80705316D01*
X137177993Y-80699504D01*
X137155471Y-80691446D01*
X137133847Y-80681218D01*
X137113330Y-80668921D01*
X137094117Y-80654671D01*
X137076393Y-80638607D01*
X137060329Y-80620883D01*
X137046079Y-80601670D01*
X137033782Y-80581153D01*
X137023554Y-80559529D01*
X137015496Y-80537007D01*
X137009684Y-80513803D01*
X137006174Y-80490142D01*
X137005000Y-80466250D01*
X137005000Y-79553750D01*
X137006174Y-79529858D01*
X137009684Y-79506197D01*
X137015496Y-79482993D01*
X137023554Y-79460471D01*
X137033782Y-79438847D01*
X137046079Y-79418330D01*
X137060329Y-79399117D01*
X137076393Y-79381393D01*
X137094117Y-79365329D01*
X137113330Y-79351079D01*
X137133847Y-79338782D01*
X137155471Y-79328554D01*
X137177993Y-79320496D01*
X137201197Y-79314684D01*
X137224858Y-79311174D01*
X137248750Y-79310000D01*
X137736250Y-79310000D01*
X137760142Y-79311174D01*
G37*
G36*
X121885142Y-63436174D02*
G01*
X121908803Y-63439684D01*
X121932007Y-63445496D01*
X121954529Y-63453554D01*
X121976153Y-63463782D01*
X121996670Y-63476079D01*
X122015883Y-63490329D01*
X122033607Y-63506393D01*
X122049671Y-63524117D01*
X122063921Y-63543330D01*
X122076218Y-63563847D01*
X122086446Y-63585471D01*
X122094504Y-63607993D01*
X122100316Y-63631197D01*
X122103826Y-63654858D01*
X122105000Y-63678750D01*
X122105000Y-64591250D01*
X122103826Y-64615142D01*
X122100316Y-64638803D01*
X122094504Y-64662007D01*
X122086446Y-64684529D01*
X122076218Y-64706153D01*
X122063921Y-64726670D01*
X122049671Y-64745883D01*
X122033607Y-64763607D01*
X122015883Y-64779671D01*
X121996670Y-64793921D01*
X121976153Y-64806218D01*
X121954529Y-64816446D01*
X121932007Y-64824504D01*
X121908803Y-64830316D01*
X121885142Y-64833826D01*
X121861250Y-64835000D01*
X121373750Y-64835000D01*
X121349858Y-64833826D01*
X121326197Y-64830316D01*
X121302993Y-64824504D01*
X121280471Y-64816446D01*
X121258847Y-64806218D01*
X121238330Y-64793921D01*
X121219117Y-64779671D01*
X121201393Y-64763607D01*
X121185329Y-64745883D01*
X121171079Y-64726670D01*
X121158782Y-64706153D01*
X121148554Y-64684529D01*
X121140496Y-64662007D01*
X121134684Y-64638803D01*
X121131174Y-64615142D01*
X121130000Y-64591250D01*
X121130000Y-63678750D01*
X121131174Y-63654858D01*
X121134684Y-63631197D01*
X121140496Y-63607993D01*
X121148554Y-63585471D01*
X121158782Y-63563847D01*
X121171079Y-63543330D01*
X121185329Y-63524117D01*
X121201393Y-63506393D01*
X121219117Y-63490329D01*
X121238330Y-63476079D01*
X121258847Y-63463782D01*
X121280471Y-63453554D01*
X121302993Y-63445496D01*
X121326197Y-63439684D01*
X121349858Y-63436174D01*
X121373750Y-63435000D01*
X121861250Y-63435000D01*
X121885142Y-63436174D01*
G37*
G36*
X123760142Y-63436174D02*
G01*
X123783803Y-63439684D01*
X123807007Y-63445496D01*
X123829529Y-63453554D01*
X123851153Y-63463782D01*
X123871670Y-63476079D01*
X123890883Y-63490329D01*
X123908607Y-63506393D01*
X123924671Y-63524117D01*
X123938921Y-63543330D01*
X123951218Y-63563847D01*
X123961446Y-63585471D01*
X123969504Y-63607993D01*
X123975316Y-63631197D01*
X123978826Y-63654858D01*
X123980000Y-63678750D01*
X123980000Y-64591250D01*
X123978826Y-64615142D01*
X123975316Y-64638803D01*
X123969504Y-64662007D01*
X123961446Y-64684529D01*
X123951218Y-64706153D01*
X123938921Y-64726670D01*
X123924671Y-64745883D01*
X123908607Y-64763607D01*
X123890883Y-64779671D01*
X123871670Y-64793921D01*
X123851153Y-64806218D01*
X123829529Y-64816446D01*
X123807007Y-64824504D01*
X123783803Y-64830316D01*
X123760142Y-64833826D01*
X123736250Y-64835000D01*
X123248750Y-64835000D01*
X123224858Y-64833826D01*
X123201197Y-64830316D01*
X123177993Y-64824504D01*
X123155471Y-64816446D01*
X123133847Y-64806218D01*
X123113330Y-64793921D01*
X123094117Y-64779671D01*
X123076393Y-64763607D01*
X123060329Y-64745883D01*
X123046079Y-64726670D01*
X123033782Y-64706153D01*
X123023554Y-64684529D01*
X123015496Y-64662007D01*
X123009684Y-64638803D01*
X123006174Y-64615142D01*
X123005000Y-64591250D01*
X123005000Y-63678750D01*
X123006174Y-63654858D01*
X123009684Y-63631197D01*
X123015496Y-63607993D01*
X123023554Y-63585471D01*
X123033782Y-63563847D01*
X123046079Y-63543330D01*
X123060329Y-63524117D01*
X123076393Y-63506393D01*
X123094117Y-63490329D01*
X123113330Y-63476079D01*
X123133847Y-63463782D01*
X123155471Y-63453554D01*
X123177993Y-63445496D01*
X123201197Y-63439684D01*
X123224858Y-63436174D01*
X123248750Y-63435000D01*
X123736250Y-63435000D01*
X123760142Y-63436174D01*
G37*
M02*
